<svg width="112" height="100" viewBox="0 0 112 100" fill="none" xmlns="http://www.w3.org/2000/svg">
<circle cx="50" cy="50" r="50" fill="#D9D9D9"/>
<path d="M36.52 38.36C36.8933 38.36 37.22 38.4133 37.5 38.52C37.7933 38.6133 38.0467 38.74 38.26 38.9C38.46 39.06 38.6133 39.2467 38.72 39.46C38.8267 39.6733 38.88 39.9 38.88 40.14C38.88 40.4467 38.78 40.7 38.58 40.9C38.38 41.1 38.1267 41.2 37.82 41.2C37.5267 41.2 37.2667 41.1067 37.04 40.92C36.8267 40.72 36.72 40.4533 36.72 40.12C36.72 39.84 36.7933 39.6133 36.94 39.44C37.1 39.2667 37.3067 39.1533 37.56 39.1C37.52 38.98 37.4133 38.88 37.24 38.8C37.08 38.7067 36.86 38.66 36.58 38.66C36.2733 38.66 36.0067 38.7267 35.78 38.86C35.5667 38.9933 35.4 39.1733 35.28 39.4C35.12 39.68 35.02 40.1 34.98 40.66C34.94 41.2067 34.92 42.0533 34.92 43.2V43.72H37.06V44.12H34.92V51.94C34.92 52.5933 35.1067 53.0333 35.48 53.26C35.8667 53.4733 36.3867 53.58 37.04 53.58V54C36.7333 53.9867 36.3 53.9733 35.74 53.96C35.18 53.9333 34.5867 53.92 33.96 53.92C33.5067 53.92 33.0533 53.9333 32.6 53.96C32.16 53.9733 31.8267 53.9867 31.6 54V53.58C32.1467 53.58 32.5333 53.48 32.76 53.28C33 53.08 33.12 52.7 33.12 52.14V44.12H31.52V43.72H33.12C33.12 42.9333 33.1533 42.2733 33.22 41.74C33.2867 41.2067 33.3933 40.7533 33.54 40.38C33.6867 39.9933 33.8867 39.6533 34.14 39.36C34.4067 39.0533 34.7467 38.8133 35.16 38.64C35.5733 38.4533 36.0267 38.36 36.52 38.36ZM42.7886 43.42C43.6419 43.42 44.4086 43.6067 45.0886 43.98C45.7686 44.3533 46.3086 44.94 46.7086 45.74C47.1219 46.54 47.3286 47.58 47.3286 48.86C47.3286 50.14 47.1219 51.18 46.7086 51.98C46.3086 52.7667 45.7686 53.3467 45.0886 53.72C44.4086 54.0933 43.6419 54.28 42.7886 54.28C41.9486 54.28 41.1819 54.0933 40.4886 53.72C39.8086 53.3467 39.2619 52.7667 38.8486 51.98C38.4486 51.18 38.2486 50.14 38.2486 48.86C38.2486 47.58 38.4486 46.54 38.8486 45.74C39.2619 44.94 39.8086 44.3533 40.4886 43.98C41.1819 43.6067 41.9486 43.42 42.7886 43.42ZM42.7886 43.82C42.0286 43.82 41.4019 44.2133 40.9086 45C40.4286 45.7867 40.1886 47.0733 40.1886 48.86C40.1886 50.6467 40.4286 51.9333 40.9086 52.72C41.4019 53.4933 42.0286 53.88 42.7886 53.88C43.5486 53.88 44.1686 53.4933 44.6486 52.72C45.1419 51.9333 45.3886 50.6467 45.3886 48.86C45.3886 47.0733 45.1419 45.7867 44.6486 45C44.1686 44.2133 43.5486 43.82 42.7886 43.82ZM52.0656 40.38V43.72H55.0256V44.12H52.0656V51.86C52.0656 52.4867 52.179 52.9267 52.4056 53.18C52.6323 53.4333 52.9456 53.56 53.3456 53.56C53.7456 53.56 54.0923 53.4 54.3856 53.08C54.679 52.7467 54.9323 52.1933 55.1456 51.42L55.5456 51.52C55.4123 52.2933 55.1456 52.9467 54.7456 53.48C54.359 54.0133 53.759 54.28 52.9456 54.28C52.4923 54.28 52.119 54.22 51.8256 54.1C51.5323 53.9933 51.2723 53.8333 51.0456 53.62C50.7523 53.3133 50.5456 52.9467 50.4256 52.52C50.319 52.0933 50.2656 51.5267 50.2656 50.82V44.12H48.3456V43.72H50.2656V40.66C50.599 40.6467 50.919 40.62 51.2256 40.58C51.5323 40.54 51.8123 40.4733 52.0656 40.38ZM60.8159 43.42C61.6693 43.42 62.4359 43.6067 63.1159 43.98C63.7959 44.3533 64.3359 44.94 64.7359 45.74C65.1493 46.54 65.3559 47.58 65.3559 48.86C65.3559 50.14 65.1493 51.18 64.7359 51.98C64.3359 52.7667 63.7959 53.3467 63.1159 53.72C62.4359 54.0933 61.6693 54.28 60.8159 54.28C59.9759 54.28 59.2093 54.0933 58.5159 53.72C57.8359 53.3467 57.2893 52.7667 56.8759 51.98C56.4759 51.18 56.2759 50.14 56.2759 48.86C56.2759 47.58 56.4759 46.54 56.8759 45.74C57.2893 44.94 57.8359 44.3533 58.5159 43.98C59.2093 43.6067 59.9759 43.42 60.8159 43.42ZM60.8159 43.82C60.0559 43.82 59.4293 44.2133 58.9359 45C58.4559 45.7867 58.2159 47.0733 58.2159 48.86C58.2159 50.6467 58.4559 51.9333 58.9359 52.72C59.4293 53.4933 60.0559 53.88 60.8159 53.88C61.5759 53.88 62.1959 53.4933 62.6759 52.72C63.1693 51.9333 63.4159 50.6467 63.4159 48.86C63.4159 47.0733 63.1693 45.7867 62.6759 45C62.1959 44.2133 61.5759 43.82 60.8159 43.82Z" fill="black"/>
</svg>
