<svg width="536" height="445" viewBox="0 0 536 445" fill="none" xmlns="http://www.w3.org/2000/svg">
<path d="M309.756 172.377C336.347 156.726 345.619 121.391 321.814 101.76C311.984 93.6531 301.169 86.7076 289.574 81.11C261.075 67.3529 229.138 62.3554 197.799 66.7495C166.461 71.1437 137.129 84.7321 113.514 105.796C89.8978 126.861 73.0587 154.455 65.1257 185.089C57.1926 215.724 58.5219 248.023 68.9454 277.902C79.369 307.781 98.4186 333.898 123.685 352.95C148.952 372.003 179.301 383.135 210.895 384.939C223.75 385.673 236.576 384.85 249.105 382.533C279.447 376.923 288.49 341.53 272.839 314.939L258.919 291.292C250.955 277.761 232.94 274.279 217.265 273.384V273.384C207.735 272.84 198.58 269.482 190.959 263.735C183.337 257.988 177.591 250.11 174.447 241.097C171.303 232.084 170.902 222.341 173.295 213.101C175.688 203.86 180.767 195.536 187.891 189.182C195.014 182.829 203.862 178.73 213.315 177.404C222.768 176.079 232.402 177.586 240.998 181.736V181.736C255.137 188.562 272.578 194.261 286.109 186.297L309.756 172.377Z" fill="url(#paint0_linear_267_82)" fill-opacity="0.15"/>
<path d="M362.39 337.004L355.022 335.923V298.407L362.39 299.22V337.004Z" fill="#999999" stroke="#263238" stroke-linecap="round" stroke-linejoin="round"/>
<path d="M528.02 317.471L189.374 280.166V66.8559L528.02 21.3721V317.471Z" fill="white" stroke="#263238" stroke-linecap="round" stroke-linejoin="round"/>
<path d="M530.912 20.9895L186.463 67.2672C184.087 67.5925 182.153 66.3107 182.153 64.3115V61.0497C182.153 59.1366 184.087 57.2235 186.463 56.8791L530.912 6.47865C533.288 6.12473 535.222 8.07609 535.222 10.8309V15.4224C535.244 16.7275 534.825 17.9995 534.038 19.0168C533.25 20.0341 532.144 20.7322 530.912 20.9895V20.9895Z" fill="#999999" stroke="#263238" stroke-linecap="round" stroke-linejoin="round"/>
<path d="M521.729 11.7211L527.753 10.8214" stroke="white" stroke-linecap="round" stroke-linejoin="round"/>
<path d="M505.548 14.1319L514.758 12.7632" stroke="white" stroke-linecap="round" stroke-linejoin="round"/>
<path d="M217.878 56.7261L500.114 14.9154" stroke="white" stroke-linecap="round" stroke-linejoin="round"/>
<path d="M189.641 60.9158L210.593 57.807" stroke="white" stroke-linecap="round" stroke-linejoin="round"/>
<path d="M391.935 285.848L334.337 280.463V195.971L391.981 195.837L391.935 285.848Z" fill="#7E8AF5"/>
<path opacity="0.8" d="M391.935 285.848L334.337 280.463V195.971L391.981 195.837L391.935 285.848Z" fill="white"/>
<path d="M449.58 291.233L391.935 285.848V195.875L449.58 195.751V291.233Z" fill="#7E8AF5"/>
<path opacity="0.6" d="M449.58 291.233L391.935 285.848V195.875L449.58 195.751V291.233Z" fill="white"/>
<path d="M507.215 296.619L449.58 291.233V195.712L507.215 195.578V296.619Z" fill="#7E8AF5"/>
<path opacity="0.4" d="M507.215 296.619L449.58 291.233V195.712L507.215 195.578V296.619Z" fill="white"/>
<path d="M507.215 195.578L334.337 195.971" stroke="#7F7F7F" stroke-linecap="round" stroke-linejoin="round"/>
<path d="M334.337 208.042L507.261 210.013" stroke="#7F7F7F" stroke-linecap="round" stroke-linejoin="round"/>
<path d="M507.215 224.447L334.337 220.114" stroke="#7F7F7F" stroke-linecap="round" stroke-linejoin="round"/>
<path d="M334.337 232.224L507.261 238.92" stroke="#7F7F7F" stroke-linecap="round" stroke-linejoin="round"/>
<path d="M507.215 253.316L334.337 244.248" stroke="#7F7F7F" stroke-linecap="round" stroke-linejoin="round"/>
<path d="M334.337 256.319L507.261 267.75" stroke="#7F7F7F" stroke-linecap="round" stroke-linejoin="round"/>
<path d="M507.215 282.184L334.337 268.391" stroke="#7F7F7F" stroke-linecap="round" stroke-linejoin="round"/>
<path d="M334.337 280.462L507.261 296.618" stroke="#7F7F7F" stroke-linecap="round" stroke-linejoin="round"/>
<path d="M348.704 281.811V195.933" stroke="#7F7F7F" stroke-linecap="round" stroke-linejoin="round"/>
<path d="M334.337 195.971V280.462" stroke="#7F7F7F" stroke-linecap="round" stroke-linejoin="round"/>
<path d="M377.522 284.499V195.875" stroke="#7F7F7F" stroke-linecap="round" stroke-linejoin="round"/>
<path d="M363.117 195.875V283.122" stroke="#7F7F7F" stroke-linecap="round" stroke-linejoin="round"/>
<path d="M406.349 287.197V195.808" stroke="#7F7F7F" stroke-linecap="round" stroke-linejoin="round"/>
<path d="M391.935 195.875V285.886" stroke="#7F7F7F" stroke-linecap="round" stroke-linejoin="round"/>
<path d="M435.166 289.885V195.741" stroke="#7F7F7F" stroke-linecap="round" stroke-linejoin="round"/>
<path d="M420.753 195.77V288.555" stroke="#7F7F7F" stroke-linecap="round" stroke-linejoin="round"/>
<path d="M463.984 292.582V195.674" stroke="#7F7F7F" stroke-linecap="round" stroke-linejoin="round"/>
<path d="M449.58 195.712V291.233" stroke="#7F7F7F" stroke-linecap="round" stroke-linejoin="round"/>
<path d="M492.811 295.27V195.607" stroke="#7F7F7F" stroke-linecap="round" stroke-linejoin="round"/>
<path d="M478.397 195.645V293.931" stroke="#7F7F7F" stroke-linecap="round" stroke-linejoin="round"/>
<path d="M507.215 195.578V296.619" stroke="#7F7F7F" stroke-linecap="round" stroke-linejoin="round"/>
<path d="M334.337 195.971V280.462L507.261 296.619V195.578L334.337 195.971Z" stroke="#263238" stroke-linecap="round" stroke-linejoin="round"/>
<path d="M341.502 280.769L337.173 280.367V256.137L341.502 256.424V280.769Z" fill="#263238"/>
<path d="M345.821 281.18L341.502 280.769V244.267L345.821 244.496V281.18Z" fill="#7E8AF5"/>
<path d="M355.906 282.117L351.587 281.716V238.671L355.906 238.862V282.117Z" fill="#263238"/>
<path d="M360.235 282.519L355.906 282.117V232.654L360.235 232.817V282.519Z" fill="#7E8AF5"/>
<path d="M370.32 283.456L366 283.055V245.539L370.32 245.769V283.456Z" fill="#263238"/>
<path d="M374.639 283.877L370.32 283.476V239.474L374.639 239.666V283.877Z" fill="#7E8AF5"/>
<path d="M384.733 284.834L380.405 284.432V259.007L384.733 259.294V284.834Z" fill="#263238" stroke="#263238" stroke-linecap="round" stroke-linejoin="round"/>
<path d="M389.053 285.197L384.733 284.796V254.186L389.053 254.444V285.197Z" fill="#7E8AF5" stroke="#7E8AF5" stroke-linecap="round" stroke-linejoin="round"/>
<path d="M399.137 286.135L394.818 285.733V242.181L399.137 242.382V286.135Z" fill="#263238"/>
<path d="M403.466 286.537L399.137 286.135V250.628L403.466 250.867V286.537Z" fill="#7E8AF5"/>
<path d="M413.541 287.474L409.222 287.072V249.308L413.541 249.537V287.474Z" fill="#263238"/>
<path d="M417.87 287.876L413.551 287.474V243.052L417.87 243.253V287.876Z" fill="#7E8AF5"/>
<path d="M427.964 288.813L423.635 288.411V241.196L427.964 241.387V288.813Z" fill="#263238"/>
<path d="M432.284 289.215L427.964 288.813V244.917L432.284 245.128V289.215Z" fill="#7E8AF5"/>
<path d="M442.368 290.152L438.049 289.75V231.592L442.368 231.745V290.152Z" fill="#263238"/>
<path d="M446.697 290.573L442.368 290.162V224.83L446.697 224.954V290.573Z" fill="#7E8AF5"/>
<path d="M456.828 291.53L452.508 291.128V236.356L456.828 236.519V291.53Z" fill="#263238"/>
<path d="M461.101 233.324V291.903L456.828 291.53V233.18L461.101 233.324Z" fill="#7E8AF5"/>
<path d="M471.195 292.84L466.866 292.438V229.498L471.195 229.632V292.84Z" fill="#263238"/>
<path d="M475.514 293.242L471.195 292.84V230.932L475.514 231.066V293.242Z" fill="#7E8AF5"/>
<path d="M485.599 294.179L481.28 293.778V220.745L485.599 220.841V294.179Z" fill="#263238"/>
<path d="M489.928 294.581L485.599 294.179V216.814L489.928 216.89V294.581Z" fill="#7E8AF5"/>
<path d="M500.013 295.519L495.684 295.117V209.458L500.013 209.506V295.519Z" fill="#263238"/>
<path d="M504.332 295.92L500.013 295.518V205.88H504.332V295.92Z" fill="#7E8AF5"/>
<path d="M393.16 241.167L380.626 240.594C379.94 240.597 379.277 240.336 378.766 239.86C378.256 239.385 377.933 238.729 377.863 238.02V229.718C377.891 229.373 377.986 229.038 378.141 228.732C378.296 228.426 378.509 228.156 378.767 227.936C379.024 227.717 379.321 227.553 379.64 227.455C379.96 227.357 380.295 227.326 380.626 227.365L393.16 227.757C393.85 227.739 394.519 227.996 395.033 228.474C395.546 228.952 395.865 229.616 395.923 230.33V238.805C395.898 239.151 395.806 239.489 395.652 239.797C395.498 240.105 395.285 240.378 395.027 240.599C394.769 240.82 394.471 240.984 394.15 241.081C393.829 241.179 393.492 241.208 393.16 241.167V241.167Z" fill="white" stroke="#263238" stroke-linecap="round" stroke-linejoin="round"/>
<path d="M381.473 237.418C381.048 237.356 380.661 237.131 380.388 236.788C380.115 236.444 379.977 236.007 379.999 235.562V235.093H381.289V235.667C381.289 236.136 381.556 236.346 381.989 236.366C382.421 236.385 382.688 236.193 382.688 235.706C382.688 235.218 382.44 234.749 381.528 234.089C380.423 233.276 380.036 232.654 380.036 231.822C380.021 231.611 380.046 231.4 380.111 231.199C380.175 230.999 380.277 230.814 380.41 230.655C380.544 230.495 380.707 230.365 380.889 230.272C381.071 230.178 381.27 230.123 381.473 230.11V229.45H382.578V230.11C383 230.169 383.385 230.393 383.655 230.735C383.925 231.078 384.06 231.514 384.033 231.956V232.224H382.753V231.927C382.764 231.832 382.753 231.736 382.722 231.645C382.692 231.555 382.642 231.473 382.576 231.406C382.51 231.338 382.431 231.287 382.343 231.257C382.256 231.226 382.163 231.217 382.071 231.229C381.639 231.229 381.399 231.411 381.399 231.851C381.399 232.291 381.648 232.74 382.56 233.419C383.665 234.252 384.052 234.864 384.052 235.744C384.069 235.961 384.045 236.179 383.98 236.385C383.915 236.592 383.81 236.783 383.673 236.947C383.535 237.111 383.368 237.245 383.18 237.341C382.992 237.436 382.787 237.492 382.578 237.504V238.269H381.473V237.418Z" fill="#263238"/>
<path d="M391.65 234.835V229.813L388.647 229.708V234.711L386.501 234.634C387.966 236.346 388.693 237.207 390.185 238.929L393.823 234.912L391.65 234.835Z" fill="#999999" stroke="#263238" stroke-linecap="round" stroke-linejoin="round"/>
<path d="M473.138 221.702L460.594 221.405C459.887 221.406 459.205 221.125 458.691 220.62C458.177 220.114 457.869 219.423 457.832 218.689V209.649C457.863 208.92 458.171 208.234 458.689 207.74C459.207 207.247 459.892 206.988 460.594 207.019L473.138 207.134C473.848 207.133 474.53 207.415 475.045 207.923C475.559 208.43 475.866 209.124 475.901 209.86V219.043C475.892 219.407 475.813 219.766 475.668 220.098C475.523 220.43 475.316 220.728 475.059 220.976C474.801 221.224 474.499 221.416 474.169 221.54C473.839 221.665 473.489 221.72 473.138 221.702V221.702Z" fill="white" stroke="#263238" stroke-linecap="round" stroke-linejoin="round"/>
<path d="M461.433 217.923C460.994 217.844 460.6 217.596 460.329 217.229C460.058 216.863 459.929 216.404 459.968 215.943V215.398H461.248V216.029C461.238 216.129 461.25 216.229 461.282 216.323C461.314 216.417 461.366 216.503 461.434 216.574C461.502 216.644 461.584 216.698 461.675 216.731C461.765 216.765 461.862 216.776 461.958 216.766C462.054 216.781 462.152 216.772 462.244 216.74C462.336 216.708 462.419 216.654 462.488 216.582C462.556 216.51 462.607 216.423 462.636 216.327C462.666 216.231 462.673 216.129 462.658 216.029C462.658 215.436 462.409 215.006 461.497 214.308C460.392 213.447 460.005 212.777 460.005 211.878C459.96 211.43 460.083 210.98 460.349 210.624C460.615 210.267 461.003 210.031 461.433 209.965V209.267H462.547V209.994C462.984 210.067 463.378 210.31 463.648 210.675C463.919 211.039 464.045 211.497 464.002 211.954V212.184H462.722V211.859C462.737 211.761 462.729 211.66 462.701 211.566C462.672 211.471 462.623 211.384 462.557 211.312C462.492 211.24 462.411 211.185 462.321 211.15C462.232 211.116 462.136 211.103 462.04 211.113C461.948 211.1 461.854 211.11 461.766 211.141C461.678 211.172 461.598 211.224 461.532 211.292C461.466 211.361 461.416 211.444 461.386 211.536C461.356 211.627 461.347 211.725 461.359 211.821C461.359 212.366 461.608 212.777 462.519 213.495C463.634 214.355 464.021 215.025 464.021 215.972C464.058 216.426 463.926 216.878 463.651 217.234C463.377 217.59 462.982 217.823 462.547 217.885V218.708H461.433V217.923Z" fill="#263238"/>
<path d="M468.616 213.868V219.301L471.619 219.368V213.915H473.765L470.081 209.343L466.443 213.801L468.616 213.868Z" fill="#999999" stroke="#263238" stroke-linecap="round" stroke-linejoin="round"/>
<path d="M418.855 147.024C422.703 147.882 426.636 148.257 430.57 148.143C452.72 147.522 472.834 130.246 472.936 107.681C473 86.0538 452.048 69.5438 430.57 72.7387V110.446C426.69 122.651 422.785 134.844 418.855 147.024Z" fill="#7E8AF5" stroke="#263238" stroke-linecap="round" stroke-linejoin="round"/>
<path d="M430.57 110.446V72.7387C409.894 74.9388 387.901 91.7836 388.205 113.201C388.463 129.357 402.315 144.011 418.819 147.024C422.779 134.838 426.696 122.645 430.57 110.446Z" fill="#999999" stroke="#263238" stroke-linecap="round" stroke-linejoin="round"/>
<path d="M415.208 95.0549C415.182 94.7157 415.087 94.3861 414.93 94.0874C414.772 93.7887 414.557 93.5276 414.296 93.3211C414.036 93.1146 413.736 92.9672 413.417 92.8886C413.099 92.8099 412.767 92.8017 412.445 92.8644C411.754 92.8771 411.09 93.1529 410.581 93.6394C410.072 94.126 409.752 94.7896 409.682 95.5045V97.0158C409.711 97.3548 409.806 97.6839 409.964 97.9822C410.121 98.2806 410.337 98.5415 410.597 98.7485C410.857 98.9555 411.155 99.104 411.474 99.1845C411.792 99.2649 412.123 99.2756 412.445 99.2159C413.137 99.2032 413.8 98.9274 414.31 98.4409C414.819 97.9543 415.139 97.2908 415.208 96.5758" stroke="#263238" stroke-linecap="round" stroke-linejoin="round"/>
<path d="M407.518 124.134V129.022C407.538 129.249 407.603 129.469 407.708 129.67C407.812 129.87 407.955 130.046 408.127 130.188C408.3 130.329 408.498 130.432 408.709 130.492C408.921 130.551 409.143 130.565 409.36 130.533V130.533C409.814 130.536 410.253 130.365 410.593 130.053C410.933 129.74 411.15 129.309 411.202 128.84V116.529C411.224 116.211 411.356 115.911 411.575 115.685C411.793 115.46 412.083 115.325 412.39 115.305C412.542 115.272 412.698 115.273 412.85 115.307C413.001 115.341 413.144 115.409 413.268 115.505C413.392 115.6 413.496 115.723 413.572 115.863C413.647 116.003 413.693 116.159 413.707 116.319V128.754C413.726 128.982 413.79 129.203 413.894 129.405C413.998 129.606 414.141 129.784 414.313 129.926C414.486 130.068 414.684 130.173 414.897 130.233C415.109 130.293 415.331 130.307 415.549 130.275C416.004 130.278 416.445 130.105 416.785 129.791C417.125 129.477 417.341 129.042 417.391 128.572V116.635" stroke="#263238" stroke-linecap="round" stroke-linejoin="round"/>
<path d="M407.518 120.93V122.365" stroke="#263238" stroke-linecap="round" stroke-linejoin="round"/>
<path d="M417.373 114.894V105.194C417.389 105.041 417.459 104.9 417.569 104.797C417.68 104.695 417.823 104.639 417.971 104.639V104.639C418.041 104.627 418.112 104.63 418.18 104.648C418.248 104.666 418.312 104.699 418.368 104.744C418.423 104.789 418.469 104.845 418.502 104.91C418.535 104.974 418.555 105.045 418.561 105.118V110.857C418.578 111.206 418.726 111.535 418.974 111.771C419.223 112.007 419.551 112.133 419.887 112.12C420.278 112.149 420.664 112.02 420.965 111.76C421.265 111.499 421.457 111.128 421.499 110.723V103.807C421.499 101.99 419.832 100.641 417.769 100.794L407.122 101.598C405.059 101.76 403.438 103.329 403.438 105.118V111.814C403.457 112.16 403.607 112.485 403.855 112.718C404.104 112.951 404.43 113.073 404.764 113.057C405.153 113.089 405.538 112.964 405.839 112.707C406.139 112.45 406.332 112.082 406.376 111.68V105.94C406.392 105.786 406.462 105.644 406.572 105.54C406.682 105.436 406.826 105.378 406.975 105.376V105.376C407.044 105.365 407.115 105.369 407.182 105.388C407.25 105.406 407.313 105.439 407.368 105.484C407.424 105.528 407.469 105.584 407.503 105.648C407.537 105.712 407.558 105.782 407.564 105.854V119.476" stroke="#263238" stroke-linecap="round" stroke-linejoin="round"/>
<path d="M451.237 93.2279C451.431 94.4331 451.716 96.1741 451.716 96.1741L445.14 96.681C445.14 96.681 445.748 92.8548 445.794 92.5679C445.904 91.8855 446.217 91.256 446.69 90.7685C447.162 90.2811 447.77 89.9602 448.428 89.8513C449.06 89.8323 449.677 90.0543 450.163 90.4755C450.648 90.8967 450.968 91.4879 451.062 92.1374" stroke="#263238" stroke-linecap="round" stroke-linejoin="round"/>
<path d="M456.92 108.399V101.253C456.92 99.3403 455.243 97.9724 453.19 98.1254" stroke="#263238" stroke-linecap="round" stroke-linejoin="round"/>
<path d="M452.794 119.83V117.438L454.894 117.314C454.055 111.469 453.632 108.542 452.794 102.717C452.805 102.561 452.872 102.415 452.98 102.307C453.089 102.2 453.233 102.138 453.383 102.133C453.454 102.123 453.526 102.127 453.595 102.147C453.663 102.167 453.728 102.201 453.783 102.248C453.838 102.294 453.884 102.353 453.916 102.419C453.949 102.485 453.968 102.557 453.973 102.631V108.571C453.982 108.927 454.127 109.265 454.376 109.51C454.624 109.756 454.956 109.889 455.299 109.881" stroke="#263238" stroke-linecap="round" stroke-linejoin="round"/>
<path d="M452.794 122.919V121.264" stroke="#263238" stroke-linecap="round" stroke-linejoin="round"/>
<path d="M442.212 116.252C442.11 116.96 442.064 117.314 441.963 118.022L444.063 117.897V127.252C444.079 127.484 444.14 127.709 444.242 127.915C444.344 128.122 444.486 128.304 444.658 128.451C444.83 128.599 445.03 128.709 445.244 128.774C445.458 128.839 445.683 128.858 445.905 128.831C446.367 128.832 446.814 128.653 447.155 128.329C447.496 128.005 447.707 127.559 447.747 127.08V117.687L449.11 117.61V127.004C449.126 127.235 449.187 127.461 449.289 127.667C449.391 127.873 449.533 128.055 449.705 128.203C449.877 128.35 450.077 128.46 450.291 128.525C450.505 128.59 450.73 128.61 450.952 128.582C451.416 128.583 451.863 128.403 452.205 128.077C452.546 127.75 452.757 127.302 452.794 126.822V124.584" stroke="#263238" stroke-linecap="round" stroke-linejoin="round"/>
<path d="M450.003 98.3646L443.667 98.8428C442.731 98.8766 441.84 99.2651 441.161 99.9347C440.483 100.604 440.063 101.509 439.983 102.478V109.451C439.995 109.796 440.135 110.123 440.373 110.364C440.612 110.604 440.931 110.74 441.263 110.742C441.66 110.774 442.052 110.642 442.355 110.376C442.659 110.109 442.849 109.728 442.884 109.317V103.386C442.897 103.231 442.964 103.087 443.073 102.979C443.181 102.872 443.324 102.809 443.473 102.803V102.803C443.544 102.792 443.616 102.797 443.685 102.817C443.754 102.836 443.818 102.87 443.873 102.917C443.929 102.964 443.974 103.022 444.007 103.088C444.039 103.154 444.059 103.226 444.063 103.3L442.635 113.344" stroke="#263238" stroke-linecap="round" stroke-linejoin="round"/>
<path d="M488.381 104.238L483.702 104.553C483.299 104.611 482.888 104.581 482.497 104.465C482.105 104.349 481.741 104.15 481.427 103.88C481.114 103.61 480.858 103.276 480.676 102.898C480.493 102.519 480.388 102.106 480.368 101.684V97.3507C480.426 96.4613 480.799 95.6257 481.414 95.0042C482.03 94.3828 482.844 94.0193 483.702 93.9836L488.381 93.6202C488.784 93.5611 489.194 93.5902 489.586 93.7056C489.977 93.8211 490.341 94.0203 490.654 94.2906C490.968 94.5608 491.223 94.896 491.404 95.2748C491.585 95.6535 491.687 96.0674 491.705 96.4898V100.899C491.649 101.785 491.277 102.617 490.662 103.234C490.048 103.851 489.235 104.209 488.381 104.238Z" fill="#999999" stroke="#263238" stroke-linecap="round" stroke-linejoin="round"/>
<path d="M499.681 100.966L496.826 101.167V99.8759C497.922 97.3602 498.466 96.1071 499.589 93.5818L501.219 93.4575V99.5698H501.919V100.861H501.219V102.506L499.718 102.612L499.681 100.966ZM499.681 99.675V96.1549C499.101 97.6089 498.806 98.3358 498.217 99.7802L499.681 99.675Z" fill="#263238"/>
<path d="M502.582 100.22V99.5029L503.991 99.4072V100.22C503.991 100.871 504.295 101.081 504.774 101.043C505.253 101.005 505.548 100.756 505.548 100.086V98.0489C505.548 97.3985 505.244 97.1689 504.774 97.2072C504.305 97.2454 503.991 97.5037 503.991 98.1637V98.2402L502.582 98.3454C502.693 96.308 502.748 95.2941 502.849 93.2662L506.791 92.9601V94.261L504.185 94.4523C504.139 95.3228 504.111 95.7628 504.065 96.6332C504.204 96.4071 504.394 96.22 504.619 96.0882C504.844 95.9564 505.096 95.8841 505.354 95.8776C506.45 95.801 507.012 96.4993 507.012 97.8385V99.8951C507.04 100.212 507.002 100.531 506.902 100.832C506.801 101.133 506.64 101.408 506.429 101.638C506.218 101.869 505.962 102.051 505.679 102.171C505.395 102.291 505.09 102.346 504.783 102.334C504.496 102.396 504.199 102.386 503.917 102.304C503.634 102.223 503.374 102.072 503.159 101.866C502.944 101.659 502.779 101.402 502.679 101.115C502.578 100.829 502.545 100.522 502.582 100.22Z" fill="#263238"/>
<path d="M507.979 96.5376V94.261C507.963 94.0566 507.99 93.851 508.056 93.6577C508.122 93.4645 508.227 93.288 508.363 93.1398C508.5 92.9917 508.665 92.8752 508.848 92.7981C509.031 92.7209 509.228 92.6849 509.425 92.6923C509.61 92.6497 509.802 92.6538 509.986 92.7041C510.169 92.7544 510.338 92.8496 510.479 92.9816C510.619 93.1136 510.727 93.2787 510.794 93.463C510.861 93.6473 510.884 93.8455 510.862 94.041V96.3271C510.879 96.5311 510.854 96.7365 510.789 96.9298C510.724 97.123 510.62 97.2996 510.484 97.448C510.348 97.5963 510.184 97.713 510.001 97.7902C509.818 97.8674 509.622 97.9034 509.425 97.8959C509.239 97.9384 509.045 97.934 508.861 97.8831C508.677 97.8323 508.507 97.7364 508.365 97.6035C508.224 97.4707 508.115 97.3046 508.048 97.1192C507.981 96.9338 507.957 96.7344 507.979 96.5376V96.5376ZM509.913 96.4611V94.0506C509.913 93.6488 509.72 93.4958 509.425 93.5149C509.13 93.534 508.928 93.7253 508.928 94.1271V96.5376C508.928 96.9393 509.112 97.0924 509.425 97.0733C509.738 97.0541 509.913 96.8628 509.913 96.4611V96.4611ZM512.87 92.5584L513.791 92.4914C512.317 96.2602 511.58 98.1446 510.107 101.894L509.186 101.961C510.659 98.2116 511.396 96.3367 512.87 92.5679V92.5584ZM512.151 100.421V98.135C512.134 97.9315 512.159 97.7265 512.224 97.5337C512.289 97.3409 512.393 97.1648 512.529 97.0172C512.665 96.8696 512.83 96.7539 513.013 96.6777C513.195 96.6016 513.391 96.5669 513.588 96.5759C513.775 96.5311 513.969 96.5338 514.154 96.5838C514.339 96.6338 514.51 96.7296 514.652 96.863C514.794 96.9964 514.903 97.1634 514.97 97.35C515.036 97.5365 515.058 97.7369 515.034 97.9341V100.22C515.05 100.424 515.024 100.63 514.957 100.822C514.891 101.015 514.786 101.191 514.649 101.338C514.513 101.486 514.347 101.601 514.164 101.677C513.981 101.753 513.785 101.788 513.588 101.779C513.402 101.822 513.209 101.818 513.025 101.767C512.841 101.717 512.671 101.621 512.53 101.487C512.389 101.354 512.282 101.188 512.216 101.002C512.15 100.817 512.128 100.617 512.151 100.421V100.421ZM514.085 100.354V97.9341C514.085 97.5324 513.892 97.3794 513.588 97.3985C513.284 97.4176 513.1 97.5994 513.1 98.0107V100.421C513.1 100.832 513.284 100.986 513.588 100.966C513.892 100.947 514.085 100.766 514.085 100.354V100.354Z" fill="#263238"/>
<path d="M488.381 119.782L483.702 120.03C483.295 120.079 482.882 120.041 482.49 119.918C482.098 119.794 481.734 119.588 481.422 119.313C481.109 119.038 480.854 118.699 480.673 118.317C480.492 117.935 480.388 117.519 480.368 117.094V112.722C480.425 111.838 480.799 111.008 481.416 110.395C482.033 109.783 482.849 109.432 483.702 109.413L488.381 109.116C488.787 109.064 489.199 109.1 489.591 109.222C489.984 109.344 490.348 109.549 490.66 109.824C490.972 110.099 491.226 110.438 491.406 110.82C491.586 111.202 491.688 111.618 491.705 112.043V116.482C491.65 117.364 491.278 118.193 490.662 118.804C490.046 119.416 489.232 119.764 488.381 119.782V119.782Z" fill="#7E8AF5" stroke="#263238" stroke-linecap="round" stroke-linejoin="round"/>
<path d="M497.139 116.242V115.525L498.557 115.449V116.252C498.557 116.902 498.852 117.113 499.331 117.094C499.81 117.075 500.105 116.816 500.105 116.137V114.109C500.105 113.469 499.81 113.239 499.331 113.268C498.852 113.296 498.557 113.555 498.557 114.224V114.301L497.139 114.377L497.415 109.327L501.357 109.078V110.379L498.751 110.532C498.696 111.402 498.677 111.833 498.622 112.694C498.761 112.469 498.952 112.285 499.177 112.156C499.402 112.027 499.654 111.959 499.911 111.957C501.017 111.89 501.569 112.598 501.569 113.928V115.975C501.599 116.29 501.563 116.608 501.463 116.907C501.362 117.206 501.2 117.479 500.988 117.707C500.776 117.934 500.519 118.111 500.234 118.225C499.95 118.339 499.645 118.387 499.34 118.366C499.052 118.428 498.754 118.418 498.471 118.336C498.188 118.254 497.927 118.103 497.712 117.895C497.496 117.687 497.332 117.428 497.232 117.141C497.133 116.853 497.101 116.545 497.139 116.242Z" fill="#263238"/>
<path d="M502.582 115.936V115.228L503.991 115.142V115.965C503.991 116.606 504.295 116.826 504.774 116.797C505.253 116.769 505.548 116.529 505.548 115.841V113.803C505.548 113.153 505.244 112.923 504.774 112.952C504.304 112.981 503.991 113.239 503.991 113.908V113.985L502.582 114.071C502.693 112.034 502.748 111.02 502.849 108.992L506.791 108.743V110.044L504.185 110.197C504.139 111.068 504.111 111.508 504.065 112.378C504.203 112.153 504.394 111.968 504.619 111.839C504.845 111.711 505.097 111.643 505.354 111.641C506.45 111.574 507.012 112.282 507.012 113.621V115.678C507.042 115.994 507.005 116.313 506.905 116.613C506.805 116.913 506.643 117.187 506.432 117.416C506.22 117.645 505.963 117.824 505.678 117.94C505.394 118.056 505.088 118.107 504.783 118.089C504.493 118.152 504.192 118.142 503.906 118.058C503.62 117.975 503.358 117.821 503.142 117.609C502.925 117.398 502.762 117.135 502.664 116.844C502.567 116.553 502.539 116.241 502.582 115.936Z" fill="#263238"/>
<path d="M507.979 112.359V110.082C507.962 109.878 507.987 109.673 508.052 109.48C508.118 109.287 508.223 109.111 508.361 108.964C508.498 108.817 508.664 108.702 508.848 108.628C509.031 108.553 509.228 108.521 509.425 108.533C509.612 108.492 509.805 108.497 509.989 108.549C510.173 108.602 510.342 108.699 510.482 108.832C510.623 108.966 510.731 109.133 510.797 109.319C510.863 109.505 510.885 109.704 510.862 109.901V112.187C510.879 112.389 510.855 112.594 510.789 112.786C510.724 112.977 510.62 113.152 510.483 113.299C510.347 113.445 510.182 113.559 509.999 113.632C509.816 113.706 509.621 113.739 509.425 113.727C509.238 113.767 509.045 113.761 508.86 113.709C508.676 113.657 508.507 113.56 508.365 113.427C508.224 113.293 508.116 113.127 508.049 112.941C507.981 112.755 507.958 112.556 507.979 112.359ZM509.913 112.311V109.901C509.913 109.489 509.72 109.336 509.425 109.355C509.13 109.374 508.928 109.556 508.928 109.958V112.368C508.928 112.77 509.112 112.933 509.425 112.914C509.738 112.895 509.913 112.713 509.913 112.311V112.311ZM512.87 108.485L513.791 108.427C512.317 112.177 511.58 114.052 510.107 117.782L509.186 117.83C510.659 114.071 511.396 112.196 512.87 108.447V108.485ZM512.151 116.338V114.052C512.134 113.849 512.158 113.645 512.224 113.453C512.289 113.261 512.394 113.086 512.53 112.94C512.666 112.794 512.831 112.68 513.014 112.606C513.197 112.532 513.392 112.5 513.588 112.512C513.776 112.471 513.97 112.477 514.155 112.53C514.34 112.582 514.51 112.68 514.652 112.815C514.793 112.949 514.901 113.117 514.968 113.304C515.034 113.491 515.057 113.692 515.034 113.889V116.185C515.052 116.389 515.027 116.594 514.961 116.786C514.895 116.979 514.79 117.154 514.652 117.301C514.515 117.447 514.349 117.561 514.165 117.634C513.981 117.707 513.784 117.738 513.588 117.725C513.397 117.766 513.198 117.759 513.01 117.703C512.823 117.647 512.651 117.545 512.509 117.404C512.368 117.264 512.261 117.09 512.199 116.898C512.137 116.706 512.12 116.5 512.151 116.3V116.338ZM514.085 116.338V113.918C514.085 113.516 513.892 113.354 513.588 113.373C513.284 113.392 513.1 113.574 513.1 113.975V116.395C513.1 116.797 513.284 116.96 513.588 116.941C513.892 116.922 514.085 116.663 514.085 116.262V116.338Z" fill="#263238"/>
<path d="M262.5 169.321L204.865 170.708V72.4231L262.5 65.5264V169.321Z" fill="#7E8AF5"/>
<path opacity="0.8" d="M262.5 169.321L204.865 170.708V72.4231L262.5 65.5264V169.321Z" fill="white"/>
<path d="M320.181 167.944L262.5 169.321V65.5264L320.144 58.6296L320.181 167.944Z" fill="#7E8AF5"/>
<path opacity="0.6" d="M320.181 167.944L262.5 169.321V65.5264L320.144 58.6296L320.181 167.944Z" fill="white"/>
<path d="M377.826 166.566L320.181 167.944V58.6296L377.826 51.7329V166.566Z" fill="#7E8AF5"/>
<path opacity="0.4" d="M377.826 166.566L320.181 167.944V58.6296L377.826 51.7329V166.566Z" fill="white"/>
<path d="M377.826 51.7329L204.902 72.423" stroke="#7F7F7F" stroke-linecap="round" stroke-linejoin="round"/>
<path d="M204.902 86.4651L377.826 68.1377" stroke="#7F7F7F" stroke-linecap="round" stroke-linejoin="round"/>
<path d="M377.826 84.5425L204.902 100.507" stroke="#7F7F7F" stroke-linecap="round" stroke-linejoin="round"/>
<path d="M204.902 114.568L377.826 100.976" stroke="#7F7F7F" stroke-linecap="round" stroke-linejoin="round"/>
<path d="M377.826 117.352L204.902 128.582" stroke="#7F7F7F" stroke-linecap="round" stroke-linejoin="round"/>
<path d="M204.902 142.624L377.826 133.757" stroke="#7F7F7F" stroke-linecap="round" stroke-linejoin="round"/>
<path d="M377.826 150.162L204.902 156.657" stroke="#7F7F7F" stroke-linecap="round" stroke-linejoin="round"/>
<path d="M204.902 170.708L377.826 166.566" stroke="#7F7F7F" stroke-linecap="round" stroke-linejoin="round"/>
<path d="M219.306 170.364V70.7012" stroke="#7F7F7F" stroke-linecap="round" stroke-linejoin="round"/>
<path d="M204.902 72.423V170.708" stroke="#7F7F7F" stroke-linecap="round" stroke-linejoin="round"/>
<path d="M248.133 169.666V67.2481" stroke="#7F7F7F" stroke-linecap="round" stroke-linejoin="round"/>
<path d="M233.719 68.9699V170.048" stroke="#7F7F7F" stroke-linecap="round" stroke-linejoin="round"/>
<path d="M276.95 168.977V63.8046" stroke="#7F7F7F" stroke-linecap="round" stroke-linejoin="round"/>
<path d="M262.5 65.5264V169.321" stroke="#7F7F7F" stroke-linecap="round" stroke-linejoin="round"/>
<path d="M305.786 168.288V60.3514" stroke="#7F7F7F" stroke-linecap="round" stroke-linejoin="round"/>
<path d="M291.364 62.0828V168.633" stroke="#7F7F7F" stroke-linecap="round" stroke-linejoin="round"/>
<path d="M334.595 167.599V56.9078" stroke="#7F7F7F" stroke-linecap="round" stroke-linejoin="round"/>
<path d="M320.181 58.6296V167.944" stroke="#7F7F7F" stroke-linecap="round" stroke-linejoin="round"/>
<path d="M363.412 166.911V53.4643" stroke="#7F7F7F" stroke-linecap="round" stroke-linejoin="round"/>
<path d="M348.999 55.186V167.255" stroke="#7F7F7F" stroke-linecap="round" stroke-linejoin="round"/>
<path d="M377.826 51.7329V166.566" stroke="#7F7F7F" stroke-linecap="round" stroke-linejoin="round"/>
<path d="M204.902 72.4231V170.708L377.826 166.566V51.7808L204.902 72.4231Z" stroke="#263238" stroke-linecap="round" stroke-linejoin="round"/>
<path d="M204.902 156.657H205.933" stroke="#263238" stroke-linecap="round" stroke-linejoin="round"/>
<path d="M207.692 156.561L217.399 156.197" stroke="#263238" stroke-linecap="round" stroke-linejoin="round" stroke-dasharray="1.71 1.71"/>
<path d="M218.293 156.16H219.315L220.043 155.413" stroke="#263238" stroke-linecap="round" stroke-linejoin="round"/>
<path d="M221.479 153.892C225.799 149.444 227.926 147.196 232.273 142.672" stroke="#263238" stroke-linecap="round" stroke-linejoin="round" stroke-dasharray="1.98 1.98"/>
<path d="M233.029 141.917L233.756 141.151C234.051 141.419 234.198 141.563 234.484 141.84" stroke="#263238" stroke-linecap="round" stroke-linejoin="round"/>
<path d="M235.598 142.93L239.623 146.756" stroke="#263238" stroke-linecap="round" stroke-linejoin="round" stroke-dasharray="1.58 1.58"/>
<path d="M240.194 147.34L240.921 148.048C241.06 147.646 241.124 147.445 241.253 147.043" stroke="#263238" stroke-linecap="round" stroke-linejoin="round"/>
<path d="M241.842 145.178C244.108 138.214 245.241 134.713 247.506 127.673" stroke="#263238" stroke-linecap="round" stroke-linejoin="round" stroke-dasharray="1.83 1.83"/>
<path d="M247.764 126.794C247.902 126.382 247.967 126.181 248.096 125.779L249.118 125.712" stroke="#263238" stroke-linecap="round" stroke-linejoin="round"/>
<path d="M250.877 125.599L253.447 125.435" stroke="#263238" stroke-linecap="round" stroke-linejoin="round" stroke-dasharray="1.67 1.67"/>
<path d="M254.303 125.378L255.335 125.311L255.795 124.354" stroke="#263238" stroke-linecap="round" stroke-linejoin="round"/>
<path d="M256.698 122.441L261.634 111.919" stroke="#263238" stroke-linecap="round" stroke-linejoin="round" stroke-dasharray="1.95 1.95"/>
<path d="M262.076 110.992L262.537 110.035L263.568 109.948" stroke="#263238" stroke-linecap="round" stroke-linejoin="round"/>
<path d="M265.337 109.786L275.035 109.021" stroke="#263238" stroke-linecap="round" stroke-linejoin="round" stroke-dasharray="1.71 1.71"/>
<path d="M275.919 108.964L276.95 108.878L277.678 108.064" stroke="#263238" stroke-linecap="round" stroke-linejoin="round"/>
<path d="M278.829 106.773L282.854 102.229" stroke="#263238" stroke-linecap="round" stroke-linejoin="round" stroke-dasharray="1.58 1.58"/>
<path d="M283.425 101.579L284.152 100.746L285.184 100.66" stroke="#263238" stroke-linecap="round" stroke-linejoin="round"/>
<path d="M287.238 100.488L298.566 99.5316C300.868 96.8819 302.019 95.5619 304.322 92.8931" stroke="#263238" stroke-linecap="round" stroke-linejoin="round" stroke-dasharray="1.99 1.99"/>
<path d="M305.04 92.0424C305.335 91.6978 305.482 91.5351 305.768 91.1905L306.495 91.9084" stroke="#263238" stroke-linecap="round" stroke-linejoin="round"/>
<path d="M307.941 93.314C312.252 97.5611 314.388 99.7038 318.735 104.027" stroke="#263238" stroke-linecap="round" stroke-linejoin="round" stroke-dasharray="1.98 1.98"/>
<path d="M319.454 104.754L320.181 105.482C320.476 105.147 320.614 104.975 320.909 104.63" stroke="#263238" stroke-linecap="round" stroke-linejoin="round"/>
<path d="M322.06 103.291C323.672 101.378 324.473 100.479 326.085 98.5846" stroke="#263238" stroke-linecap="round" stroke-linejoin="round" stroke-dasharray="1.58 1.58"/>
<path d="M326.656 97.9156L327.383 97.0542L328.415 96.968" stroke="#263238" stroke-linecap="round" stroke-linejoin="round"/>
<path d="M330.395 96.7959L341.797 95.8393C344.68 92.4053 346.116 90.6835 348.999 87.2304L354.184 86.7521" stroke="#263238" stroke-linecap="round" stroke-linejoin="round" stroke-dasharray="1.93 1.93"/>
<path d="M355.179 86.6381L356.21 86.5423L356.671 85.4703" stroke="#263238" stroke-linecap="round" stroke-linejoin="round"/>
<path d="M357.564 83.3755C359.535 78.7649 360.53 76.4501 362.501 71.8109" stroke="#263238" stroke-linecap="round" stroke-linejoin="round" stroke-dasharray="1.95 1.95"/>
<path d="M362.952 70.7497L363.412 69.6682" stroke="#263238" stroke-linecap="round" stroke-linejoin="round"/>
<path d="M204.902 142.624L219.306 141.888C225.071 138.74 227.954 137.153 233.719 133.929L240.921 133.508C243.804 127.53 245.25 124.517 248.133 118.462C251.015 115.324 252.452 113.755 255.335 110.58C258.217 104.458 259.654 101.378 262.537 95.1793C268.302 97.6185 271.185 98.8524 276.95 101.368C279.833 104.123 281.27 105.51 284.152 108.313C289.918 101.808 292.8 98.5177 298.566 91.8601C301.449 85.4608 302.885 82.2946 305.768 75.771C311.533 81.3285 314.416 84.1503 320.181 89.8609C323.064 95.8489 324.501 98.8525 327.383 104.917L341.797 103.779C344.68 100.373 346.116 98.6611 348.999 95.1697C351.882 85.3173 353.328 80.3624 356.21 70.3952C359.084 63.6419 360.53 60.2462 363.412 53.426" stroke="#263238" stroke-linecap="round" stroke-linejoin="round"/>
<path d="M232.531 182.34C232.235 182.446 231.923 182.498 231.61 182.493C231.331 182.529 231.048 182.498 230.783 182.403C230.517 182.308 230.276 182.151 230.078 181.944C229.88 181.737 229.73 181.486 229.639 181.21C229.549 180.934 229.52 180.64 229.556 180.35V175.788C229.524 175.496 229.555 175.2 229.645 174.922C229.736 174.644 229.885 174.391 230.081 174.179C230.278 173.968 230.517 173.805 230.781 173.701C231.045 173.597 231.328 173.555 231.61 173.578C231.889 173.541 232.172 173.57 232.438 173.664C232.704 173.758 232.946 173.914 233.145 174.12C233.344 174.325 233.495 174.576 233.587 174.852C233.678 175.128 233.708 175.421 233.673 175.711V180.264C233.69 180.768 233.559 181.266 233.296 181.689C233.388 181.862 233.553 181.89 233.802 181.881H234.005V183.115H233.655C233.409 183.145 233.162 183.084 232.956 182.942C232.75 182.8 232.599 182.587 232.531 182.34V182.34ZM232.338 180.427V175.711C232.338 175.089 232.061 174.86 231.629 174.869C231.196 174.879 230.929 175.118 230.929 175.74V180.446C230.929 181.068 231.205 181.297 231.629 181.288C232.052 181.278 232.338 181.02 232.338 180.398V180.427Z" fill="#263238"/>
<path d="M236.51 175.692H235.092V174.735C236.243 174.735 236.648 174.458 236.934 173.607H237.855V182.292H236.491L236.51 175.692Z" fill="#263238"/>
<path d="M289.789 181.632C289.494 181.745 289.182 181.804 288.868 181.804C288.581 181.829 288.292 181.786 288.023 181.679C287.754 181.571 287.512 181.403 287.315 181.185C287.118 180.967 286.97 180.706 286.883 180.42C286.797 180.135 286.773 179.833 286.814 179.537V174.754C286.775 174.456 286.799 174.151 286.885 173.863C286.972 173.575 287.118 173.31 287.314 173.087C287.51 172.865 287.751 172.689 288.019 172.574C288.288 172.459 288.578 172.406 288.868 172.42C290.203 172.42 290.931 173.214 290.931 174.678V179.461C290.956 179.99 290.824 180.514 290.553 180.962C290.645 181.144 290.811 181.173 291.06 181.163H291.272V182.483H290.912C290.657 182.51 290.401 182.438 290.194 182.281C289.986 182.124 289.842 181.893 289.789 181.632V181.632ZM289.595 179.595V174.621C289.595 173.97 289.319 173.721 288.886 173.731C288.453 173.741 288.186 173.999 288.186 174.688V179.614C288.186 180.264 288.463 180.503 288.886 180.503C289.31 180.503 289.595 180.245 289.595 179.614V179.595Z" fill="#263238"/>
<path d="M291.843 180.647C291.831 180.035 291.947 179.427 292.182 178.866C292.418 178.305 292.767 177.803 293.206 177.395C294.237 176.228 294.532 175.481 294.532 174.668C294.532 173.855 294.265 173.626 293.832 173.635C293.399 173.645 293.123 173.903 293.123 174.592V175.548H291.843V174.659C291.843 173.195 292.533 172.344 293.869 172.325C295.204 172.306 295.895 173.119 295.895 174.582C295.895 175.673 295.471 176.648 294.209 178.083C293.399 179.04 293.187 179.47 293.187 180.102V180.302H295.766V181.613L291.843 181.661V180.647Z" fill="#263238"/>
<path d="M347.47 180.924C347.177 181.045 346.864 181.106 346.549 181.106C345.214 181.106 344.486 180.255 344.486 178.724V173.693C344.486 172.162 345.214 171.273 346.549 171.244C347.885 171.215 348.612 172.086 348.612 173.616V178.657C348.633 179.211 348.498 179.759 348.225 180.235C348.327 180.427 348.483 180.455 348.732 180.446H348.944V181.814H348.584C348.325 181.837 348.067 181.759 347.861 181.594C347.655 181.429 347.515 181.19 347.47 180.924V180.924ZM347.267 178.782V173.549C347.267 172.86 347 172.593 346.568 172.593C346.135 172.593 345.868 172.87 345.868 173.549V178.782C345.868 179.461 346.135 179.738 346.568 179.738C347 179.738 347.231 179.461 347.231 178.782H347.267Z" fill="#263238"/>
<path d="M349.45 178.657V177.873H350.73V178.724C350.73 179.403 350.997 179.681 351.43 179.681C351.863 179.681 352.139 179.432 352.139 178.581V177.796C352.139 176.907 351.863 176.581 351.218 176.591H350.767V175.214H351.255C351.762 175.214 352.075 174.955 352.075 174.181V173.482C352.075 172.793 351.789 172.526 351.393 172.526C350.997 172.526 350.74 172.803 350.74 173.434V174.066H349.459V173.559C349.459 172.019 350.15 171.148 351.44 171.129C352.729 171.11 353.429 171.923 353.429 173.463V173.874C353.429 174.907 353.134 175.548 352.508 175.835C353.235 176.122 353.503 176.792 353.503 177.796V178.657C353.503 180.197 352.812 181.048 351.476 181.058C350.141 181.068 349.45 180.216 349.45 178.657Z" fill="#263238"/>
<path d="M257.085 126.554C257.085 126.554 243.371 114.32 252.48 106.237C252.48 106.237 256.873 91.8887 271.305 93.907C285.736 95.9254 278.507 87.4408 278.507 87.4408C278.507 87.4408 286.685 91.8887 282.927 95.3227C284.057 95.3781 285.178 95.1047 286.166 94.5335C287.154 93.9622 287.968 93.1158 288.518 92.0896C288.518 92.0896 291.032 96.7384 286.335 98.7854C286.335 98.7854 292.478 100.402 290.839 104.046C290.839 104.046 286.473 101.636 285.313 110.742C284.152 119.849 270.264 118.519 270.264 118.519L257.085 126.554Z" fill="#263238" stroke="#263238" stroke-linecap="round" stroke-linejoin="round"/>
<path d="M257.959 129.586C257.959 129.118 254.699 139.439 260.897 138.568C263.835 138.157 259.654 129.586 259.654 129.586H257.959Z" fill="#263238" stroke="#263238" stroke-linecap="round" stroke-linejoin="round"/>
<path d="M288.195 101.693C288.195 101.693 284.512 101.081 283.784 105.52" stroke="#7F7F7F" stroke-linecap="round" stroke-linejoin="round"/>
<path d="M279.474 100.632C278.019 102.602 278.507 105.529 278.507 105.529" stroke="#7F7F7F" stroke-linecap="round" stroke-linejoin="round"/>
<path d="M287.155 95.3228C285.807 97.2369 283.849 98.5926 281.629 99.1489" stroke="#7F7F7F" stroke-linecap="round" stroke-linejoin="round"/>
<path d="M270.236 100.431C270.236 100.431 276.149 99.2159 275.366 105.529" stroke="#7F7F7F" stroke-linecap="round" stroke-linejoin="round"/>
<path d="M299.229 253.038C299.229 253.038 304.138 279.649 299.229 305.725C294.32 331.8 291.29 415.536 291.29 415.536H260.741V248.877L297.691 247.529L299.229 253.038Z" fill="#999999"/>
<path opacity="0.2" d="M281.076 288.746C281.076 288.746 279.75 297.948 286.372 295.624C292.994 293.299 297.59 294.103 292.064 299.306C286.538 304.51 278.875 312.392 277.65 340.897C276.425 369.402 274.528 415.508 274.528 415.508H261.22L258.457 309.637L270.55 291.147L276.177 288.717L281.076 288.746Z" fill="black"/>
<path d="M299.229 253.038C299.229 253.038 304.138 279.649 299.229 305.725C294.32 331.8 291.29 415.536 291.29 415.536H260.741V248.877L297.691 247.529L299.229 253.038Z" stroke="#263238" stroke-linecap="round" stroke-linejoin="round"/>
<path d="M295.545 295.719C295.545 295.719 288.702 294.208 281.076 302.999" stroke="#263238" stroke-linecap="round" stroke-linejoin="round"/>
<path d="M285.423 256.032C285.423 256.032 285.11 285.685 281.426 296.934C277.742 308.183 272.216 360.965 272.833 415.546H241.253C241.253 415.546 239.411 316.955 238.167 302.396C236.924 287.837 230.496 290.277 239.392 248.887H286.722L285.423 256.032Z" fill="#999999" stroke="#263238" stroke-linecap="round" stroke-linejoin="round"/>
<path d="M279.437 262.384C281.868 262.212 284.088 262.011 286.105 261.8L286.372 266.688C284.272 266.908 281.951 267.119 279.437 267.291V262.384Z" fill="#263238"/>
<path d="M289.54 261.398C293.353 260.93 296.116 260.442 297.608 260.164L298.243 264.995C296.512 265.32 293.546 265.827 289.54 266.325V261.398Z" fill="#263238"/>
<path d="M237.707 266.22L238.425 261.437C243.601 262.039 248.556 262.441 253.281 262.671L252.968 267.52C248.151 267.253 243.049 266.851 237.707 266.22Z" fill="#263238"/>
<path d="M256.873 262.833C264.075 263.072 270.577 262.938 276.214 262.623V267.52C272.64 267.712 268.717 267.836 264.499 267.836C262.012 267.836 259.415 267.788 256.726 267.692L256.873 262.833Z" fill="#263238"/>
<path d="M344.643 210.548L352.416 205.68C352.416 205.68 355.685 196.784 359.784 194.364C363.882 191.944 367.962 189.715 368.993 190.317C370.025 190.92 368.791 192.948 366.129 194.966C364.471 196.229 369.297 194.086 375.486 191.14C379.17 189.361 383.425 186.883 384.079 187.955C386.483 191.848 374.188 196.803 374.188 196.803C374.188 196.803 378.406 196.592 376.767 199.826C376.767 199.826 377.384 202.858 375.947 203.872L374.317 205.938C373.646 207.978 372.353 209.735 370.633 210.941C366.924 213.086 362.796 214.331 358.559 214.585L348.336 222.017L344.643 210.548Z" fill="white" stroke="#263238" stroke-linecap="round" stroke-linejoin="round"/>
<path d="M371.646 197.195C371.646 197.195 362.952 199.013 363.412 201.021C363.873 203.03 366.571 201.614 366.571 201.614C366.571 201.614 363.698 202.628 364.011 203.738C364.324 204.847 366.36 204.828 366.36 204.828C366.36 204.828 363.698 205.46 364.011 206.741C364.324 208.023 366.093 208.463 367.557 208.262C369.021 208.061 370.145 207.545 370.559 208.31C370.974 209.075 366.562 207.851 364.011 209.726" stroke="#263238" stroke-linecap="round" stroke-linejoin="round"/>
<path d="M364.729 195.674C364.593 196.796 364.142 197.851 363.431 198.706C362.372 199.72 363.293 203.154 359.406 206.894" stroke="#263238" stroke-linecap="round" stroke-linejoin="round"/>
<path d="M373.562 200.677L368.727 201.28" stroke="#263238" stroke-linecap="round" stroke-linejoin="round"/>
<path d="M373.175 204.465L368.727 204.848" stroke="#263238" stroke-linecap="round" stroke-linejoin="round"/>
<path d="M326.232 215.685C332.983 213.772 341.143 208.54 345.066 205.833C345.292 205.671 345.554 205.571 345.827 205.543C346.101 205.514 346.376 205.558 346.629 205.669C346.881 205.781 347.103 205.957 347.272 206.181C347.442 206.405 347.554 206.671 347.599 206.952C348.041 210.654 349.441 216.957 354.156 218.67C360.907 221.137 354.46 224.944 350.169 226.226C345.877 227.508 315.171 242.966 305.961 240.852C296.751 238.738 293.685 237.207 289.384 227.967C285.083 218.727 287.228 174.152 287.228 174.152L300.122 170.813C300.122 170.813 303.493 173.951 305.132 194.966C306.772 215.982 309.47 218.612 309.47 218.612C309.47 218.612 317.658 212.328 315.512 218.402C315.493 218.402 323.911 216.336 326.232 215.685Z" fill="#7E8AF5" stroke="#263238" stroke-linecap="round" stroke-linejoin="round"/>
<path d="M311.192 222.008C311.192 222.008 307.868 233.544 305.363 232.664C302.857 231.784 303.521 228.637 307.665 222.008" stroke="#263238" stroke-linecap="round" stroke-linejoin="round"/>
<path d="M300.15 170.813C294.173 164.912 285.414 158.991 267.317 157.776C249.219 156.561 224.03 161.114 223.109 168.393C222.188 175.673 232.623 214.69 232.623 249.643C232.623 254.798 233.24 260.557 243.675 260.557C254.11 260.557 301.983 264.192 302.618 252.369C303.253 240.546 300.168 228.723 301.089 211.744C302.01 194.765 304.755 175.367 300.15 170.813Z" fill="#7E8AF5" stroke="#263238" stroke-linecap="round" stroke-linejoin="round"/>
<path d="M228.193 163.352C228.193 163.352 220.678 165.677 219.039 177.404C217.399 189.131 210.243 215.599 212.905 216.211C215.567 216.823 206.559 221.463 209.829 228.34C213.098 235.218 227.834 257.438 236.427 255.018C245.02 252.598 244.605 238.843 241.953 236.423C239.3 234.003 230.265 228.924 230.265 228.924C230.265 228.924 232.918 227.307 229.648 224.275C226.379 221.243 232.015 225.805 233.738 215.58C235.782 203.46 242.947 186.07 238.646 175.567" fill="#7E8AF5"/>
<path d="M228.193 163.352C228.193 163.352 220.678 165.677 219.039 177.404C217.399 189.131 210.243 215.599 212.905 216.211C215.567 216.823 206.559 221.463 209.829 228.34C213.098 235.218 227.834 257.438 236.427 255.018C245.02 252.598 244.605 238.843 241.953 236.423C239.3 234.003 230.265 228.924 230.265 228.924C230.265 228.924 232.918 227.307 229.648 224.275C226.379 221.243 232.015 225.805 233.738 215.58C235.782 203.46 242.947 186.07 238.646 175.567" stroke="#263238" stroke-linecap="round" stroke-linejoin="round"/>
<path d="M228.654 218.01C228.654 218.01 216.994 215.14 213.918 220.028C210.842 224.916 218.762 219.023 226.361 221.042" stroke="#263238" stroke-linecap="round" stroke-linejoin="round"/>
<path d="M245.526 241.053C243.684 239.685 239.291 237.313 236.427 240.096C233.563 242.88 226.711 244.535 227.116 246.658C227.521 248.782 230.081 249.394 234.686 247.069C239.291 244.745 235.488 247.672 236.317 252.321C237.145 256.97 237.818 261.198 241.419 260.404C241.419 260.404 241.741 262.422 245.02 261.513C245.02 261.513 247.47 263.599 251.356 261.752C251.356 261.752 253.511 264.039 256.679 260.098C259.848 256.157 257.895 255.181 257.895 255.181C257.895 255.181 256.468 250.618 253.29 255.181C253.29 255.181 253.843 249.537 250.638 245.998C249.049 244.226 247.341 242.573 245.526 241.053V241.053Z" fill="white" stroke="#263238" stroke-linecap="round" stroke-linejoin="round"/>
<path d="M242.8 259.007C242.8 259.007 247.985 255.573 246.862 253.555C245.738 251.536 241.538 255.774 241.538 255.774C241.538 255.774 242.155 254.683 240.93 253.01" stroke="#263238" stroke-linecap="round" stroke-linejoin="round"/>
<path d="M246.549 260.145C246.549 260.145 254.386 257.611 252.59 255.181C250.997 253.038 247.626 255.497 247.626 255.497" stroke="#263238" stroke-linecap="round" stroke-linejoin="round"/>
<path d="M256.974 256.032C256.974 256.032 256.145 258.462 252.47 260.815" stroke="#263238" stroke-linecap="round" stroke-linejoin="round"/>
<path d="M243.97 248.877C245.079 250.653 246.624 252.089 248.446 253.038" stroke="#263238" stroke-linecap="round" stroke-linejoin="round"/>
<path d="M228.654 227.967C228.654 227.967 222.06 224.629 216.994 227.202" stroke="#263238" stroke-linecap="round" stroke-linejoin="round"/>
<path d="M278.516 163.993L273.248 162.023L267.317 163.993C267.317 163.993 271.305 170.211 272.916 170.507C272.916 170.507 278.691 217.072 280.514 238.814C282.338 260.557 281.739 262.565 281.739 262.565L289.715 269.347L295.545 260.796C295.545 260.796 292.478 226.599 288.49 206.273C286.018 193.845 282.209 181.745 277.134 170.201C277.134 170.201 279.483 167.073 278.516 163.993Z" fill="#7E8AF5"/>
<path opacity="0.3" d="M278.516 163.993L273.248 162.023L267.317 163.993C267.317 163.993 271.305 170.211 272.916 170.507C272.916 170.507 278.691 217.072 280.514 238.814C282.338 260.557 281.739 262.565 281.739 262.565L289.715 269.347L295.545 260.796C295.545 260.796 292.478 226.599 288.49 206.273C286.018 193.845 282.209 181.745 277.134 170.201C277.134 170.201 279.483 167.073 278.516 163.993Z" fill="black"/>
<path d="M278.516 163.993L273.248 162.023L267.317 163.993C267.317 163.993 271.305 170.211 272.916 170.507C272.916 170.507 278.691 217.072 280.514 238.814C282.338 260.557 281.739 262.565 281.739 262.565L289.715 269.347L295.545 260.796C295.545 260.796 292.478 226.599 288.49 206.273C286.018 193.845 282.209 181.745 277.134 170.201C277.134 170.201 279.483 167.073 278.516 163.993Z" stroke="#263238" stroke-linecap="round" stroke-linejoin="round"/>
<path d="M279.142 148.048C279.142 148.048 278.102 155.04 280.69 159.832C280.69 159.832 275.09 162.377 272.686 162.702C270.282 163.027 257.95 155.394 257.95 155.394C259.562 147.359 260.138 139.137 259.663 130.945C258.871 117.457 273.598 139.372 273.598 139.372L280.68 146.068L279.142 148.048Z" fill="white"/>
<path d="M281.426 148.689C281.426 148.689 281.574 153.232 275.366 153.079C269.159 152.926 262.988 143.341 261.947 140.95C260.907 138.559 259.673 127.31 259.673 127.31L275.329 131.882L282.927 148.048L281.426 148.689Z" fill="#263238" stroke="#263238" stroke-linecap="round" stroke-linejoin="round"/>
<path d="M279.142 148.048C279.142 148.048 278.102 155.04 280.69 159.832C280.69 159.832 275.09 162.377 272.686 162.702C270.282 163.027 257.95 155.394 257.95 155.394C259.562 147.359 260.138 139.137 259.663 130.945C258.871 117.457 273.598 139.372 273.598 139.372L280.68 146.068L279.142 148.048Z" stroke="#263238" stroke-linecap="round" stroke-linejoin="round"/>
<path d="M279.796 156.36C279.796 156.36 276.729 161.822 273.248 162.023C269.767 162.224 258.107 150.544 255.657 152.323C254.13 153.521 253.016 155.199 252.48 157.106L262.905 169.933C262.905 169.933 270.54 163.161 273.607 163.362C276.674 163.563 283.268 169.933 283.268 169.933V160.645C283.268 160.645 281.242 154.246 279.796 156.36Z" fill="#7E8AF5" stroke="#263238" stroke-linecap="round" stroke-linejoin="round"/>
<path d="M284.244 107.318C284.244 107.318 288.536 120.394 287.689 123.723C287.689 123.723 291.686 148.507 282.163 150.506C274.648 152.056 267.215 144.556 264.379 141.266C263.607 140.366 263.016 139.316 262.638 138.176L260.796 132.571C260.796 132.571 257.048 132.858 254.764 127.635C252.48 122.412 257.131 117.342 260.732 125.253C260.732 125.253 263.55 117.256 263.338 114.042C263.126 110.828 267.188 111.613 268.026 108.437C268.026 108.418 277.659 110.034 284.244 107.318Z" fill="white"/>
<path d="M284.244 107.318C284.244 107.318 288.536 120.394 287.689 123.723C287.689 123.723 291.686 148.507 282.163 150.506C274.648 152.056 267.215 144.556 264.379 141.266C263.607 140.366 263.016 139.316 262.638 138.176L260.796 132.571C260.796 132.571 257.048 132.858 254.764 127.635C252.48 122.412 257.131 117.342 260.732 125.253C260.732 125.253 263.55 117.256 263.338 114.042C263.126 110.828 267.188 111.613 268.026 108.437C268.026 108.418 277.659 110.034 284.244 107.318Z" stroke="#263238" stroke-linecap="round" stroke-linejoin="round"/>
<path d="M283.784 125.98L288.868 132.628C288.987 132.787 289.067 132.973 289.102 133.171C289.137 133.369 289.125 133.573 289.068 133.765C289.012 133.958 288.911 134.133 288.775 134.276C288.639 134.42 288.472 134.527 288.288 134.589L284.677 135.909" fill="white"/>
<path d="M283.784 125.98L288.868 132.628C288.987 132.787 289.067 132.973 289.102 133.171C289.137 133.369 289.125 133.573 289.068 133.765C289.012 133.958 288.911 134.133 288.775 134.276C288.639 134.42 288.472 134.527 288.288 134.589L284.677 135.909" stroke="#263238" stroke-linecap="round" stroke-linejoin="round"/>
<path d="M276.388 138.568C276.388 138.568 277.963 141.935 283.231 138.96" stroke="#263238" stroke-linecap="round" stroke-linejoin="round"/>
<path d="M282.918 125.712C283.075 129.022 281.509 131.777 279.428 131.872C277.346 131.968 275.532 129.366 275.375 126.066C275.219 122.766 276.784 121.81 278.866 121.714C280.947 121.618 282.762 122.403 282.918 125.712Z" stroke="#263238" stroke-linecap="round" stroke-linejoin="round"/>
<path d="M292.506 124.966C292.662 128.276 291.41 131.021 289.743 131.098C288.076 131.174 286.538 128.563 286.381 125.253C286.225 121.943 287.496 121.016 289.199 120.93C290.903 120.843 292.349 121.657 292.506 124.966Z" fill="white" stroke="#263238" stroke-linecap="round" stroke-linejoin="round"/>
<path d="M275.394 120.901C275.394 120.901 277.659 117.457 281.675 120.088" stroke="#263238" stroke-linecap="round" stroke-linejoin="round"/>
<path d="M286.446 120.078C287.16 119.227 288.136 118.659 289.209 118.471" stroke="#263238" stroke-linecap="round" stroke-linejoin="round"/>
<path d="M275.394 126.047C274.064 126.433 272.7 126.677 271.323 126.774C268.201 126.458 259.691 122.163 259.691 122.163" stroke="#263238" stroke-linecap="round" stroke-linejoin="round"/>
<path d="M286.335 124.708L283.075 125.292" stroke="#263238" stroke-linecap="round" stroke-linejoin="round"/>
<path d="M281.085 126.114C280.993 127.137 280.404 127.912 279.759 127.855C279.115 127.798 278.682 126.898 278.765 125.942C278.847 124.985 279.455 124.144 280.091 124.201C280.726 124.258 281.178 125.09 281.085 126.114Z" fill="#263238"/>
<path d="M289.024 124.995C288.932 125.951 288.49 126.764 288.03 126.717C287.569 126.669 287.275 125.846 287.367 124.851C287.459 123.857 287.892 123.091 288.352 123.13C288.813 123.168 289.107 124.01 289.024 124.995Z" fill="#263238"/>
<path d="M252.636 240.211C254.248 235.887 265.07 236.605 265.07 236.605" stroke="#263238" stroke-linecap="round" stroke-linejoin="round"/>
<path d="M278.451 242.392C266.985 245.262 254.506 247.318 252.857 243.272" stroke="#263238" stroke-linecap="round" stroke-linejoin="round"/>
<path d="M298.243 236.605C298.243 236.605 297.046 237.007 295.048 237.648" stroke="#263238" stroke-linecap="round" stroke-linejoin="round"/>
<path d="M533.822 415.537H129.307V359.598C129.307 359.598 207.692 328.032 308.899 328.032C432.283 328.079 533.822 415.537 533.822 415.537Z" fill="#7E8AF5" stroke="#263238" stroke-linecap="round" stroke-linejoin="round"/>
<path opacity="0.2" d="M367.151 343.681L319.398 336.994L270.825 345.517L318.579 352.213L367.151 343.681Z" fill="black"/>
<path d="M361.303 343.212L316.93 336.994L271.792 344.915L316.166 351.132L361.303 343.212Z" fill="white" stroke="#263238" stroke-linecap="round" stroke-linejoin="round"/>
<path d="M367.151 341.347L322.778 335.129L277.641 343.049L322.014 349.267L367.151 341.347Z" fill="white" stroke="#263238" stroke-linecap="round" stroke-linejoin="round"/>
<path opacity="0.2" d="M275.983 375.773C284.401 375.773 291.225 374.325 291.225 372.54C291.225 370.754 284.401 369.307 275.983 369.307C267.565 369.307 260.741 370.754 260.741 372.54C260.741 374.325 267.565 375.773 275.983 375.773Z" fill="black"/>
<path d="M284.797 371.66C284.797 372.559 279.879 373.286 273.8 373.286C267.722 373.286 262.813 372.559 262.813 371.66V350.233C262.813 349.334 267.731 348.607 273.8 348.607C279.87 348.607 284.797 349.334 284.797 350.233V371.66Z" fill="white" stroke="#263238" stroke-linecap="round" stroke-linejoin="round"/>
<path d="M284.797 350.233C284.797 351.132 279.879 351.859 273.8 351.859C267.722 351.859 262.813 351.132 262.813 350.233C262.813 349.334 267.731 348.607 273.8 348.607C279.87 348.607 284.797 349.334 284.797 350.233Z" fill="white" stroke="#263238" stroke-linecap="round" stroke-linejoin="round"/>
<path d="M283.471 369.632C283.18 369.638 282.897 369.535 282.673 369.342C282.45 369.148 282.301 368.878 282.255 368.58C282.234 368.417 282.245 368.252 282.287 368.094C282.33 367.936 282.402 367.789 282.5 367.66C282.597 367.532 282.719 367.425 282.857 367.346C282.996 367.268 283.148 367.219 283.305 367.202C283.581 367.202 290.249 366.131 290.249 359.894C290.249 358.325 289.844 357.264 289.052 356.728C287.569 355.771 284.797 356.518 283.94 356.871C283.64 356.995 283.306 356.995 283.006 356.87C282.706 356.746 282.464 356.506 282.329 356.202C282.27 356.052 282.24 355.891 282.242 355.73C282.244 355.568 282.277 355.408 282.34 355.26C282.403 355.111 282.494 354.978 282.607 354.867C282.721 354.756 282.855 354.67 283.001 354.614C283.471 354.423 287.606 352.835 290.424 354.71C291.944 355.724 292.717 357.465 292.717 359.894C292.717 366.59 286.786 369.182 283.646 369.622L283.471 369.632Z" fill="white" stroke="#263238" stroke-linecap="round" stroke-linejoin="round"/>
<path d="M299.266 355.685C298.538 356.412 298.041 357.101 298.17 357.235C298.298 357.369 298.998 356.871 299.735 356.144C300.472 355.417 300.96 354.729 300.831 354.604C300.702 354.48 300.002 354.968 299.266 355.685Z" fill="#263238" stroke="#263238" stroke-linecap="round" stroke-linejoin="round"/>
<path d="M303.226 349.114C300.214 352.089 298.483 355.198 299.358 356.058C300.233 356.919 303.392 355.217 306.403 352.232L325.808 333.054C328.82 330.079 330.551 326.96 329.676 326.099C328.802 325.239 325.652 326.941 322.64 329.926L303.226 349.114Z" fill="#7E8AF5" stroke="#263238" stroke-linecap="round" stroke-linejoin="round"/>
<path d="M322.963 335.875L322.161 336.669C321.6 336.2 321.047 335.713 320.513 335.167C319.979 334.622 319.463 334.086 318.993 333.541L319.794 332.747C320.264 333.293 320.771 333.838 321.314 334.373C321.857 334.909 322.41 335.407 322.963 335.875Z" fill="#263238" stroke="#263238" stroke-linecap="round" stroke-linejoin="round"/>
<path d="M327.291 326.415C327.291 326.415 325.946 325.554 322.87 327.907C319.794 330.26 316.93 334.326 315.502 334.192" stroke="#263238" stroke-linecap="round" stroke-linejoin="round"/>
<path d="M289.917 366.016C289.917 366.016 292.155 360.401 292.155 357.531C292.155 354.662 297.976 344.991 302.286 343.288C306.597 341.586 321.111 334.479 322.17 337.358C323.23 340.237 316.7 343.805 315.327 344.475C313.801 345.47 312.365 346.606 311.036 347.87C311.036 347.87 317.676 346.493 318.404 344.312C319.131 342.131 321.167 339.223 322.272 341.088C323.377 342.954 322.87 347.698 321.148 351.343V353.801C321.148 353.801 323.036 356.671 320.982 359.052L319.398 360.745C319.398 360.745 322.161 363.615 318.404 366.006C318.404 366.006 320.126 368.551 317.031 371.086C317.031 371.086 310.511 374.309 306.394 375.323C302.277 376.337 298.676 382.45 298.676 382.45L289.917 366.016Z" fill="white" stroke="#263238" stroke-linecap="round" stroke-linejoin="round"/>
<path d="M163.807 268.783L174.564 243.846L167.638 222.955L166.948 198.993L185.902 187.955L202.636 185.028L209.46 189.131L212.297 195.961C212.297 195.961 220.807 213.829 219.49 217.263C218.173 220.697 217.197 223.959 217.197 223.959C217.197 223.959 221.212 233.238 223.588 236.184C225.964 239.13 218.597 237.341 217.731 242.65C216.865 247.959 217.897 262.049 211.579 262.69C205.261 263.331 201.448 261.293 200.868 266.832C200.287 272.37 193.804 286.431 193.804 286.431L163.807 268.783Z" fill="white" stroke="#263238" stroke-linecap="round" stroke-linejoin="round"/>
<path d="M216.579 169.092C215.658 165.878 206.789 170.345 205.868 177.232C205.868 177.232 204.736 166.71 201.807 165.706C199.246 164.835 195.71 169.608 196.99 175.271C196.99 175.271 187.421 170.048 184.336 171.263C182.052 172.162 181.25 176.792 186.178 180.829C186.178 180.829 156.264 173.922 158.014 200.983C158.014 200.983 141.565 213.715 171.995 249.882C171.995 249.882 179.215 248.217 181.204 247.012C182.356 246.314 191.98 238.403 191.98 238.403C189.217 237.38 184.409 234.453 183.102 230.923C181.444 226.456 183.663 221.118 187.707 220.401C190.129 219.97 191.501 221.09 193.232 223.098C193.232 223.098 189.245 217.866 189.493 215.838C189.806 213.303 195.83 210.615 196.272 208.1C196.474 206.914 193.794 204.58 194.503 203.594C198.114 198.592 215.364 204.388 213.595 187.802C211.827 171.215 217.869 173.597 216.579 169.092Z" fill="#263238" stroke="#263238" stroke-linecap="round" stroke-linejoin="round"/>
<path d="M215.944 222.658C215.944 223.969 215.695 225.04 215.29 225.05C214.885 225.059 214.544 224.007 214.507 222.697C214.471 221.386 214.756 220.315 215.152 220.305C215.548 220.296 215.907 221.367 215.944 222.658Z" fill="#263238"/>
<path d="M212.923 217.952C212.923 217.952 213.973 214.595 216.082 214.375" stroke="#263238" stroke-linecap="round" stroke-linejoin="round"/>
<path d="M190.322 192.116C200.656 192.967 192.109 177.213 192.109 177.213" stroke="#7F7F7F" stroke-linecap="round" stroke-linejoin="round"/>
<path d="M164.111 199.491C164.111 199.491 172.243 187.209 187.218 191.504" stroke="#7F7F7F" stroke-linecap="round" stroke-linejoin="round"/>
<path d="M204.478 185.076C205.491 190.528 204.478 197.817 192.413 198.697" stroke="#7F7F7F" stroke-linecap="round" stroke-linejoin="round"/>
<path d="M202.415 179.021C202.833 179.848 203.196 180.705 203.502 181.584" stroke="#7F7F7F" stroke-linecap="round" stroke-linejoin="round"/>
<path d="M213.577 415.537C213.577 415.537 222.897 315.845 211.846 297.03C200.794 278.215 167.758 256.137 155.942 265.703C114.94 299.048 114.801 327.525 112.195 415.517L213.577 415.537Z" fill="#263238" stroke="#263238" stroke-linecap="round" stroke-linejoin="round"/>
<path d="M204.579 293.443C204.579 293.443 217.611 297.001 224.841 317.356C231.5 336.038 243.601 360.669 251.678 372.941C252.317 373.883 253.199 374.617 254.222 375.061C255.246 375.504 256.369 375.638 257.462 375.448C261.017 374.864 267.796 374.415 274.289 370.751C280.303 367.355 285.617 363.634 292.303 364.648C298.989 365.662 303.18 372.119 302.102 381.445C301.071 390.341 262.564 413.48 239.825 413.48C221.277 413.48 204.321 360.602 198.657 344.838C192.993 329.074 187.08 294.485 204.579 293.443Z" fill="#263238" stroke="#263238" stroke-linecap="round" stroke-linejoin="round"/>
<path d="M197.718 295.566C199.414 294.264 201.449 293.524 203.557 293.443" stroke="#7F7F7F" stroke-linecap="round" stroke-linejoin="round"/>
<path d="M193.177 303.008C193.532 301.746 194.017 300.528 194.623 299.373" stroke="#7F7F7F" stroke-linecap="round" stroke-linejoin="round"/>
<path d="M212.223 378.193C206.716 367.388 201.844 356.246 197.635 344.829C194.108 335.005 190.479 317.883 192.477 306.127" stroke="#7F7F7F" stroke-linecap="round" stroke-linejoin="round"/>
<path d="M204.146 289.913C204.146 289.913 209.295 282.117 204.146 275.67C198.998 269.223 175.504 255.296 166.717 258.73C166.055 258.956 165.443 259.318 164.919 259.796C164.395 260.274 163.969 260.858 163.668 261.511C163.367 262.164 163.196 262.874 163.166 263.598C163.136 264.322 163.248 265.044 163.494 265.722C163.494 265.722 181.158 266.526 204.146 289.913Z" fill="#263238" stroke="#263238" stroke-linecap="round" stroke-linejoin="round"/>
<path d="M201.291 287.704C202.019 288.411 202.756 289.138 203.492 289.894" stroke="#7F7F7F" stroke-linecap="round" stroke-linejoin="round"/>
<path d="M169.526 267.157C175.633 269.07 185.505 273.575 197.248 283.973" stroke="#7F7F7F" stroke-linecap="round" stroke-linejoin="round"/>
<path d="M162.868 265.703C163.903 265.784 164.931 265.944 165.944 266.182" stroke="#7F7F7F" stroke-linecap="round" stroke-linejoin="round"/>
<path d="M256.808 388.552C256.808 388.552 256.808 382.966 253.981 381.436C251.153 379.905 253.465 388.552 250.638 395.679" stroke="#7F7F7F" stroke-linecap="round" stroke-linejoin="round"/>
<path d="M226.959 327.544C226.959 327.544 229.28 327.792 231.334 351.18" stroke="#7F7F7F" stroke-linecap="round" stroke-linejoin="round"/>
<path d="M191.934 238.346L193.905 238.728C193.97 241.607 194.626 244.437 195.83 247.031C197.672 250.59 200.287 251.269 206.43 258.194C212.159 264.641 214.793 260.442 215.125 259.839C214.815 260.599 214.321 261.262 213.692 261.765C213.063 262.268 212.319 262.593 211.533 262.709C205.224 263.35 201.402 261.312 200.822 266.851C199.809 262.565 196.511 257.41 193.905 250.963C192.321 246.971 191.647 242.653 191.934 238.346V238.346Z" fill="#263238" stroke="#263238" stroke-linecap="round" stroke-linejoin="round"/>
<path opacity="0.3" d="M194.623 234.319C195.351 229.909 190.939 220.927 193.251 223.012C195.563 225.098 198.574 232.788 202.175 235.715C205.776 238.642 205.436 245.501 210.584 242.621C212.828 241.323 215.469 240.98 217.952 241.665C217.835 241.973 217.752 242.294 217.703 242.621C216.847 247.959 217.869 262.02 211.551 262.661C209.731 262.802 207.905 262.843 206.08 262.786C202.507 258.902 197.405 253.134 195.452 249.786C192.293 244.42 193.905 238.728 194.623 234.319Z" fill="#263238"/>
<path d="M216.533 247.069C216.533 247.069 213.301 245.606 213.365 243.502" stroke="#263238" stroke-linecap="round" stroke-linejoin="round"/>
<defs>
<linearGradient id="paint0_linear_267_82" x1="138.854" y1="87.313" x2="301.179" y2="363.086" gradientUnits="userSpaceOnUse">
<stop stop-color="#76BDFF"/>
<stop offset="1" stop-color="#FF94EE"/>
</linearGradient>
</defs>
</svg>
