<svg width="333" height="255" viewBox="0 0 333 255" fill="none" xmlns="http://www.w3.org/2000/svg">
<path d="M299.495 237.217H277.473V237.39H299.495V237.217Z" fill="#EBEBEB"/>
<path d="M220.581 239.096H214.803V239.269H220.581V239.096Z" fill="#EBEBEB"/>
<path d="M276.807 230.809H264.047V230.981H276.807V230.809Z" fill="#EBEBEB"/>
<path d="M63.9421 231.969H35.2236V232.142H63.9421V231.969Z" fill="#EBEBEB"/>
<path d="M74.0757 231.969H69.8667V232.142H74.0757V231.969Z" fill="#EBEBEB"/>
<path d="M150.051 234.883H87.7603V235.056H150.051V234.883Z" fill="#EBEBEB"/>
<path d="M157.931 195.304H29.5453C28.5383 195.304 27.5726 194.889 26.8606 194.149C26.1486 193.41 25.7485 192.407 25.7485 191.361V3.90885C25.7573 2.86899 26.1612 1.87483 26.8723 1.14275C27.5834 0.410679 28.5441 -3.98661e-05 29.5453 2.90232e-09H157.931C158.938 2.90233e-09 159.904 0.415462 160.616 1.15499C161.328 1.89452 161.728 2.89753 161.728 3.94338V191.361C161.728 192.407 161.328 193.41 160.616 194.149C159.904 194.889 158.938 195.304 157.931 195.304ZM29.5453 0.138122C28.583 0.139948 27.6606 0.537805 26.9801 1.24456C26.2996 1.95131 25.9165 2.90935 25.9148 3.90885V191.361C25.9165 192.36 26.2996 193.318 26.9801 194.025C27.6606 194.732 28.583 195.13 29.5453 195.132H157.931C158.893 195.13 159.816 194.732 160.496 194.025C161.177 193.318 161.56 192.36 161.561 191.361V3.90885C161.56 2.90935 161.177 1.95131 160.496 1.24456C159.816 0.537805 158.893 0.139948 157.931 0.138122H29.5453Z" fill="#EBEBEB"/>
<path d="M301.762 195.304H173.364C172.357 195.302 171.393 194.886 170.681 194.147C169.969 193.408 169.569 192.406 169.567 191.361V3.90885C169.577 2.86956 169.982 1.87644 170.693 1.14475C171.403 0.413059 172.363 0.00175987 173.364 0H301.762C302.761 0.00359427 303.719 0.415919 304.427 1.1476C305.135 1.87929 305.537 2.87138 305.546 3.90885V191.361C305.546 192.404 305.148 193.405 304.439 194.144C303.729 194.884 302.767 195.301 301.762 195.304ZM173.364 0.138122C172.401 0.139948 171.479 0.537805 170.798 1.24456C170.118 1.95131 169.735 2.90935 169.733 3.90885V191.361C169.735 192.36 170.118 193.318 170.798 194.025C171.479 194.732 172.401 195.13 173.364 195.132H301.762C302.725 195.13 303.647 194.732 304.328 194.025C305.008 193.318 305.391 192.36 305.393 191.361V3.90885C305.391 2.90935 305.008 1.95131 304.328 1.24456C303.647 0.537805 302.725 0.139948 301.762 0.138122H173.364Z" fill="#EBEBEB"/>
<path d="M332.808 226.105H0.341309V226.278H332.808V226.105Z" fill="#EBEBEB"/>
<path d="M277.453 27.3965H194.476V119.172H277.453V27.3965Z" fill="#EBEBEB"/>
<path d="M272.466 32.5759H199.462V113.992H272.466V32.5759Z" fill="#F5F5F5"/>
<path d="M228.115 113.992H250.058L270.657 32.5759H248.714L228.115 113.992Z" fill="#FAFAFA"/>
<path d="M238.521 32.5759L217.921 113.992H223.24L243.84 32.5759H238.521Z" fill="#FAFAFA"/>
<path d="M278.496 31.7129H193.425L191.629 27.3621H280.292L278.496 31.7129Z" fill="#F5F5F5"/>
<path d="M278.496 34.2334H193.425L191.629 29.8826H280.292L278.496 34.2334Z" fill="#F0F0F0"/>
<path d="M278.496 36.7542H193.425L191.629 32.4033H280.292L278.496 36.7542Z" fill="#E6E6E6"/>
<path d="M278.496 39.2749H193.425L191.629 34.9241H280.292L278.496 39.2749Z" fill="#E0E0E0"/>
<path d="M283.39 21.9131H188.538V27.7142H283.39V21.9131Z" fill="#E0E0E0"/>
<path d="M189.509 80.3109C189.253 80.3109 189.008 80.2054 188.827 80.0176C188.646 79.8298 188.544 79.5751 188.544 79.3095V45.4696C188.544 45.2041 188.646 44.9494 188.827 44.7616C189.008 44.5738 189.253 44.4683 189.509 44.4683C189.764 44.4683 190.01 44.5738 190.19 44.7616C190.371 44.9494 190.473 45.2041 190.473 45.4696V79.3095C190.473 79.5751 190.371 79.8298 190.19 80.0176C190.01 80.2054 189.764 80.3109 189.509 80.3109Z" fill="#E0E0E0"/>
<path d="M189.854 26.554H189.156V46.6507H189.854V26.554Z" fill="#E0E0E0"/>
<path d="M60.5314 25.6216H59.3345V122.562H60.5314V25.6216Z" fill="#E0E0E0"/>
<path d="M135.037 25.6216H133.84V122.562H135.037V25.6216Z" fill="#E0E0E0"/>
<path d="M139.731 31.7129H54.6464L52.8511 27.3621H141.52L139.731 31.7129Z" fill="#F5F5F5"/>
<path d="M139.731 37.6865H54.6464L52.8511 33.3357H141.52L139.731 37.6865Z" fill="#F5F5F5"/>
<path d="M139.731 43.6604H54.6464L52.8511 39.3096H141.52L139.731 43.6604Z" fill="#F5F5F5"/>
<path d="M139.731 49.634H54.6464L52.8511 45.2832H141.52L139.731 49.634Z" fill="#F5F5F5"/>
<path d="M139.731 55.6079H54.6464L52.8511 51.2571H141.52L139.731 55.6079Z" fill="#F5F5F5"/>
<path d="M139.731 61.5816H54.6464L52.8511 57.2307H141.52L139.731 61.5816Z" fill="#F5F5F5"/>
<path d="M139.731 67.5554H54.6464L52.8511 63.2046H141.52L139.731 67.5554Z" fill="#F5F5F5"/>
<path d="M139.731 73.5291H54.6464L52.8511 69.1782H141.52L139.731 73.5291Z" fill="#F5F5F5"/>
<path d="M139.731 79.5029H54.6464L52.8511 75.1521H141.52L139.731 79.5029Z" fill="#F5F5F5"/>
<path d="M139.731 85.4768H54.6464L52.8511 81.126H141.52L139.731 85.4768Z" fill="#F5F5F5"/>
<path d="M139.731 91.4504H54.6464L52.8511 87.0996H141.52L139.731 91.4504Z" fill="#F5F5F5"/>
<path d="M139.731 97.4172H54.6464L52.8511 93.0664H141.52L139.731 97.4172Z" fill="#F5F5F5"/>
<path d="M139.731 103.398H54.6464L52.8511 99.0403H141.52L139.731 103.398Z" fill="#F5F5F5"/>
<path d="M139.731 109.365H54.6464L52.8511 105.014H141.52L139.731 109.365Z" fill="#F5F5F5"/>
<path d="M139.731 115.339H54.6464L52.8511 110.988H141.52L139.731 115.339Z" fill="#F5F5F5"/>
<path d="M139.731 121.313H54.6464L52.8511 116.962H141.52L139.731 121.313Z" fill="#F5F5F5"/>
<path d="M141.52 121.312H52.8511V123.799H141.52V121.312Z" fill="#E0E0E0"/>
<path d="M144.612 21.9131H49.7593V27.7142H144.612V21.9131Z" fill="#E0E0E0"/>
<path d="M50.7366 80.3109C50.4809 80.3109 50.2357 80.2054 50.0549 80.0176C49.874 79.8298 49.7725 79.5751 49.7725 79.3095V45.4696C49.7725 45.2041 49.874 44.9494 50.0549 44.7616C50.2357 44.5738 50.4809 44.4683 50.7366 44.4683C50.9923 44.4683 51.2376 44.5738 51.4184 44.7616C51.5992 44.9494 51.7008 45.2041 51.7008 45.4696V79.3095C51.7008 79.5751 51.5992 79.8298 51.4184 80.0176C51.2376 80.2054 50.9923 80.3109 50.7366 80.3109Z" fill="#E0E0E0"/>
<path d="M51.0825 26.554H50.3843V46.6507H51.0825V26.554Z" fill="#E0E0E0"/>
<path d="M59.7331 184.655C59.6533 184.745 60.0988 185.394 58.2769 185.111C53.7886 184.42 45.9756 182.521 43.8012 177.728C40.696 170.884 50.3243 173.384 49.9918 169.883C49.6593 166.382 38.6879 166.989 37.5376 161.858C36.3872 156.727 43.8079 159.172 43.9076 156.672C44.0074 154.172 35.443 155.719 33.7408 150.18C32.0386 144.641 38.515 148.723 37.7703 146.416C37.0256 144.11 29.7911 133.702 33.7208 132.494C37.6506 131.285 44.3066 141.969 46.8865 143.481C49.4665 144.994 51.7273 136.271 54.786 139.959C57.8447 143.647 52.9906 156.534 56.8872 159.027C59.7929 160.891 58.975 155.76 62.8051 156.72C67.9849 158.018 66.2361 177.1 59.7331 184.655Z" fill="#EBEBEB"/>
<path d="M45.8829 156.699C47.2035 156.801 48.5062 157.077 49.7594 157.521C48.9285 156.225 48.0062 154.995 47 153.84C46.9459 153.774 46.918 153.688 46.9218 153.602C46.9256 153.515 46.9609 153.432 47.0205 153.371C47.0802 153.31 47.1598 153.275 47.2435 153.272C47.3272 153.269 47.4089 153.3 47.4721 153.357C49.6409 155.883 51.4972 158.681 52.9977 161.685C54.414 152.853 50.8499 145.111 50.81 145.056C50.7888 144.995 50.79 144.928 50.8135 144.868C50.837 144.807 50.8811 144.759 50.9373 144.73C50.9935 144.702 51.0578 144.696 51.1178 144.714C51.1778 144.732 51.2292 144.773 51.2622 144.828C51.3021 144.911 55.0989 153.15 53.3767 162.417C53.8355 163.322 54.3009 164.296 54.7531 165.339C56.362 169.057 57.6331 172.922 58.5499 176.886C60.2106 173.632 61.1211 170.022 61.2096 166.34C61.2105 166.307 61.2177 166.274 61.2309 166.243C61.244 166.212 61.2629 166.185 61.2863 166.161C61.3098 166.138 61.3374 166.12 61.3676 166.108C61.3978 166.096 61.43 166.091 61.4623 166.092C61.4955 166.092 61.5282 166.1 61.5585 166.114C61.5888 166.128 61.6162 166.148 61.639 166.173C61.6619 166.198 61.6798 166.228 61.6916 166.26C61.7035 166.292 61.7092 166.326 61.7083 166.361C61.6285 170.308 60.6073 174.174 58.7361 177.611C60.4328 185.41 60.9998 193.429 60.4183 201.402C60.4158 201.448 60.4047 201.492 60.3856 201.533C60.3664 201.574 60.3398 201.611 60.307 201.641C60.2743 201.671 60.2361 201.694 60.1948 201.709C60.1534 201.724 60.1096 201.73 60.0659 201.727H60.026C59.9456 201.712 59.8735 201.666 59.8242 201.598C59.775 201.53 59.7521 201.446 59.7601 201.361C60.5779 188.93 58.7959 178.978 56.3223 171.423C54.9497 169.772 53.0711 168.662 51.0029 168.281C50.9388 168.267 50.882 168.229 50.8438 168.174C50.8055 168.119 50.7887 168.051 50.7967 167.984C50.8008 167.95 50.8113 167.918 50.8276 167.888C50.8439 167.859 50.8657 167.833 50.8917 167.812C50.9177 167.792 50.9474 167.777 50.9791 167.768C51.0107 167.76 51.0437 167.758 51.076 167.763C52.8898 168.088 54.5725 168.957 55.9167 170.263C54.4798 166.06 52.5787 162.043 50.2515 158.295C48.8491 157.686 47.3596 157.322 45.843 157.217C45.7771 157.212 45.7159 157.18 45.6724 157.128C45.6289 157.077 45.6066 157.009 45.6103 156.941C45.6119 156.906 45.6203 156.872 45.6351 156.841C45.6499 156.809 45.6707 156.782 45.6963 156.759C45.7218 156.736 45.7515 156.719 45.7836 156.709C45.8157 156.699 45.8495 156.695 45.8829 156.699Z" fill="#F5F5F5"/>
<path d="M65.5051 187.3C69.2354 187.369 75.6055 183.771 78.1389 180.277C80.6723 176.782 73.5375 178.895 74.2689 176.133C75.0004 173.371 83.8041 175.408 85.4265 171.409C87.049 167.411 80.7055 168.336 80.9582 166.292C81.2108 164.248 87.787 164.669 89.8949 160.422C92.0027 156.174 86.2245 158.557 87.1288 156.796C88.0331 155.035 95.2875 147.632 92.2554 146.092C89.2233 144.551 82.421 152.259 80.147 153.122C77.8729 153.985 77.3343 148.654 74.3687 151.202C71.4031 153.75 73.624 164.883 70.1397 166.354C67.5398 167.452 68.6436 162.348 65.6514 163.64C60.3585 165.898 63.9691 187.266 65.5051 187.3Z" fill="#E0E0E0"/>
<g opacity="0.3">
<path opacity="0.3" d="M65.5051 187.3C69.2354 187.369 75.6055 183.771 78.1389 180.277C80.6723 176.782 73.5375 178.895 74.2689 176.133C75.0004 173.371 83.8041 175.408 85.4265 171.409C87.049 167.411 80.7055 168.336 80.9582 166.292C81.2108 164.248 87.787 164.669 89.8949 160.422C92.0027 156.174 86.2245 158.557 87.1288 156.796C88.0331 155.035 95.2875 147.632 92.2554 146.092C89.2233 144.551 82.421 152.259 80.147 153.122C77.8729 153.985 77.3343 148.654 74.3687 151.202C71.4031 153.75 73.624 164.883 70.1397 166.354C67.5398 167.452 68.6436 162.348 65.6514 163.64C60.3585 165.898 63.9691 187.266 65.5051 187.3Z" fill="#E0E0E0"/>
</g>
<path d="M66.7151 182.652C66.6588 182.631 66.6116 182.589 66.5821 182.535C65.1605 179.294 64.5827 175.722 64.9065 172.176C64.9043 172.138 64.9098 172.101 64.9228 172.066C64.9358 172.03 64.9558 171.999 64.9817 171.972C65.0075 171.946 65.0385 171.926 65.0725 171.913C65.1065 171.9 65.1428 171.895 65.1789 171.898C65.2149 171.901 65.25 171.912 65.2816 171.93C65.3132 171.949 65.3407 171.974 65.3622 172.004C65.3836 172.034 65.3986 172.069 65.406 172.106C65.4134 172.142 65.4132 172.18 65.4052 172.217C65.1267 175.583 65.6448 178.969 66.9146 182.079C68.4564 177.759 70.3564 173.586 72.5932 169.607C71.9282 161.319 76.0375 154.482 76.0774 154.413C76.1127 154.356 76.1686 154.315 76.2328 154.3C76.297 154.285 76.3643 154.297 76.4198 154.334C76.4754 154.37 76.5147 154.429 76.529 154.495C76.5433 154.562 76.5316 154.632 76.4963 154.69C74.1197 158.976 72.9257 163.86 73.0453 168.806C75.7263 164.029 78.9256 159.587 82.5805 155.567C82.6105 155.531 82.6474 155.502 82.6888 155.481C82.7302 155.461 82.7752 155.449 82.821 155.448C82.8667 155.447 82.9123 155.455 82.9549 155.473C82.9974 155.49 83.036 155.517 83.0681 155.551C83.1003 155.585 83.1254 155.625 83.1418 155.669C83.1582 155.714 83.1656 155.761 83.1635 155.809C83.1614 155.856 83.1499 155.903 83.1297 155.946C83.1094 155.988 83.0809 156.026 83.0459 156.057C80.3456 159.008 77.9087 162.207 75.7649 165.615C78.0111 164.736 80.393 164.292 82.7932 164.303C82.8591 164.306 82.921 164.337 82.9657 164.387C83.0104 164.437 83.0344 164.504 83.0326 164.572C83.0309 164.639 83.0042 164.702 82.9582 164.748C82.9123 164.795 82.8507 164.821 82.7866 164.821C80.2064 164.798 77.6484 165.317 75.2662 166.347C73.7974 168.689 72.4436 171.107 71.2101 173.591C72.2118 172.87 73.3525 172.382 74.5533 172.163C75.7541 171.943 76.9865 171.997 78.1653 172.321C78.2294 172.339 78.2842 172.382 78.3177 172.441C78.3513 172.501 78.3611 172.572 78.3448 172.638C78.3364 172.671 78.3217 172.702 78.3017 172.729C78.2817 172.756 78.2567 172.778 78.2282 172.795C78.1997 172.812 78.1683 172.822 78.1358 172.826C78.1033 172.83 78.0704 172.827 78.039 172.818C76.761 172.476 75.4218 172.467 74.1393 172.789C72.8568 173.112 71.6705 173.758 70.6848 174.669C66.3976 183.496 63.9527 193.163 63.5101 203.039C63.5067 203.128 63.4702 203.213 63.4082 203.274C63.3462 203.336 63.2636 203.371 63.1777 203.371C63.0918 203.371 63.0092 203.336 62.9472 203.274C62.8852 203.213 62.8487 203.128 62.8452 203.039C63.1242 196.078 64.4294 189.202 66.7151 182.652Z" fill="#F5F5F5"/>
<path d="M54.9922 225.139C51.4348 218.191 49.0942 208.15 49.0942 203.73C49.1115 201.928 49.5099 200.152 50.2614 198.528C51.0129 196.903 52.099 195.47 53.4429 194.331H71.6688C73.0126 195.47 74.0988 196.903 74.8502 198.528C75.6017 200.152 76.0002 201.928 76.0174 203.73C76.0174 208.136 73.6769 218.177 70.1195 225.139H54.9922Z" fill="#F0F0F0"/>
<path d="M163.37 254.635C234.573 254.635 292.294 251.135 292.294 246.817C292.294 242.499 234.573 238.999 163.37 238.999C92.1671 238.999 34.4458 242.499 34.4458 246.817C34.4458 251.135 92.1671 254.635 163.37 254.635Z" fill="#F5F5F5"/>
<path d="M194.934 44.6409H178.976C178.456 44.6524 177.955 44.8443 177.552 45.186C177.15 45.5277 176.869 45.9995 176.755 46.5263L176.648 47.0442C176.373 48.3292 175.689 49.4807 174.708 50.3136C173.726 51.1465 172.503 51.6125 171.236 51.6368H156.075C154.873 51.6647 153.709 51.1974 152.837 50.337C151.965 49.4766 151.456 48.2929 151.421 47.0442V46.5263C151.409 46.0146 151.202 45.5288 150.845 45.1754C150.489 44.822 150.012 44.6298 149.519 44.6409H133.561C130.94 44.6893 128.427 45.7336 126.497 47.5763C124.567 49.419 123.354 51.9323 123.088 54.6409L110.281 206.948C110.146 208.221 110.274 209.51 110.655 210.728C111.037 211.947 111.665 213.067 112.496 214.013C113.327 214.96 114.342 215.712 115.475 216.219C116.608 216.727 117.832 216.977 119.065 216.955H180.419C183.04 216.905 185.553 215.859 187.483 214.015C189.413 212.171 190.625 209.657 190.891 206.948L203.725 54.6409C203.859 53.3674 203.73 52.0788 203.348 50.8608C202.965 49.6429 202.337 48.5236 201.505 47.5775C200.674 46.6314 199.658 45.8801 198.524 45.3738C197.391 44.8674 196.167 44.6176 194.934 44.6409Z" fill="#407BFF"/>
<path opacity="0.7" d="M194.934 44.6409H178.976C178.456 44.6524 177.955 44.8443 177.552 45.186C177.15 45.5277 176.869 45.9995 176.755 46.5263L176.648 47.0442C176.373 48.3292 175.689 49.4807 174.708 50.3136C173.726 51.1465 172.503 51.6125 171.236 51.6368H156.075C154.873 51.6647 153.709 51.1974 152.837 50.337C151.965 49.4766 151.456 48.2929 151.421 47.0442V46.5263C151.409 46.0146 151.202 45.5288 150.845 45.1754C150.489 44.822 150.012 44.6298 149.519 44.6409H133.561C130.94 44.6893 128.427 45.7336 126.497 47.5763C124.567 49.419 123.354 51.9323 123.088 54.6409L110.281 206.948C110.146 208.221 110.274 209.51 110.655 210.728C111.037 211.947 111.665 213.067 112.496 214.013C113.327 214.96 114.342 215.712 115.475 216.219C116.608 216.727 117.832 216.977 119.065 216.955H180.419C183.04 216.905 185.553 215.859 187.483 214.015C189.413 212.171 190.625 209.657 190.891 206.948L203.725 54.6409C203.859 53.3674 203.73 52.0788 203.348 50.8608C202.965 49.6429 202.337 48.5236 201.505 47.5775C200.674 46.6314 199.658 45.8801 198.524 45.3738C197.391 44.8674 196.167 44.6176 194.934 44.6409Z" fill="white"/>
<path d="M188.717 114.696H156.135C155.861 114.701 155.589 114.645 155.338 114.532C155.086 114.419 154.86 114.252 154.675 114.042C154.491 113.832 154.351 113.583 154.266 113.312C154.18 113.042 154.151 112.756 154.18 112.473L156.634 83.3357C156.693 82.7334 156.962 82.1744 157.391 81.7645C157.82 81.3546 158.379 81.1224 158.961 81.112H191.543C191.818 81.1063 192.09 81.1615 192.342 81.2739C192.594 81.3864 192.821 81.5534 193.006 81.7639C193.191 81.9744 193.33 82.2236 193.415 82.4946C193.5 82.7657 193.528 83.0524 193.498 83.3357L191.044 112.473C190.984 113.074 190.715 113.632 190.286 114.042C189.858 114.452 189.299 114.684 188.717 114.696Z" fill="white"/>
<path d="M177.879 205.801H123.354C122.673 205.814 121.997 205.677 121.371 205.397C120.745 205.117 120.183 204.702 119.724 204.179C119.265 203.656 118.918 203.038 118.707 202.365C118.496 201.692 118.425 200.98 118.5 200.276C118.648 198.78 119.318 197.392 120.384 196.374C121.45 195.356 122.837 194.779 124.285 194.752H178.81C179.491 194.738 180.167 194.876 180.793 195.156C181.419 195.436 181.981 195.851 182.44 196.374C182.899 196.897 183.246 197.515 183.457 198.188C183.668 198.861 183.738 199.573 183.664 200.276C183.517 201.773 182.848 203.162 181.782 204.18C180.716 205.198 179.327 205.775 177.879 205.801Z" fill="white"/>
<path d="M182.221 73.101H132.198C131.814 73.113 131.433 73.0387 131.08 72.8832C130.726 72.7277 130.41 72.4946 130.151 72.2001C129.893 71.9055 129.699 71.5564 129.583 71.1767C129.467 70.797 129.431 70.3956 129.478 70.0002L129.884 65.1659C129.968 64.3278 130.344 63.5506 130.942 62.9807C131.54 62.4109 132.317 62.0877 133.129 62.072H183.152C183.534 62.0648 183.912 62.1421 184.263 62.2987C184.614 62.4553 184.929 62.6876 185.187 62.9802C185.445 63.2728 185.64 63.619 185.759 63.9958C185.878 64.3727 185.919 64.7715 185.878 65.1659L185.466 70.0002C185.383 70.8395 185.007 71.6184 184.409 72.1897C183.812 72.761 183.033 73.0852 182.221 73.101Z" fill="white"/>
<path d="M192.394 65.0001C192.371 65.2341 192.267 65.4512 192.1 65.6103C191.933 65.7695 191.716 65.8595 191.49 65.8634C191.384 65.865 191.278 65.8431 191.18 65.7993C191.083 65.7554 190.995 65.6905 190.924 65.6089C190.852 65.5273 190.798 65.4309 190.765 65.3259C190.732 65.221 190.72 65.1099 190.732 65.0001C190.755 64.7668 190.86 64.5505 191.026 64.3925C191.193 64.2345 191.41 64.146 191.636 64.1438C191.742 64.1412 191.847 64.1621 191.945 64.2052C192.043 64.2482 192.13 64.3125 192.202 64.3935C192.274 64.4746 192.328 64.5707 192.361 64.6753C192.394 64.7799 192.406 64.8906 192.394 65.0001Z" fill="white"/>
<path d="M192.175 67.5828C192.153 67.8162 192.05 68.0332 191.884 68.1925C191.719 68.3517 191.503 68.442 191.277 68.4461C191.171 68.4477 191.065 68.4258 190.968 68.382C190.87 68.3381 190.783 68.2732 190.711 68.1916C190.639 68.11 190.585 68.0136 190.552 67.9086C190.519 67.8037 190.508 67.6926 190.519 67.5828C190.54 67.3495 190.643 67.1324 190.809 66.9732C190.975 66.8139 191.191 66.7236 191.417 66.7196C191.523 66.718 191.628 66.7398 191.726 66.7837C191.823 66.8275 191.911 66.8924 191.983 66.974C192.054 67.0556 192.108 67.1521 192.142 67.257C192.175 67.362 192.186 67.473 192.175 67.5828Z" fill="white"/>
<path d="M191.962 70.159C191.939 70.393 191.835 70.6101 191.668 70.7692C191.501 70.9283 191.284 71.0184 191.058 71.0223C190.951 71.0239 190.846 71.002 190.748 70.9581C190.651 70.9143 190.563 70.8494 190.492 70.7678C190.42 70.6862 190.366 70.5898 190.333 70.4848C190.3 70.3799 190.288 70.2688 190.3 70.159C190.322 69.925 190.427 69.7079 190.594 69.5488C190.76 69.3897 190.978 69.2996 191.204 69.2957C191.31 69.2941 191.416 69.316 191.513 69.3598C191.611 69.4037 191.698 69.4686 191.77 69.5502C191.842 69.6318 191.896 69.7282 191.929 69.8332C191.962 69.9381 191.973 70.0492 191.962 70.159Z" fill="white"/>
<path d="M184.668 162.763H123.806C123.532 162.768 123.259 162.713 123.007 162.601C122.755 162.488 122.529 162.321 122.344 162.111C122.159 161.9 122.019 161.651 121.934 161.38C121.849 161.109 121.821 160.822 121.851 160.539L124.684 127.286C124.742 126.684 125.012 126.125 125.441 125.715C125.869 125.305 126.428 125.073 127.011 125.062H187.853C188.126 125.058 188.398 125.114 188.649 125.226C188.901 125.339 189.126 125.506 189.311 125.717C189.495 125.927 189.634 126.176 189.718 126.447C189.803 126.717 189.831 127.003 189.801 127.286L187.001 160.539C186.943 161.142 186.673 161.702 186.242 162.112C185.812 162.522 185.251 162.754 184.668 162.763Z" fill="white"/>
<path d="M140.549 169.711H121.599C121.532 169.712 121.466 169.699 121.405 169.672C121.344 169.645 121.29 169.604 121.245 169.553C121.2 169.502 121.166 169.442 121.146 169.376C121.126 169.31 121.119 169.241 121.127 169.172C121.14 169.025 121.205 168.888 121.309 168.787C121.413 168.686 121.549 168.629 121.692 168.626H140.642C140.709 168.625 140.776 168.638 140.838 168.666C140.899 168.693 140.954 168.735 140.999 168.786C141.044 168.838 141.077 168.9 141.097 168.966C141.117 169.033 141.123 169.103 141.115 169.172C141.1 169.318 141.034 169.454 140.93 169.553C140.826 169.652 140.691 169.708 140.549 169.711Z" fill="white"/>
<path d="M164.234 169.711H143.894C143.827 169.713 143.76 169.701 143.698 169.674C143.637 169.647 143.581 169.607 143.536 169.556C143.49 169.505 143.456 169.444 143.435 169.378C143.414 169.311 143.407 169.241 143.415 169.172C143.428 169.025 143.493 168.888 143.597 168.787C143.702 168.686 143.838 168.629 143.98 168.626H164.327C164.394 168.625 164.461 168.638 164.523 168.666C164.584 168.693 164.639 168.735 164.684 168.786C164.729 168.838 164.762 168.9 164.782 168.966C164.802 169.033 164.808 169.103 164.799 169.172C164.785 169.318 164.719 169.454 164.615 169.553C164.511 169.652 164.376 169.708 164.234 169.711Z" fill="white"/>
<path d="M133.993 174.511H121.2C121.132 174.512 121.065 174.499 121.004 174.471C120.942 174.443 120.886 174.402 120.841 174.351C120.796 174.299 120.761 174.238 120.741 174.171C120.72 174.105 120.713 174.034 120.721 173.965C120.735 173.818 120.801 173.682 120.905 173.581C121.009 173.481 121.144 173.423 121.286 173.419H134.106C134.173 173.419 134.239 173.433 134.301 173.461C134.362 173.489 134.417 173.53 134.462 173.581C134.507 173.633 134.541 173.694 134.563 173.76C134.584 173.826 134.591 173.896 134.585 173.965C134.57 174.116 134.501 174.256 134.391 174.358C134.281 174.459 134.139 174.513 133.993 174.511Z" fill="white"/>
<path d="M158.356 174.511H137.357C137.29 174.512 137.223 174.499 137.161 174.471C137.099 174.443 137.044 174.402 136.999 174.351C136.953 174.299 136.919 174.238 136.898 174.171C136.878 174.105 136.871 174.034 136.879 173.965C136.893 173.817 136.959 173.68 137.065 173.579C137.17 173.478 137.307 173.421 137.45 173.419H158.442C158.51 173.417 158.576 173.431 158.638 173.459C158.7 173.486 158.756 173.527 158.801 173.579C158.846 173.631 158.88 173.692 158.901 173.758C158.922 173.825 158.929 173.895 158.921 173.965C158.908 174.112 158.843 174.249 158.739 174.35C158.635 174.451 158.498 174.508 158.356 174.511Z" fill="white"/>
<path d="M154.965 179.303H120.794C120.727 179.306 120.66 179.293 120.598 179.266C120.536 179.24 120.481 179.199 120.435 179.148C120.39 179.097 120.356 179.036 120.335 178.97C120.314 178.904 120.307 178.834 120.315 178.764C120.33 178.617 120.396 178.479 120.501 178.379C120.607 178.278 120.744 178.221 120.887 178.219H155.058C155.125 178.218 155.191 178.232 155.253 178.26C155.314 178.288 155.369 178.329 155.414 178.381C155.459 178.432 155.493 178.493 155.514 178.559C155.536 178.625 155.543 178.695 155.537 178.764C155.521 178.911 155.454 179.047 155.348 179.146C155.243 179.245 155.107 179.301 154.965 179.303Z" fill="white"/>
<path d="M160.59 179.304H158.336C158.269 179.306 158.203 179.293 158.141 179.267C158.079 179.24 158.023 179.199 157.978 179.148C157.932 179.097 157.898 179.036 157.877 178.97C157.857 178.904 157.85 178.834 157.858 178.765C157.871 178.617 157.936 178.48 158.04 178.379C158.144 178.279 158.28 178.221 158.423 178.219H160.684C160.751 178.217 160.817 178.231 160.879 178.258C160.94 178.286 160.995 178.327 161.04 178.379C161.085 178.431 161.119 178.492 161.139 178.559C161.158 178.625 161.164 178.695 161.156 178.765C161.141 178.911 161.076 179.046 160.971 179.145C160.867 179.245 160.732 179.301 160.59 179.304Z" fill="white"/>
<path d="M136.34 184.103H120.382C120.315 184.104 120.249 184.089 120.187 184.061C120.126 184.033 120.071 183.992 120.026 183.941C119.981 183.889 119.946 183.829 119.925 183.763C119.904 183.696 119.897 183.627 119.903 183.557C119.918 183.409 119.984 183.272 120.089 183.172C120.195 183.071 120.332 183.014 120.475 183.011H136.433C136.501 183.01 136.568 183.023 136.629 183.051C136.691 183.079 136.747 183.12 136.792 183.171C136.837 183.223 136.872 183.284 136.892 183.351C136.913 183.417 136.92 183.488 136.912 183.557C136.898 183.705 136.831 183.842 136.726 183.943C136.621 184.044 136.483 184.101 136.34 184.103Z" fill="white"/>
<path d="M159.553 184.103H139.685C139.618 184.104 139.551 184.089 139.49 184.061C139.429 184.033 139.374 183.992 139.329 183.941C139.283 183.889 139.249 183.829 139.228 183.763C139.207 183.696 139.199 183.627 139.206 183.557C139.22 183.409 139.287 183.272 139.392 183.172C139.497 183.071 139.635 183.014 139.778 183.011H159.639C159.707 183.01 159.773 183.023 159.835 183.051C159.897 183.079 159.953 183.12 159.998 183.171C160.043 183.223 160.077 183.284 160.098 183.351C160.119 183.417 160.126 183.488 160.118 183.557C160.104 183.704 160.038 183.84 159.934 183.941C159.83 184.041 159.695 184.099 159.553 184.103Z" fill="white"/>
<path d="M139.632 188.896H119.983C119.916 188.898 119.849 188.884 119.788 188.856C119.726 188.829 119.671 188.788 119.626 188.736C119.581 188.684 119.548 188.623 119.528 188.556C119.508 188.489 119.502 188.419 119.511 188.35C119.525 188.204 119.591 188.069 119.695 187.969C119.799 187.87 119.935 187.814 120.076 187.811H139.718C139.785 187.809 139.852 187.821 139.914 187.848C139.975 187.875 140.031 187.915 140.076 187.966C140.122 188.018 140.156 188.078 140.177 188.145C140.198 188.211 140.205 188.281 140.197 188.35C140.184 188.497 140.119 188.635 140.015 188.735C139.91 188.836 139.774 188.893 139.632 188.896Z" fill="white"/>
<path d="M158.795 188.896H142.97C142.903 188.898 142.836 188.884 142.774 188.856C142.713 188.829 142.658 188.788 142.613 188.736C142.568 188.684 142.535 188.623 142.515 188.556C142.495 188.489 142.489 188.419 142.498 188.35C142.512 188.204 142.578 188.069 142.682 187.969C142.786 187.87 142.921 187.814 143.063 187.811H158.888C158.955 187.809 159.022 187.821 159.084 187.848C159.146 187.875 159.201 187.915 159.247 187.966C159.292 188.018 159.326 188.078 159.347 188.145C159.368 188.211 159.375 188.281 159.367 188.35C159.352 188.498 159.286 188.635 159.181 188.736C159.075 188.836 158.938 188.893 158.795 188.896Z" fill="white"/>
<path d="M187.946 111.934C187.888 112.003 187.817 112.059 187.739 112.1C187.66 112.14 187.574 112.164 187.486 112.17C187.398 112.176 187.31 112.163 187.227 112.133C187.144 112.104 187.067 112.057 187.001 111.996L159.786 85.0209C159.662 84.8915 159.592 84.7165 159.592 84.534C159.592 84.3516 159.662 84.1765 159.786 84.0471C159.843 83.9782 159.914 83.9218 159.993 83.8813C160.072 83.8408 160.157 83.817 160.245 83.8112C160.333 83.8054 160.421 83.8178 160.504 83.8476C160.588 83.8775 160.664 83.9242 160.73 83.985L187.946 110.96C188.069 111.09 188.139 111.265 188.139 111.447C188.139 111.63 188.069 111.805 187.946 111.934Z" fill="#407BFF"/>
<path d="M157.379 111.927C157.325 111.854 157.285 111.77 157.263 111.68C157.241 111.591 157.236 111.497 157.249 111.406C157.262 111.314 157.292 111.227 157.339 111.148C157.385 111.069 157.446 111 157.518 110.946L171.402 99.1576C171.534 99.039 171.706 98.9791 171.88 98.9907C172.054 99.0023 172.217 99.0846 172.333 99.2197C172.386 99.2929 172.425 99.3764 172.446 99.4652C172.468 99.554 172.473 99.6464 172.46 99.737C172.447 99.8276 172.417 99.9147 172.371 99.993C172.325 100.071 172.265 100.14 172.194 100.194L158.31 111.989C158.178 112.108 158.006 112.168 157.832 112.156C157.658 112.144 157.495 112.062 157.379 111.927Z" fill="#407BFF"/>
<path d="M175.318 96.6851C175.265 96.612 175.227 96.5285 175.205 96.4397C175.183 96.3509 175.179 96.2585 175.192 96.1679C175.205 96.0773 175.235 95.9902 175.281 95.9118C175.326 95.8335 175.387 95.7653 175.458 95.7114L189.368 83.902C189.5 83.7834 189.672 83.7234 189.846 83.7351C190.02 83.7467 190.183 83.829 190.299 83.9641C190.352 84.0373 190.391 84.1207 190.413 84.2095C190.434 84.2983 190.439 84.3908 190.426 84.4814C190.413 84.572 190.383 84.6591 190.337 84.7374C190.291 84.8158 190.231 84.8839 190.16 84.9379L176.249 96.7473C176.117 96.8659 175.946 96.9258 175.772 96.9142C175.597 96.9026 175.435 96.8203 175.318 96.6851Z" fill="#407BFF"/>
<g opacity="0.7">
<path opacity="0.7" d="M187.946 111.934C187.888 112.003 187.817 112.059 187.739 112.1C187.66 112.14 187.574 112.164 187.486 112.17C187.398 112.176 187.31 112.163 187.227 112.133C187.144 112.104 187.067 112.057 187.001 111.996L159.786 85.0209C159.662 84.8915 159.592 84.7165 159.592 84.534C159.592 84.3516 159.662 84.1765 159.786 84.0471C159.843 83.9782 159.914 83.9218 159.993 83.8813C160.072 83.8408 160.157 83.817 160.245 83.8112C160.333 83.8054 160.421 83.8178 160.504 83.8476C160.588 83.8775 160.664 83.9242 160.73 83.985L187.946 110.96C188.069 111.09 188.139 111.265 188.139 111.447C188.139 111.63 188.069 111.805 187.946 111.934Z" fill="white"/>
</g>
<g opacity="0.7">
<path opacity="0.7" d="M157.379 111.927C157.325 111.854 157.285 111.77 157.263 111.68C157.241 111.591 157.236 111.497 157.249 111.406C157.262 111.314 157.292 111.227 157.339 111.148C157.385 111.069 157.446 111 157.518 110.946L171.402 99.1576C171.534 99.039 171.706 98.9791 171.88 98.9907C172.054 99.0023 172.217 99.0846 172.333 99.2197C172.386 99.2929 172.425 99.3764 172.446 99.4652C172.468 99.554 172.473 99.6464 172.46 99.737C172.447 99.8276 172.417 99.9147 172.371 99.993C172.325 100.071 172.265 100.14 172.194 100.194L158.31 111.989C158.178 112.108 158.006 112.168 157.832 112.156C157.658 112.144 157.495 112.062 157.379 111.927Z" fill="white"/>
</g>
<g opacity="0.7">
<path opacity="0.7" d="M175.318 96.6851C175.265 96.612 175.227 96.5285 175.205 96.4397C175.183 96.3509 175.179 96.2585 175.192 96.1679C175.205 96.0773 175.235 95.9902 175.281 95.9118C175.326 95.8335 175.387 95.7653 175.458 95.7114L189.368 83.902C189.5 83.7834 189.672 83.7234 189.846 83.7351C190.02 83.7467 190.183 83.829 190.299 83.9641C190.352 84.0373 190.391 84.1207 190.413 84.2095C190.434 84.2983 190.439 84.3908 190.426 84.4814C190.413 84.572 190.383 84.6591 190.337 84.7374C190.291 84.8158 190.231 84.8839 190.16 84.9379L176.249 96.7473C176.117 96.8659 175.946 96.9258 175.772 96.9142C175.597 96.9026 175.435 96.8203 175.318 96.6851Z" fill="white"/>
</g>
<path d="M110.547 41.326H101.903C101.066 41.3296 100.264 41.6776 99.6738 42.2937C99.0831 42.9098 98.7515 43.7438 98.7515 44.6133V53.5912C98.7515 54.463 99.0849 55.2992 99.6785 55.9157C100.272 56.5321 101.077 56.8785 101.917 56.8785H110.561C111.4 56.8785 112.205 56.5321 112.799 55.9157C113.392 55.2992 113.726 54.463 113.726 53.5912V44.6133C113.726 44.1804 113.643 43.7518 113.484 43.3521C113.324 42.9523 113.089 42.5893 112.794 42.2839C112.499 41.9785 112.148 41.7366 111.763 41.5722C111.377 41.4078 110.964 41.3241 110.547 41.326ZM106.245 44.5028C107.542 44.5028 108.24 45.6008 108.24 46.9475C108.24 48.2942 107.542 49.3923 106.245 49.3923C104.949 49.3923 104.25 48.3011 104.25 46.9475C104.25 45.5939 104.942 44.5028 106.245 44.5028ZM111.438 53.6672H101.045C101.004 53.6673 100.962 53.6588 100.923 53.6422C100.884 53.6256 100.849 53.6012 100.819 53.5705L101.484 51.6851C101.692 51.0905 102.071 50.5767 102.569 50.2135C103.067 49.8502 103.662 49.6551 104.27 49.6547H108.2C108.81 49.6547 109.405 49.8495 109.905 50.2127C110.404 50.576 110.784 51.09 110.993 51.6851L111.658 53.5705C111.629 53.601 111.595 53.6253 111.558 53.6419C111.52 53.6585 111.479 53.6671 111.438 53.6672Z" fill="#407BFF"/>
<path opacity="0.7" d="M110.547 41.326H101.903C101.066 41.3296 100.264 41.6776 99.6738 42.2937C99.0831 42.9098 98.7515 43.7438 98.7515 44.6133V53.5912C98.7515 54.463 99.0849 55.2992 99.6785 55.9157C100.272 56.5321 101.077 56.8785 101.917 56.8785H110.561C111.4 56.8785 112.205 56.5321 112.799 55.9157C113.392 55.2992 113.726 54.463 113.726 53.5912V44.6133C113.726 44.1804 113.643 43.7518 113.484 43.3521C113.324 42.9523 113.089 42.5893 112.794 42.2839C112.499 41.9785 112.148 41.7366 111.763 41.5722C111.377 41.4078 110.964 41.3241 110.547 41.326ZM106.245 44.5028C107.542 44.5028 108.24 45.6008 108.24 46.9475C108.24 48.2942 107.542 49.3923 106.245 49.3923C104.949 49.3923 104.25 48.3011 104.25 46.9475C104.25 45.5939 104.942 44.5028 106.245 44.5028ZM111.438 53.6672H101.045C101.004 53.6673 100.962 53.6588 100.923 53.6422C100.884 53.6256 100.849 53.6012 100.819 53.5705L101.484 51.6851C101.692 51.0905 102.071 50.5767 102.569 50.2135C103.067 49.8502 103.662 49.6551 104.27 49.6547H108.2C108.81 49.6547 109.405 49.8495 109.905 50.2127C110.404 50.576 110.784 51.09 110.993 51.6851L111.658 53.5705C111.629 53.601 111.595 53.6253 111.558 53.6419C111.52 53.6585 111.479 53.6671 111.438 53.6672Z" fill="white"/>
<path d="M79.9072 78.1216H73.3643C72.8049 78.1207 72.2508 78.2343 71.7337 78.456C71.2166 78.6778 70.7467 79.0032 70.3508 79.4137C69.955 79.8242 69.6409 80.3118 69.4266 80.8485C69.2123 81.3852 69.1021 81.9605 69.1021 82.5415V89.3371C69.1021 90.5111 69.5511 91.6371 70.3504 92.4673C71.1497 93.2975 72.2339 93.7639 73.3643 93.7639H79.9072C80.4666 93.7639 81.0206 93.6493 81.5373 93.4268C82.0541 93.2042 82.5235 92.8781 82.9187 92.4669C83.314 92.0557 83.6273 91.5677 83.8408 91.0306C84.0543 90.4936 84.1637 89.9181 84.1628 89.3371V82.5415C84.1637 81.9608 84.0542 81.3857 83.8407 80.849C83.6271 80.3123 83.3137 79.8247 82.9183 79.4141C82.523 79.0035 82.0535 78.678 81.5368 78.4562C81.0201 78.2344 80.4663 78.1207 79.9072 78.1216ZM76.6358 89.6479C76.6358 89.6479 73.976 86.6161 73.976 85.0691C73.976 84.3282 74.2594 83.6177 74.7638 83.0938C75.2682 82.5699 75.9523 82.2756 76.6657 82.2756C77.379 82.2756 78.0631 82.5699 78.5676 83.0938C79.072 83.6177 79.3553 84.3282 79.3553 85.0691C79.3221 86.6161 76.6358 89.6479 76.6358 89.6479Z" fill="#407BFF"/>
<path d="M76.6357 83.7984C76.3918 83.797 76.1531 83.8709 75.9498 84.0108C75.7465 84.1507 75.5878 84.3501 75.4938 84.5839C75.3999 84.8176 75.375 85.0751 75.4222 85.3235C75.4695 85.572 75.5868 85.8003 75.7592 85.9794C75.9317 86.1585 76.1515 86.2803 76.3907 86.3294C76.6299 86.3785 76.8778 86.3526 77.1029 86.255C77.3279 86.1575 77.52 85.9926 77.6546 85.7815C77.7893 85.5703 77.8605 85.3224 77.8592 85.0691C77.8592 84.7321 77.7303 84.4089 77.5008 84.1705C77.2714 83.9322 76.9602 83.7984 76.6357 83.7984Z" fill="#407BFF"/>
<g opacity="0.7">
<path opacity="0.7" d="M79.9072 78.1216H73.3643C72.8049 78.1207 72.2508 78.2343 71.7337 78.456C71.2166 78.6778 70.7467 79.0032 70.3508 79.4137C69.955 79.8242 69.6409 80.3118 69.4266 80.8485C69.2123 81.3852 69.1021 81.9605 69.1021 82.5415V89.3371C69.1021 90.5111 69.5511 91.6371 70.3504 92.4673C71.1497 93.2975 72.2339 93.7639 73.3643 93.7639H79.9072C80.4666 93.7639 81.0206 93.6493 81.5373 93.4268C82.0541 93.2042 82.5235 92.8781 82.9187 92.4669C83.314 92.0557 83.6273 91.5677 83.8408 91.0306C84.0543 90.4936 84.1637 89.9181 84.1628 89.3371V82.5415C84.1637 81.9608 84.0542 81.3857 83.8407 80.849C83.6271 80.3123 83.3137 79.8247 82.9183 79.4141C82.523 79.0035 82.0535 78.678 81.5368 78.4562C81.0201 78.2344 80.4663 78.1207 79.9072 78.1216ZM76.6358 89.6479C76.6358 89.6479 73.976 86.6161 73.976 85.0691C73.976 84.3282 74.2594 83.6177 74.7638 83.0938C75.2682 82.5699 75.9523 82.2756 76.6657 82.2756C77.379 82.2756 78.0631 82.5699 78.5676 83.0938C79.072 83.6177 79.3553 84.3282 79.3553 85.0691C79.3221 86.6161 76.6358 89.6479 76.6358 89.6479Z" fill="white"/>
<path opacity="0.7" d="M76.6357 83.7984C76.3918 83.797 76.1531 83.8709 75.9498 84.0108C75.7465 84.1507 75.5878 84.3501 75.4938 84.5839C75.3999 84.8176 75.375 85.0751 75.4222 85.3235C75.4695 85.572 75.5868 85.8003 75.7592 85.9794C75.9317 86.1585 76.1515 86.2803 76.3907 86.3294C76.6299 86.3785 76.8778 86.3526 77.1029 86.255C77.3279 86.1575 77.52 85.9926 77.6546 85.7815C77.7893 85.5703 77.8605 85.3224 77.8592 85.0691C77.8592 84.7321 77.7303 84.4089 77.5008 84.1705C77.2714 83.9322 76.9602 83.7984 76.6357 83.7984Z" fill="white"/>
</g>
<path d="M223.56 58.8606L227.941 55.9186L223.56 52.9697V58.8606Z" fill="#407BFF"/>
<path d="M229.205 47.8867H220.853C219.91 47.8867 219.005 48.276 218.338 48.9689C217.671 49.6618 217.296 50.6016 217.296 51.5815V60.2555C217.298 61.2349 217.673 62.1736 218.34 62.8661C219.007 63.5586 219.91 63.9485 220.853 63.9503H229.205C230.148 63.9503 231.053 63.561 231.72 62.8681C232.387 62.1752 232.762 61.2355 232.762 60.2555V51.5815C232.763 51.096 232.672 50.6152 232.493 50.1665C232.315 49.7178 232.053 49.3101 231.722 48.9669C231.392 48.6236 230.999 48.3515 230.567 48.1661C230.135 47.9808 229.672 47.8858 229.205 47.8867ZM225.029 61.6989C223.928 61.6989 222.852 61.3597 221.936 60.7243C221.021 60.0888 220.308 59.1856 219.887 58.129C219.466 57.0723 219.356 55.9098 219.571 54.7883C219.786 53.6668 220.317 52.6368 221.096 51.8287C221.875 51.0206 222.867 50.4706 223.947 50.2483C225.027 50.0261 226.147 50.1415 227.164 50.5801C228.18 51.0187 229.049 51.7606 229.66 52.7121C230.271 53.6636 230.596 54.7819 230.595 55.9254C230.594 56.6836 230.449 57.4342 230.169 58.1343C229.889 58.8344 229.479 59.4704 228.962 60.0059C228.445 60.5414 227.832 60.9659 227.157 61.2552C226.482 61.5445 225.759 61.6929 225.029 61.692V61.6989Z" fill="#407BFF"/>
<g opacity="0.7">
<path opacity="0.7" d="M223.56 58.8604L227.941 55.9184L223.56 52.9695V58.8604Z" fill="white"/>
<path opacity="0.7" d="M229.205 47.8867H220.853C219.91 47.8867 219.005 48.276 218.338 48.9689C217.671 49.6618 217.296 50.6016 217.296 51.5815V60.2555C217.298 61.2349 217.673 62.1736 218.34 62.8661C219.007 63.5586 219.91 63.9485 220.853 63.9503H229.205C230.148 63.9503 231.053 63.561 231.72 62.8681C232.387 62.1752 232.762 61.2355 232.762 60.2555V51.5815C232.763 51.096 232.672 50.6152 232.493 50.1665C232.315 49.7178 232.053 49.3101 231.722 48.9669C231.392 48.6236 230.999 48.3515 230.567 48.1661C230.135 47.9808 229.672 47.8858 229.205 47.8867ZM225.029 61.6989C223.928 61.6989 222.852 61.3597 221.936 60.7243C221.021 60.0888 220.308 59.1856 219.887 58.129C219.466 57.0723 219.356 55.9098 219.571 54.7883C219.786 53.6668 220.317 52.6368 221.096 51.8287C221.875 51.0206 222.867 50.4706 223.947 50.2483C225.027 50.0261 226.147 50.1415 227.164 50.5801C228.18 51.0187 229.049 51.7606 229.66 52.7121C230.271 53.6636 230.596 54.7819 230.595 55.9254C230.594 56.6836 230.449 57.4342 230.169 58.1343C229.889 58.8344 229.479 59.4704 228.962 60.0059C228.445 60.5414 227.832 60.9659 227.157 61.2552C226.482 61.5445 225.759 61.6929 225.029 61.692V61.6989Z" fill="white"/>
</g>
<path d="M237.404 81.1535C237.404 80.9739 237.404 80.7944 237.404 80.6217L238.408 80.0416C238.335 79.5478 238.21 79.0638 238.035 78.5982H236.892C236.746 78.274 236.573 77.9643 236.373 77.6728L236.965 76.6576C236.662 76.2679 236.321 75.9115 235.948 75.5941L234.963 76.2087C234.684 76.0051 234.388 75.8272 234.079 75.677V74.4822C233.629 74.3057 233.164 74.1761 232.689 74.0955L232.131 75.1383C231.965 75.1383 231.792 75.1383 231.619 75.1383C231.446 75.1383 231.28 75.1383 231.107 75.1383L230.548 74.0955C230.074 74.1779 229.609 74.3074 229.159 74.4822V75.677C228.849 75.8257 228.553 76.0037 228.274 76.2087L227.29 75.5941C226.913 75.9096 226.57 76.2661 226.266 76.6576L226.858 77.6728C226.663 77.966 226.492 78.2756 226.346 78.5982H225.202C225.029 79.0646 224.902 79.5483 224.823 80.0416L225.827 80.6217C225.827 80.7944 225.827 80.9739 225.827 81.1535C225.827 81.333 225.827 81.5126 225.827 81.6853L224.823 82.2654C224.901 82.7589 225.028 83.2426 225.202 83.7087H226.346C226.492 84.0314 226.663 84.3409 226.858 84.6342L226.266 85.6563C226.572 86.0439 226.915 86.398 227.29 86.7129L228.274 86.0983C228.551 86.3058 228.847 86.484 229.159 86.63V87.8248C229.608 88.0028 230.074 88.1324 230.548 88.2115L231.107 87.1687C231.28 87.1687 231.446 87.1687 231.619 87.1687C231.792 87.1687 231.965 87.1687 232.131 87.1687L232.689 88.2115C233.165 88.1341 233.63 88.0045 234.079 87.8248V86.63C234.39 86.4824 234.686 86.3044 234.963 86.0983L235.948 86.7129C236.319 86.3961 236.66 86.0422 236.965 85.6563L236.373 84.6342C236.573 84.3427 236.746 84.033 236.892 83.7087H238.035C238.211 83.2434 238.336 82.7593 238.408 82.2654L237.404 81.6853C237.39 81.4919 237.404 81.333 237.404 81.1535ZM231.606 85.2419C230.827 85.2419 230.066 85.0021 229.419 84.5529C228.771 84.1036 228.267 83.4651 227.969 82.7181C227.671 81.971 227.593 81.149 227.745 80.3559C227.897 79.5628 228.272 78.8343 228.822 78.2626C229.373 77.6908 230.074 77.3014 230.838 77.1436C231.601 76.9859 232.393 77.0669 233.112 77.3763C233.831 77.6857 234.446 78.2098 234.879 78.8821C235.311 79.5544 235.542 80.3449 235.542 81.1535C235.542 82.2378 235.127 83.2777 234.389 84.0444C233.651 84.8112 232.65 85.2419 231.606 85.2419Z" fill="#407BFF"/>
<path opacity="0.7" d="M237.404 81.1535C237.404 80.9739 237.404 80.7944 237.404 80.6217L238.408 80.0416C238.335 79.5478 238.21 79.0638 238.035 78.5982H236.892C236.746 78.274 236.573 77.9643 236.373 77.6728L236.965 76.6576C236.662 76.2679 236.321 75.9115 235.948 75.5941L234.963 76.2087C234.684 76.0051 234.388 75.8272 234.079 75.677V74.4822C233.629 74.3057 233.164 74.1761 232.689 74.0955L232.131 75.1383C231.965 75.1383 231.792 75.1383 231.619 75.1383C231.446 75.1383 231.28 75.1383 231.107 75.1383L230.548 74.0955C230.074 74.1779 229.609 74.3074 229.159 74.4822V75.677C228.849 75.8257 228.553 76.0037 228.274 76.2087L227.29 75.5941C226.913 75.9096 226.57 76.2661 226.266 76.6576L226.858 77.6728C226.663 77.966 226.492 78.2756 226.346 78.5982H225.202C225.029 79.0646 224.902 79.5483 224.823 80.0416L225.827 80.6217C225.827 80.7944 225.827 80.9739 225.827 81.1535C225.827 81.333 225.827 81.5126 225.827 81.6853L224.823 82.2654C224.901 82.7589 225.028 83.2426 225.202 83.7087H226.346C226.492 84.0314 226.663 84.3409 226.858 84.6342L226.266 85.6563C226.572 86.0439 226.915 86.398 227.29 86.7129L228.274 86.0983C228.551 86.3058 228.847 86.484 229.159 86.63V87.8248C229.608 88.0028 230.074 88.1324 230.548 88.2115L231.107 87.1687C231.28 87.1687 231.446 87.1687 231.619 87.1687C231.792 87.1687 231.965 87.1687 232.131 87.1687L232.689 88.2115C233.165 88.1341 233.63 88.0045 234.079 87.8248V86.63C234.39 86.4824 234.686 86.3044 234.963 86.0983L235.948 86.7129C236.319 86.3961 236.66 86.0422 236.965 85.6563L236.373 84.6342C236.573 84.3427 236.746 84.033 236.892 83.7087H238.035C238.211 83.2434 238.336 82.7593 238.408 82.2654L237.404 81.6853C237.39 81.4919 237.404 81.333 237.404 81.1535ZM231.606 85.2419C230.827 85.2419 230.066 85.0021 229.419 84.5529C228.771 84.1036 228.267 83.4651 227.969 82.7181C227.671 81.971 227.593 81.149 227.745 80.3559C227.897 79.5628 228.272 78.8343 228.822 78.2626C229.373 77.6908 230.074 77.3014 230.838 77.1436C231.601 76.9859 232.393 77.0669 233.112 77.3763C233.831 77.6857 234.446 78.2098 234.879 78.8821C235.311 79.5544 235.542 80.3449 235.542 81.1535C235.542 82.2378 235.127 83.2777 234.389 84.0444C233.651 84.8112 232.65 85.2419 231.606 85.2419Z" fill="white"/>
<path d="M222.25 101.685C222.25 101.416 222.25 101.154 222.217 100.891L223.719 100.028C223.606 99.2868 223.419 98.56 223.161 97.8593L221.445 97.8938C221.229 97.4103 220.97 96.948 220.674 96.5126L221.558 94.9864C221.105 94.4054 220.595 93.8753 220.036 93.4049L218.566 94.3165C218.145 94.0133 217.7 93.7476 217.236 93.5223V91.7405C216.564 91.4714 215.867 91.277 215.155 91.1604L214.324 92.7212C214.071 92.7212 213.818 92.7212 213.559 92.7212C213.3 92.7212 213.047 92.7212 212.794 92.7212L211.983 91.1604C211.272 91.2787 210.575 91.4731 209.902 91.7405V93.5223C209.438 93.7472 208.993 94.0129 208.572 94.3165L207.136 93.4049C206.574 93.8752 206.062 94.4053 205.607 94.9864L206.491 96.5126C206.197 96.9482 205.941 97.4105 205.726 97.8938L204.011 97.8593C203.749 98.559 203.562 99.2861 203.452 100.028L204.955 100.891C204.902 101.419 204.902 101.951 204.955 102.479L203.452 103.35C203.563 104.089 203.75 104.814 204.011 105.511L205.726 105.477C205.939 105.961 206.195 106.423 206.491 106.858L205.607 108.384C206.062 108.965 206.574 109.495 207.136 109.966L208.605 109.054C209.025 109.36 209.47 109.626 209.935 109.848V111.63C210.607 111.901 211.305 112.095 212.017 112.21L212.854 110.649C213.363 110.705 213.875 110.705 214.384 110.649L215.215 112.21C215.927 112.097 216.625 111.902 217.296 111.63V109.848C217.761 109.626 218.207 109.36 218.626 109.054L220.095 109.966C220.655 109.495 221.165 108.965 221.618 108.384L220.734 106.858C221.032 106.423 221.29 105.961 221.505 105.477L223.221 105.511C223.478 104.813 223.665 104.088 223.779 103.35L222.276 102.479C222.237 102.21 222.25 101.955 222.25 101.685ZM213.606 105.235C212.93 105.235 212.269 105.027 211.707 104.637C211.145 104.247 210.707 103.692 210.448 103.044C210.189 102.395 210.122 101.681 210.254 100.993C210.385 100.304 210.711 99.6717 211.189 99.1752C211.667 98.6788 212.276 98.3407 212.939 98.2038C213.602 98.0668 214.289 98.1371 214.914 98.4058C215.538 98.6744 216.072 99.1294 216.447 99.7132C216.823 100.297 217.023 100.983 217.023 101.685C217.023 102.153 216.934 102.616 216.761 103.049C216.588 103.481 216.335 103.873 216.015 104.203C215.696 104.533 215.317 104.794 214.9 104.971C214.483 105.148 214.036 105.238 213.586 105.235H213.606Z" fill="#407BFF"/>
<path opacity="0.7" d="M222.25 101.685C222.25 101.416 222.25 101.154 222.217 100.891L223.719 100.028C223.606 99.2868 223.419 98.56 223.161 97.8593L221.445 97.8938C221.229 97.4103 220.97 96.948 220.674 96.5126L221.558 94.9864C221.105 94.4054 220.595 93.8753 220.036 93.4049L218.566 94.3165C218.145 94.0133 217.7 93.7476 217.236 93.5223V91.7405C216.564 91.4714 215.867 91.277 215.155 91.1604L214.324 92.7212C214.071 92.7212 213.818 92.7212 213.559 92.7212C213.3 92.7212 213.047 92.7212 212.794 92.7212L211.983 91.1604C211.272 91.2787 210.575 91.4731 209.902 91.7405V93.5223C209.438 93.7472 208.993 94.0129 208.572 94.3165L207.136 93.4049C206.574 93.8752 206.062 94.4053 205.607 94.9864L206.491 96.5126C206.197 96.9482 205.941 97.4105 205.726 97.8938L204.011 97.8593C203.749 98.559 203.562 99.2861 203.452 100.028L204.955 100.891C204.902 101.419 204.902 101.951 204.955 102.479L203.452 103.35C203.563 104.089 203.75 104.814 204.011 105.511L205.726 105.477C205.939 105.961 206.195 106.423 206.491 106.858L205.607 108.384C206.062 108.965 206.574 109.495 207.136 109.966L208.605 109.054C209.025 109.36 209.47 109.626 209.935 109.848V111.63C210.607 111.901 211.305 112.095 212.017 112.21L212.854 110.649C213.363 110.705 213.875 110.705 214.384 110.649L215.215 112.21C215.927 112.097 216.625 111.902 217.296 111.63V109.848C217.761 109.626 218.207 109.36 218.626 109.054L220.095 109.966C220.655 109.495 221.165 108.965 221.618 108.384L220.734 106.858C221.032 106.423 221.29 105.961 221.505 105.477L223.221 105.511C223.478 104.813 223.665 104.088 223.779 103.35L222.276 102.479C222.237 102.21 222.25 101.955 222.25 101.685ZM213.606 105.235C212.93 105.235 212.269 105.027 211.707 104.637C211.145 104.247 210.707 103.692 210.448 103.044C210.189 102.395 210.122 101.681 210.254 100.993C210.385 100.304 210.711 99.6717 211.189 99.1752C211.667 98.6788 212.276 98.3407 212.939 98.2038C213.602 98.0668 214.289 98.1371 214.914 98.4058C215.538 98.6744 216.072 99.1294 216.447 99.7132C216.823 100.297 217.023 100.983 217.023 101.685C217.023 102.153 216.934 102.616 216.761 103.049C216.588 103.481 216.335 103.873 216.015 104.203C215.696 104.533 215.317 104.794 214.9 104.971C214.483 105.148 214.036 105.238 213.586 105.235H213.606Z" fill="white"/>
<path d="M197.827 61.6438V65.2626L194.502 67.0789C194.373 67.1509 194.265 67.258 194.189 67.3887C194.114 67.5195 194.074 67.6689 194.074 67.8213C194.074 67.9736 194.114 68.1231 194.189 68.2538C194.265 68.3846 194.373 68.4917 194.502 68.5637L197.827 70.38V73.9988C197.827 74.3852 197.974 74.7559 198.237 75.0292C198.501 75.3024 198.857 75.456 199.23 75.456H211.125C211.498 75.456 211.855 75.3027 212.12 75.0296C212.384 74.7565 212.533 74.3859 212.535 73.9988V61.6438C212.535 61.2555 212.386 60.8831 212.122 60.6085C211.858 60.3339 211.499 60.1797 211.125 60.1797H199.21C198.84 60.1851 198.487 60.342 198.228 60.6162C197.969 60.8904 197.825 61.2597 197.827 61.6438Z" fill="#407BFF"/>
<g opacity="0.9">
<path opacity="0.9" d="M201.896 65.4145H208.658C208.879 65.4145 209.09 65.3236 209.246 65.1617C209.402 64.9998 209.49 64.7802 209.49 64.5512C209.49 64.3223 209.402 64.1027 209.246 63.9408C209.09 63.7789 208.879 63.688 208.658 63.688H201.896C201.676 63.688 201.464 63.7789 201.308 63.9408C201.153 64.1027 201.065 64.3223 201.065 64.5512C201.065 64.7802 201.153 64.9998 201.308 65.1617C201.464 65.3236 201.676 65.4145 201.896 65.4145Z" fill="white"/>
<path opacity="0.9" d="M208.658 66.989H201.896C201.676 66.989 201.464 67.08 201.308 67.2419C201.153 67.4038 201.065 67.6233 201.065 67.8523C201.065 68.0812 201.153 68.3008 201.308 68.4627C201.464 68.6246 201.676 68.7155 201.896 68.7155H208.658C208.879 68.7155 209.09 68.6246 209.246 68.4627C209.402 68.3008 209.49 68.0812 209.49 67.8523C209.49 67.6233 209.402 67.4038 209.246 67.2419C209.09 67.08 208.879 66.989 208.658 66.989Z" fill="white"/>
<path opacity="0.9" d="M208.658 70.228H201.896C201.676 70.228 201.464 70.319 201.308 70.4809C201.153 70.6428 201.065 70.8623 201.065 71.0913C201.065 71.3202 201.153 71.5398 201.308 71.7017C201.464 71.8636 201.676 71.9546 201.896 71.9546H208.658C208.879 71.9546 209.09 71.8636 209.246 71.7017C209.402 71.5398 209.49 71.3202 209.49 71.0913C209.49 70.8623 209.402 70.6428 209.246 70.4809C209.09 70.319 208.879 70.228 208.658 70.228Z" fill="white"/>
</g>
<path d="M130.602 55.9393H133.441L134.904 58.8192C135 59.0069 135.144 59.1639 135.32 59.2734C135.495 59.3829 135.696 59.4407 135.901 59.4407C136.106 59.4407 136.307 59.3829 136.483 59.2734C136.659 59.1639 136.802 59.0069 136.899 58.8192L138.362 55.9393H141.201C141.47 55.9393 141.737 55.8841 141.986 55.7768C142.235 55.6694 142.461 55.5121 142.651 55.3139C142.842 55.1156 142.992 54.8803 143.095 54.6215C143.197 54.3626 143.25 54.0853 143.249 53.8054V42.8178C143.249 42.2536 143.033 41.7126 142.649 41.3137C142.265 40.9148 141.744 40.6907 141.201 40.6907H130.602C130.333 40.6898 130.066 40.7442 129.817 40.8507C129.568 40.9573 129.342 41.114 129.152 41.3117C128.961 41.5094 128.81 41.7442 128.708 42.0027C128.605 42.2612 128.553 42.5382 128.554 42.8178V53.8675C128.568 54.422 128.789 54.949 129.172 55.336C129.555 55.723 130.068 55.9395 130.602 55.9393Z" fill="#407BFF"/>
<path opacity="0.9" d="M135.908 43.9849L132.636 45.9738V51.7888H135.07V47.8868H136.752V51.7888H139.186V45.9738L135.908 43.9849Z" fill="white"/>
<path d="M162.452 213.944H159.925L158.296 210.726C158.215 210.57 158.095 210.44 157.949 210.349C157.803 210.258 157.635 210.21 157.465 210.21C157.295 210.21 157.127 210.258 156.981 210.349C156.835 210.44 156.715 210.57 156.634 210.726L155.005 213.944H152.412C151.793 213.944 151.199 214.199 150.761 214.654C150.324 215.108 150.078 215.725 150.078 216.368V226.796C150.078 227.439 150.324 228.056 150.761 228.51C151.199 228.965 151.793 229.22 152.412 229.22H162.452C163.071 229.22 163.665 228.965 164.102 228.51C164.54 228.056 164.786 227.439 164.786 226.796V216.368C164.786 215.725 164.54 215.108 164.102 214.654C163.665 214.199 163.071 213.944 162.452 213.944Z" fill="#407BFF"/>
<path opacity="0.9" d="M158.855 217.929C158.367 217.422 157.751 217.07 157.077 216.914C156.404 216.758 155.702 216.804 155.053 217.048C154.405 217.291 153.836 217.721 153.414 218.288C152.992 218.855 152.735 219.535 152.672 220.248C152.608 220.962 152.742 221.679 153.057 222.316C153.372 222.954 153.855 223.485 154.45 223.847C155.045 224.209 155.727 224.388 156.417 224.363C157.106 224.337 157.774 224.108 158.343 223.702C158.37 223.873 158.447 224.032 158.562 224.158L160.823 226.499C160.975 226.658 161.182 226.747 161.398 226.747C161.614 226.747 161.821 226.658 161.973 226.499C162.126 226.341 162.211 226.126 162.211 225.902C162.211 225.678 162.126 225.463 161.973 225.304L159.719 222.963C159.598 222.839 159.442 222.756 159.274 222.728C159.752 222.002 159.971 221.126 159.895 220.25C159.818 219.374 159.451 218.553 158.855 217.929ZM158.083 222.466C157.727 222.835 157.273 223.087 156.779 223.189C156.285 223.291 155.774 223.238 155.308 223.038C154.843 222.837 154.446 222.498 154.166 222.064C153.886 221.629 153.737 221.117 153.737 220.594C153.737 220.071 153.886 219.56 154.166 219.125C154.446 218.69 154.843 218.351 155.308 218.151C155.774 217.951 156.285 217.898 156.779 218C157.273 218.102 157.727 218.353 158.083 218.723C158.32 218.968 158.508 219.26 158.636 219.581C158.764 219.902 158.83 220.247 158.83 220.594C158.83 220.942 158.764 221.286 158.636 221.607C158.508 221.929 158.32 222.22 158.083 222.466Z" fill="white"/>
<path d="M269.833 144.496C269.833 144.496 264.413 158.447 259.107 159.952C253.801 161.458 245.808 160.235 245.808 160.235L243.335 160.926L240.908 160.553H240.821L238.089 160.484C237.99 160.492 237.891 160.471 237.804 160.424C237.716 160.376 237.644 160.303 237.595 160.213C237.546 160.124 237.522 160.022 237.528 159.92C237.533 159.817 237.566 159.718 237.623 159.634L238.601 158.253C238.683 158.14 238.796 158.055 238.926 158.011L241.533 157.141C241.636 157.117 241.743 157.117 241.845 157.141L245.835 157.797C245.835 157.797 256.906 155.912 258.037 154.848C259.167 153.785 262.498 142.632 262.498 142.632L269.833 144.496Z" fill="#EEC1BB"/>
<path opacity="0.1" d="M246.081 157.707L245.822 157.749L241.832 157.093C241.729 157.069 241.623 157.069 241.52 157.093L238.913 157.963C238.783 158.007 238.67 158.091 238.587 158.205L237.61 159.586C237.553 159.67 237.519 159.769 237.514 159.871C237.509 159.974 237.533 160.076 237.582 160.165C237.63 160.254 237.703 160.327 237.79 160.375C237.878 160.423 237.977 160.444 238.075 160.435L240.808 160.504H240.895L242.524 160.753C243.913 160.026 245.129 158.985 246.081 157.707Z" fill="black"/>
<path d="M273.104 130.677C269.168 129.337 263.629 132.411 261.508 145.283L269.68 147.79C269.68 147.79 278.73 132.597 273.104 130.677Z" fill="#407BFF"/>
<path d="M250.204 113.854C250.204 114.283 250.424 114.621 250.69 114.621C250.955 114.621 251.188 114.255 251.168 113.84C251.148 113.426 250.949 113.08 250.683 113.087C250.417 113.094 250.204 113.433 250.204 113.854Z" fill="#263238"/>
<path d="M251.813 114.275L249.878 117.597C249.878 117.597 250.543 118.384 251.999 117.804L251.813 114.275Z" fill="#D4827D"/>
<path d="M252.179 111.188C252.155 111.216 252.125 111.237 252.091 111.249C252.057 111.262 252.021 111.264 251.986 111.257C251.724 111.211 251.456 111.23 251.202 111.313C250.949 111.396 250.718 111.54 250.53 111.734C250.489 111.774 250.436 111.796 250.38 111.796C250.325 111.796 250.271 111.774 250.23 111.734C250.192 111.691 250.171 111.634 250.171 111.575C250.171 111.517 250.192 111.46 250.23 111.416C250.465 111.167 250.755 110.98 251.075 110.873C251.395 110.766 251.735 110.741 252.066 110.801C252.094 110.805 252.121 110.814 252.145 110.828C252.17 110.843 252.192 110.862 252.209 110.885C252.226 110.908 252.239 110.935 252.246 110.963C252.254 110.992 252.256 111.021 252.252 111.05C252.242 111.103 252.216 111.151 252.179 111.188Z" fill="#263238"/>
<path d="M265.85 110.843C266.149 116.457 266.395 118.833 264.008 122.024C260.198 125.442 253.708 125.988 251.793 120.58C250.071 115.746 249.871 107.369 254.872 104.475C255.72 103.985 256.653 103.672 257.617 103.556C258.582 103.44 259.559 103.523 260.493 103.799C261.426 104.075 262.299 104.54 263.059 105.167C263.82 105.794 264.454 106.57 264.926 107.452C265.479 108.494 265.795 109.654 265.85 110.843Z" fill="#EEC1BB"/>
<path d="M258.316 123.129L259.686 131.451L266.362 129.849L264.028 121.354L258.316 123.129Z" fill="#EEC1BB"/>
<path d="M253.508 111.257C253.848 107.611 252.637 111.823 251.015 107.01C249.392 102.196 257.059 98.2875 258.283 99.1853C259.506 100.083 258.808 101.457 262.864 102.238C263.971 102.42 264.975 103.015 265.69 103.911C266.405 104.808 266.781 105.943 266.747 107.107C266.747 107.107 269.081 108.225 268.25 113.433C267.64 116.769 266.272 119.906 264.26 122.583C264.26 122.583 262.724 120.939 260.271 122.452C259.313 121.803 258.503 120.945 257.897 119.938C256.806 118.239 256.467 116.623 254.971 116.485C251.846 116.188 253.395 112.459 253.508 111.257Z" fill="#263238"/>
<path d="M266.315 107.735C266.315 107.735 269.64 105.622 268.164 103.405C266.688 101.188 267.399 105.85 266.315 107.735Z" fill="#263238"/>
<path d="M254.46 113.377C253.722 114.234 253.342 115.359 253.402 116.506C253.495 118.025 254.932 118.295 256.062 117.466C257.192 116.637 258.263 115.021 257.611 113.688C257.467 113.397 257.254 113.149 256.993 112.966C256.732 112.782 256.431 112.67 256.117 112.639C255.803 112.608 255.487 112.66 255.198 112.789C254.908 112.918 254.654 113.12 254.46 113.377Z" fill="#FFC3BD"/>
<path opacity="0.1" d="M258.442 123.916L258.988 127.217C258.94 126.4 259.048 125.581 259.306 124.807C259.564 124.033 259.966 123.319 260.49 122.708C260.083 122.735 259.687 122.858 259.332 123.067C258.978 123.276 258.673 123.567 258.442 123.916Z" fill="black"/>
<path d="M211.505 145.38H209.596V157.072H211.505V145.38Z" fill="#407BFF"/>
<path opacity="0.7" d="M211.505 145.38H209.596V157.072H211.505V145.38Z" fill="white"/>
<path d="M198.392 122.162H193.638C192.783 122.162 191.962 122.515 191.358 123.143C190.753 123.771 190.413 124.623 190.413 125.511V148.391C190.413 148.831 190.496 149.267 190.659 149.673C190.821 150.079 191.058 150.449 191.358 150.76C191.657 151.071 192.013 151.317 192.404 151.486C192.795 151.654 193.215 151.741 193.638 151.741H198.392V122.162Z" fill="#407BFF"/>
<path d="M227.47 122.162H195.3C193.519 122.162 192.075 123.661 192.075 125.511V148.384C192.075 150.234 193.519 151.734 195.3 151.734H227.47C229.251 151.734 230.695 150.234 230.695 148.384V125.511C230.695 123.661 229.251 122.162 227.47 122.162Z" fill="#407BFF"/>
<path opacity="0.5" d="M227.47 122.162H195.3C193.519 122.162 192.075 123.661 192.075 125.511V148.384C192.075 150.234 193.519 151.734 195.3 151.734H227.47C229.251 151.734 230.695 150.234 230.695 148.384V125.511C230.695 123.661 229.251 122.162 227.47 122.162Z" fill="white"/>
<path d="M227.47 123.543H195.3C194.254 123.543 193.405 124.424 193.405 125.511V148.384C193.405 149.471 194.254 150.353 195.3 150.353H227.47C228.516 150.353 229.365 149.471 229.365 148.384V125.511C229.365 124.424 228.516 123.543 227.47 123.543Z" fill="#263238"/>
<path d="M203.605 161.976C203.661 160.101 204.418 158.323 205.714 157.017C207.01 155.712 208.745 154.982 210.551 154.982C212.356 154.982 214.091 155.712 215.387 157.017C216.684 158.323 217.44 160.101 217.496 161.976H203.605Z" fill="#407BFF"/>
<path d="M219.996 159.517H206.105V161.858H233.886V160.898L219.996 159.517Z" fill="#407BFF"/>
<path opacity="0.8" d="M219.996 159.517H206.105V161.858H233.886V160.898L219.996 159.517Z" fill="white"/>
<path d="M219.996 161.858H206.105V159.517L219.996 160.898V161.858Z" fill="#407BFF"/>
<path opacity="0.6" d="M219.996 161.858H206.105V159.517L219.996 160.898V161.858Z" fill="white"/>
<path d="M250.623 242.459H221.971C221.399 242.46 220.833 242.344 220.304 242.117C219.776 241.891 219.296 241.558 218.891 241.139C218.487 240.719 218.166 240.221 217.947 239.672C217.728 239.124 217.615 238.536 217.615 237.942V169.517C217.615 168.923 217.728 168.335 217.947 167.787C218.166 167.238 218.487 166.74 218.891 166.321C219.296 165.901 219.776 165.569 220.304 165.342C220.833 165.115 221.399 164.999 221.971 165H250.623C250.931 165 251.227 165.128 251.445 165.354C251.664 165.581 251.786 165.888 251.786 166.209C251.786 166.529 251.664 166.837 251.445 167.063C251.227 167.29 250.931 167.417 250.623 167.417H221.971C221.706 167.413 221.443 167.463 221.197 167.565C220.951 167.667 220.727 167.819 220.538 168.012C220.35 168.205 220.2 168.435 220.097 168.688C219.995 168.942 219.942 169.214 219.943 169.489V237.915C219.942 238.19 219.995 238.462 220.097 238.716C220.2 238.969 220.35 239.199 220.538 239.392C220.727 239.585 220.951 239.737 221.197 239.839C221.443 239.941 221.706 239.991 221.971 239.987H250.623C250.931 239.987 251.227 240.114 251.445 240.341C251.664 240.567 251.786 240.875 251.786 241.195C251.793 241.358 251.769 241.522 251.713 241.675C251.658 241.828 251.574 241.968 251.465 242.086C251.356 242.204 251.225 242.298 251.081 242.362C250.936 242.426 250.78 242.459 250.623 242.459Z" fill="#263238"/>
<g opacity="0.5">
<path opacity="0.5" d="M250.623 242.459H221.971C221.399 242.46 220.833 242.344 220.304 242.117C219.776 241.891 219.296 241.558 218.891 241.139C218.487 240.719 218.166 240.221 217.947 239.672C217.728 239.124 217.615 238.536 217.615 237.942V169.517C217.615 168.923 217.728 168.335 217.947 167.787C218.166 167.238 218.487 166.74 218.891 166.321C219.296 165.901 219.776 165.569 220.304 165.342C220.833 165.115 221.399 164.999 221.971 165H250.623C250.931 165 251.227 165.128 251.445 165.354C251.664 165.581 251.786 165.888 251.786 166.209C251.786 166.529 251.664 166.837 251.445 167.063C251.227 167.29 250.931 167.417 250.623 167.417H221.971C221.706 167.413 221.443 167.463 221.197 167.565C220.951 167.667 220.727 167.819 220.538 168.012C220.35 168.205 220.2 168.435 220.097 168.688C219.995 168.942 219.942 169.214 219.943 169.489V237.915C219.942 238.19 219.995 238.462 220.097 238.716C220.2 238.969 220.35 239.199 220.538 239.392C220.727 239.585 220.951 239.737 221.197 239.839C221.443 239.941 221.706 239.991 221.971 239.987H250.623C250.931 239.987 251.227 240.114 251.445 240.341C251.664 240.567 251.786 240.875 251.786 241.195C251.793 241.358 251.769 241.522 251.713 241.675C251.658 241.828 251.574 241.968 251.465 242.086C251.356 242.204 251.225 242.298 251.081 242.362C250.936 242.426 250.78 242.459 250.623 242.459Z" fill="white"/>
</g>
<path d="M221.858 161.858H181.17V165.401H221.858V161.858Z" fill="#407BFF"/>
<path opacity="0.2" d="M221.858 161.858H181.17V165.401H221.858V161.858Z" fill="white"/>
<path d="M254.699 161.858H219.996V165.401H254.699V161.858Z" fill="#407BFF"/>
<path opacity="0.5" d="M254.699 161.858H219.996V165.401H254.699V161.858Z" fill="white"/>
<path d="M242.53 217.355L244.452 237.535H239.851L235.243 217.88L242.53 217.355Z" fill="#EEC1BB"/>
<path d="M239.418 236.188L245.29 236.292C245.397 236.294 245.5 236.335 245.582 236.406C245.665 236.478 245.721 236.576 245.742 236.686L246.726 241.665C246.768 241.876 246.727 242.096 246.614 242.277C246.501 242.458 246.324 242.585 246.121 242.632H245.955C243.834 242.556 241.965 242.404 239.305 242.355C236.2 242.3 236.978 242.701 233.321 242.694C231.12 242.694 230.761 240.076 231.692 239.966C235.981 239.483 236.446 238.15 238.122 236.589C238.492 236.295 238.954 236.152 239.418 236.188Z" fill="#263238"/>
<path opacity="0.1" d="M243.953 232.266L242.53 217.355L235.243 217.88L238.614 232.266H243.953Z" fill="black"/>
<path d="M274.035 170.829L255.164 171.52C255.164 171.52 229.744 180.753 229.079 187.846C228.348 195.152 236.885 228.723 236.885 228.723H244.472C244.472 228.723 242.378 204.089 241.58 196.547C240.782 189.006 268.038 191.499 272.772 185.069C277.101 179.172 274.035 170.829 274.035 170.829Z" fill="#263238"/>
<path opacity="0.2" d="M274.035 170.829L255.164 171.52C255.164 171.52 229.744 180.753 229.079 187.846C228.348 195.152 236.885 228.723 236.885 228.723H244.472C244.472 228.723 242.378 204.089 241.58 196.547C240.782 189.006 268.038 191.499 272.772 185.069C277.101 179.172 274.035 170.829 274.035 170.829Z" fill="black"/>
<path d="M245.735 227.618L245.902 230.401H236.526L235.608 227.618H245.735Z" fill="#407BFF"/>
<path d="M224.97 218.315L225.475 237.535H220.954L218.274 218.315H224.97Z" fill="#EEC1BB"/>
<path d="M220.328 236.188L226.2 236.292C226.307 236.295 226.41 236.335 226.492 236.406C226.574 236.478 226.631 236.577 226.652 236.686L227.636 241.665C227.677 241.876 227.637 242.096 227.524 242.277C227.411 242.458 227.234 242.585 227.031 242.632H226.864C224.743 242.556 222.875 242.404 220.215 242.356C217.103 242.3 217.888 242.701 214.231 242.694C212.03 242.694 211.671 240.077 212.602 239.966C216.89 239.483 217.356 238.15 219.032 236.589C219.401 236.294 219.863 236.151 220.328 236.188Z" fill="#263238"/>
<path opacity="0.1" d="M225.336 232.252L224.97 218.315H218.274L220.222 232.266C221.678 232.273 223.68 232.259 225.336 232.252Z" fill="black"/>
<path d="M265.83 172.452C265.83 172.452 267.399 187.355 252.804 188.053C238.209 188.75 226.812 190.484 226.479 195.878C226.147 201.271 226.479 228.751 226.479 228.751H218.546C218.546 228.751 215.461 211.375 214.258 200.601C213.087 190.139 210.933 182.549 221.286 179.006C232.277 175.235 251.813 171.755 251.813 171.755L265.883 170.829L265.83 172.452Z" fill="#263238"/>
<path d="M227.649 227.618L227.151 230.401H218.44L217.522 227.618H227.649Z" fill="#407BFF"/>
<path d="M268.975 129.696C268.975 129.696 268.975 126.34 262.439 126.727C255.497 127.141 256.807 130.359 256.807 130.359L268.975 129.696Z" fill="#407BFF"/>
<path opacity="0.3" d="M268.975 129.696C268.975 129.696 268.975 126.34 262.439 126.727C255.497 127.141 256.807 130.359 256.807 130.359L268.975 129.696Z" fill="black"/>
<path d="M275.066 144.752C274.627 151.388 274.78 171.354 274.78 171.354C274.78 171.354 260.816 172.307 249.858 171.934L248.588 133.529C248.593 132.85 248.795 132.188 249.167 131.63C249.539 131.072 250.065 130.644 250.676 130.401C253.774 129.151 261.049 127.735 272.426 129.289C276.349 129.834 275.584 136.906 275.066 144.752Z" fill="#407BFF"/>
<path d="M250.829 144.496C250.829 144.496 245.403 158.447 240.104 159.952C234.804 161.458 226.805 160.235 226.805 160.235L224.332 160.926L221.911 160.553H221.825L219.085 160.484C218.987 160.492 218.888 160.471 218.8 160.424C218.713 160.376 218.64 160.303 218.591 160.213C218.542 160.124 218.519 160.022 218.524 159.92C218.529 159.817 218.562 159.718 218.62 159.634L219.604 158.253C219.686 158.14 219.8 158.055 219.93 158.011L222.53 157.141C222.635 157.117 222.744 157.117 222.849 157.141L226.838 157.797C226.838 157.797 237.909 155.912 239.033 154.848C240.157 153.785 243.502 142.632 243.502 142.632L250.829 144.496Z" fill="#EEC1BB"/>
<path opacity="0.1" d="M250.689 138.004C250.689 138.004 249.845 139.047 248.821 140.553L249.187 151.671C253.263 149.8 254.878 138.902 254.878 138.902L252.219 136.955L250.689 138.004Z" fill="black"/>
<path d="M254.1 130.677C250.164 129.337 244.618 132.411 242.497 145.283L250.676 147.763C250.676 147.763 259.726 132.597 254.1 130.677Z" fill="#407BFF"/>
<path d="M259.307 195.284H253.156V214.006H259.307V195.284Z" fill="#263238"/>
<path opacity="0.6" d="M259.307 195.284H253.156V214.006H259.307V195.284Z" fill="white"/>
<path d="M260.258 230.967V207.183H252.199V230.967L233.853 233.612V236.258L256.228 234.275L278.603 236.258V233.612L260.258 230.967Z" fill="#263238"/>
<path d="M233.587 242.742C234.928 242.742 236.014 241.614 236.014 240.221C236.014 238.829 234.928 237.701 233.587 237.701C232.247 237.701 231.16 238.829 231.16 240.221C231.16 241.614 232.247 242.742 233.587 242.742Z" fill="#407BFF"/>
<path d="M278.603 242.742C279.944 242.742 281.03 241.614 281.03 240.221C281.03 238.829 279.944 237.701 278.603 237.701C277.263 237.701 276.176 238.829 276.176 240.221C276.176 241.614 277.263 242.742 278.603 242.742Z" fill="#407BFF"/>
<path d="M256.228 242.742C257.569 242.742 258.655 241.614 258.655 240.221C258.655 238.829 257.569 237.701 256.228 237.701C254.888 237.701 253.801 238.829 253.801 240.221C253.801 241.614 254.888 242.742 256.228 242.742Z" fill="#407BFF"/>
<path opacity="0.3" d="M259.307 195.284H253.156V199.911H259.307V195.284Z" fill="black"/>
<path d="M280.545 152.846H260.504C258.928 152.847 257.41 153.459 256.245 154.561C255.081 155.663 254.354 157.177 254.207 158.806L252.518 177.611C252.33 179.683 251.431 181.617 249.984 183.057C248.537 184.498 246.64 185.349 244.638 185.456L225.295 186.465C224.163 186.525 223.097 187.034 222.316 187.887C221.535 188.741 221.1 189.873 221.1 191.05V191.471C221.1 192.481 221.486 193.449 222.173 194.162C222.86 194.876 223.792 195.277 224.763 195.277H283.67L286.842 160.056C286.927 159.143 286.828 158.222 286.55 157.352C286.272 156.482 285.823 155.682 285.23 155.003C284.637 154.324 283.914 153.781 283.107 153.41C282.3 153.038 281.427 152.846 280.545 152.846Z" fill="#407BFF"/>
<path opacity="0.3" d="M280.545 152.846H260.504C258.928 152.847 257.41 153.459 256.245 154.561C255.081 155.663 254.354 157.177 254.207 158.806L252.518 177.611C252.33 179.683 251.431 181.617 249.984 183.057C248.537 184.498 246.64 185.349 244.638 185.456L225.295 186.465C224.163 186.525 223.097 187.034 222.316 187.887C221.535 188.741 221.1 189.873 221.1 191.05V191.471C221.1 192.481 221.486 193.449 222.173 194.162C222.86 194.876 223.792 195.277 224.763 195.277H283.67L286.842 160.056C286.927 159.143 286.828 158.222 286.55 157.352C286.272 156.482 285.823 155.682 285.23 155.003C284.637 154.324 283.914 153.781 283.107 153.41C282.3 153.038 281.427 152.846 280.545 152.846Z" fill="white"/>
<path d="M234.544 174.033H237.304V189.027C237.304 189.393 237.164 189.744 236.914 190.003C236.665 190.262 236.327 190.408 235.974 190.408H235.874C235.522 190.408 235.183 190.262 234.934 190.003C234.685 189.744 234.544 189.393 234.544 189.027V174.033Z" fill="#263238"/>
<path opacity="0.2" d="M234.544 174.033H237.304V189.027C237.304 189.393 237.164 189.744 236.914 190.003C236.665 190.262 236.327 190.408 235.974 190.408H235.874C235.522 190.408 235.183 190.262 234.934 190.003C234.685 189.744 234.544 189.393 234.544 189.027V174.033Z" fill="white"/>
<path d="M247.85 169.731H241.713V175.014H247.864C248.208 175.032 248.553 174.978 248.877 174.853C249.201 174.729 249.497 174.537 249.748 174.29C249.998 174.043 250.198 173.746 250.334 173.416C250.47 173.086 250.54 172.731 250.54 172.373C250.54 172.014 250.47 171.659 250.334 171.329C250.198 171 249.998 170.702 249.748 170.455C249.497 170.208 249.201 170.016 248.877 169.892C248.553 169.767 248.208 169.713 247.864 169.731H247.85Z" fill="#407BFF"/>
<path opacity="0.5" d="M247.85 169.731H241.713V175.014H247.864C248.208 175.032 248.553 174.978 248.877 174.853C249.201 174.729 249.497 174.537 249.748 174.29C249.998 174.043 250.198 173.746 250.334 173.416C250.47 173.086 250.54 172.731 250.54 172.373C250.54 172.014 250.47 171.659 250.334 171.329C250.198 171 249.998 170.702 249.748 170.455C249.497 170.208 249.201 170.016 248.877 169.892C248.553 169.767 248.208 169.713 247.864 169.731H247.85Z" fill="white"/>
<path d="M245.396 169.731H223.899C222.544 169.731 221.445 170.872 221.445 172.279V172.473C221.445 173.88 222.544 175.021 223.899 175.021H245.396C246.751 175.021 247.85 173.88 247.85 172.473V172.279C247.85 170.872 246.751 169.731 245.396 169.731Z" fill="#407BFF"/>
<path opacity="0.3" d="M245.396 169.731H223.899C222.544 169.731 221.445 170.872 221.445 172.279V172.473C221.445 173.88 222.544 175.021 223.899 175.021H245.396C246.751 175.021 247.85 173.88 247.85 172.473V172.279C247.85 170.872 246.751 169.731 245.396 169.731Z" fill="white"/>
<path d="M285.053 195.284H255.59L258.875 158.84C259.022 157.211 259.749 155.697 260.913 154.595C262.078 153.493 263.596 152.882 265.172 152.88H285.213C286.093 152.881 286.963 153.072 287.768 153.442C288.573 153.812 289.294 154.352 289.887 155.028C290.48 155.704 290.93 156.501 291.209 157.368C291.489 158.234 291.591 159.152 291.51 160.062L288.644 191.927C288.55 192.848 288.131 193.701 287.468 194.321C286.805 194.941 285.945 195.284 285.053 195.284Z" fill="#407BFF"/>
<path opacity="0.5" d="M285.053 195.284H255.59L258.875 158.84C259.022 157.211 259.749 155.697 260.913 154.595C262.078 153.493 263.596 152.882 265.172 152.88H285.213C286.093 152.881 286.963 153.072 287.768 153.442C288.573 153.812 289.294 154.352 289.887 155.028C290.48 155.704 290.93 156.501 291.209 157.368C291.489 158.234 291.591 159.152 291.51 160.062L288.644 191.927C288.55 192.848 288.131 193.701 287.468 194.321C286.805 194.941 285.945 195.284 285.053 195.284Z" fill="white"/>
<path d="M216.226 242.459H187.574C187.002 242.46 186.436 242.344 185.907 242.117C185.379 241.891 184.899 241.558 184.494 241.139C184.09 240.719 183.769 240.221 183.55 239.672C183.331 239.124 183.218 238.536 183.218 237.942V169.517C183.218 168.923 183.331 168.335 183.55 167.787C183.769 167.238 184.09 166.74 184.494 166.321C184.899 165.901 185.379 165.569 185.907 165.342C186.436 165.115 187.002 164.999 187.574 165H216.226C216.534 165 216.83 165.128 217.048 165.354C217.267 165.581 217.389 165.888 217.389 166.209C217.389 166.529 217.267 166.837 217.048 167.063C216.83 167.29 216.534 167.417 216.226 167.417H187.574C187.309 167.413 187.046 167.463 186.8 167.565C186.554 167.667 186.33 167.819 186.141 168.012C185.953 168.205 185.803 168.435 185.701 168.688C185.598 168.942 185.545 169.214 185.546 169.489V237.915C185.545 238.19 185.598 238.462 185.701 238.716C185.803 238.969 185.953 239.199 186.141 239.392C186.33 239.585 186.554 239.737 186.8 239.839C187.046 239.941 187.309 239.991 187.574 239.987H216.226C216.534 239.987 216.83 240.114 217.048 240.341C217.267 240.567 217.389 240.875 217.389 241.195C217.396 241.358 217.372 241.522 217.316 241.675C217.261 241.828 217.177 241.968 217.068 242.086C216.959 242.204 216.828 242.298 216.684 242.362C216.539 242.426 216.383 242.459 216.226 242.459Z" fill="#263238"/>
<g opacity="0.5">
<path opacity="0.5" d="M216.226 242.459H187.574C187.002 242.46 186.436 242.344 185.907 242.117C185.379 241.891 184.899 241.558 184.494 241.139C184.09 240.719 183.769 240.221 183.55 239.672C183.331 239.124 183.218 238.536 183.218 237.942V169.517C183.218 168.923 183.331 168.335 183.55 167.787C183.769 167.238 184.09 166.74 184.494 166.321C184.899 165.901 185.379 165.569 185.907 165.342C186.436 165.115 187.002 164.999 187.574 165H216.226C216.534 165 216.83 165.128 217.048 165.354C217.267 165.581 217.389 165.888 217.389 166.209C217.389 166.529 217.267 166.837 217.048 167.063C216.83 167.29 216.534 167.417 216.226 167.417H187.574C187.309 167.413 187.046 167.463 186.8 167.565C186.554 167.667 186.33 167.819 186.141 168.012C185.953 168.205 185.803 168.435 185.701 168.688C185.598 168.942 185.545 169.214 185.546 169.489V237.915C185.545 238.19 185.598 238.462 185.701 238.716C185.803 238.969 185.953 239.199 186.141 239.392C186.33 239.585 186.554 239.737 186.8 239.839C187.046 239.941 187.309 239.991 187.574 239.987H216.226C216.534 239.987 216.83 240.114 217.048 240.341C217.267 240.567 217.389 240.875 217.389 241.195C217.396 241.358 217.372 241.522 217.316 241.675C217.261 241.828 217.177 241.968 217.068 242.086C216.959 242.204 216.828 242.298 216.684 242.362C216.539 242.426 216.383 242.459 216.226 242.459Z" fill="white"/>
</g>
<path d="M197.288 128.999L195.294 127.618C195.243 127.584 195.201 127.537 195.172 127.482C195.143 127.428 195.128 127.366 195.128 127.303C195.128 127.241 195.143 127.179 195.172 127.124C195.201 127.069 195.243 127.023 195.294 126.989L197.288 125.608C197.362 125.558 197.451 125.54 197.537 125.558C197.623 125.576 197.698 125.629 197.747 125.705C197.793 125.78 197.809 125.871 197.792 125.959C197.775 126.047 197.725 126.124 197.654 126.174L195.998 127.314L197.654 128.453C197.725 128.504 197.775 128.581 197.792 128.669C197.809 128.756 197.793 128.847 197.747 128.923C197.694 128.994 197.618 129.041 197.532 129.055C197.447 129.069 197.36 129.049 197.288 128.999Z" fill="white"/>
<path d="M201.703 128.902C201.664 128.827 201.653 128.738 201.674 128.655C201.695 128.571 201.746 128.499 201.816 128.453L203.472 127.314L201.816 126.154C201.745 126.103 201.696 126.025 201.68 125.937C201.663 125.849 201.682 125.758 201.73 125.684C201.754 125.647 201.784 125.615 201.819 125.59C201.855 125.565 201.895 125.547 201.937 125.538C201.979 125.529 202.022 125.529 202.064 125.537C202.106 125.546 202.146 125.563 202.182 125.587L204.177 126.969C204.228 127.002 204.27 127.049 204.299 127.104C204.327 127.159 204.343 127.22 204.343 127.283C204.343 127.345 204.327 127.407 204.299 127.462C204.27 127.517 204.228 127.563 204.177 127.597L202.182 128.978C202.146 129.007 202.105 129.028 202.061 129.04C202.018 129.052 201.972 129.055 201.927 129.048C201.882 129.041 201.839 129.024 201.801 128.999C201.762 128.974 201.729 128.941 201.703 128.902Z" fill="white"/>
<path d="M198.971 129.835C198.929 129.821 198.891 129.8 198.858 129.771C198.825 129.742 198.798 129.707 198.778 129.667C198.758 129.627 198.746 129.583 198.743 129.539C198.739 129.494 198.744 129.449 198.758 129.406L200.134 124.89C200.146 124.847 200.167 124.808 200.194 124.773C200.221 124.739 200.254 124.711 200.292 124.69C200.33 124.67 200.371 124.657 200.414 124.653C200.456 124.65 200.499 124.655 200.54 124.669C200.581 124.681 200.619 124.702 200.652 124.731C200.685 124.759 200.712 124.793 200.732 124.833C200.752 124.872 200.764 124.915 200.767 124.959C200.771 125.004 200.766 125.048 200.753 125.09L199.383 129.614C199.37 129.656 199.349 129.696 199.321 129.731C199.294 129.765 199.26 129.793 199.221 129.814C199.183 129.834 199.141 129.847 199.098 129.85C199.055 129.854 199.012 129.849 198.971 129.835Z" fill="white"/>
<path d="M210.262 133.288H195.453C195.408 133.288 195.364 133.279 195.322 133.261C195.281 133.242 195.243 133.216 195.211 133.182C195.18 133.149 195.155 133.109 195.138 133.066C195.122 133.022 195.113 132.976 195.114 132.929C195.113 132.882 195.122 132.835 195.138 132.792C195.155 132.748 195.18 132.708 195.211 132.675C195.243 132.642 195.281 132.615 195.322 132.597C195.364 132.579 195.408 132.569 195.453 132.569H210.262C210.353 132.569 210.441 132.607 210.506 132.675C210.571 132.742 210.607 132.833 210.607 132.929C210.607 132.976 210.598 133.023 210.581 133.066C210.564 133.11 210.538 133.149 210.506 133.183C210.474 133.216 210.436 133.243 210.394 133.261C210.352 133.279 210.307 133.288 210.262 133.288Z" fill="white"/>
<path d="M227.27 133.288H212.456C212.41 133.288 212.365 133.279 212.323 133.261C212.281 133.243 212.243 133.216 212.211 133.183C212.179 133.149 212.154 133.11 212.136 133.066C212.119 133.023 212.11 132.976 212.11 132.929C212.117 132.838 212.156 132.754 212.22 132.692C212.284 132.631 212.368 132.597 212.456 132.597H227.257C227.349 132.597 227.437 132.635 227.502 132.702C227.566 132.77 227.603 132.861 227.603 132.956C227.596 133.044 227.559 133.127 227.498 133.188C227.436 133.249 227.355 133.285 227.27 133.288Z" fill="white"/>
<path d="M203.918 136.451H195.453C195.408 136.451 195.364 136.442 195.322 136.424C195.281 136.405 195.243 136.379 195.211 136.345C195.18 136.312 195.155 136.272 195.138 136.229C195.122 136.185 195.113 136.139 195.114 136.092C195.114 135.998 195.15 135.909 195.214 135.842C195.277 135.776 195.363 135.739 195.453 135.739H203.918C204.009 135.739 204.096 135.776 204.16 135.842C204.225 135.908 204.262 135.998 204.264 136.092C204.264 136.187 204.227 136.278 204.163 136.346C204.098 136.413 204.01 136.451 203.918 136.451Z" fill="white"/>
<path d="M219.983 136.451H206.119C206.074 136.451 206.029 136.442 205.988 136.424C205.946 136.405 205.908 136.379 205.877 136.345C205.845 136.312 205.82 136.272 205.804 136.229C205.787 136.185 205.779 136.139 205.78 136.092C205.78 135.998 205.816 135.909 205.879 135.842C205.943 135.776 206.029 135.739 206.119 135.739H219.983C220.073 135.739 220.159 135.776 220.223 135.842C220.286 135.909 220.322 135.998 220.322 136.092C220.323 136.139 220.315 136.185 220.298 136.229C220.281 136.272 220.257 136.312 220.225 136.345C220.193 136.379 220.156 136.405 220.114 136.424C220.073 136.442 220.028 136.451 219.983 136.451Z" fill="white"/>
<path d="M218.008 139.621H195.453C195.363 139.619 195.277 139.581 195.213 139.513C195.15 139.446 195.114 139.356 195.114 139.262C195.113 139.215 195.122 139.168 195.138 139.125C195.155 139.081 195.18 139.041 195.211 139.008C195.243 138.975 195.281 138.948 195.322 138.93C195.364 138.912 195.408 138.902 195.453 138.902H218.008C218.1 138.902 218.188 138.94 218.252 139.008C218.317 139.075 218.354 139.166 218.354 139.262C218.354 139.357 218.317 139.448 218.252 139.516C218.188 139.583 218.1 139.621 218.008 139.621Z" fill="white"/>
<path d="M224.923 139.621H220.215C220.124 139.621 220.036 139.583 219.971 139.516C219.906 139.448 219.87 139.357 219.87 139.262C219.87 139.166 219.906 139.075 219.971 139.008C220.036 138.94 220.124 138.902 220.215 138.902H224.923C225.015 138.902 225.103 138.94 225.168 139.008C225.232 139.075 225.269 139.166 225.269 139.262C225.269 139.357 225.232 139.448 225.168 139.516C225.103 139.583 225.015 139.621 224.923 139.621Z" fill="white"/>
<path d="M205.986 142.784H195.453C195.408 142.784 195.364 142.775 195.322 142.756C195.281 142.738 195.243 142.712 195.211 142.678C195.18 142.645 195.155 142.605 195.138 142.562C195.122 142.518 195.113 142.471 195.114 142.425C195.113 142.378 195.122 142.331 195.138 142.288C195.155 142.244 195.18 142.204 195.211 142.171C195.243 142.137 195.281 142.111 195.322 142.093C195.364 142.075 195.408 142.065 195.453 142.065H205.986C206.078 142.065 206.166 142.103 206.23 142.17C206.295 142.238 206.332 142.329 206.332 142.425C206.332 142.52 206.295 142.611 206.23 142.679C206.166 142.746 206.078 142.784 205.986 142.784Z" fill="white"/>
<path d="M221.299 142.784H208.193C208.102 142.784 208.014 142.746 207.949 142.679C207.884 142.611 207.848 142.52 207.848 142.425C207.848 142.329 207.884 142.238 207.949 142.17C208.014 142.103 208.102 142.065 208.193 142.065H221.299C221.391 142.065 221.479 142.103 221.544 142.17C221.609 142.238 221.645 142.329 221.645 142.425C221.645 142.52 221.609 142.611 221.544 142.679C221.479 142.746 221.391 142.784 221.299 142.784Z" fill="white"/>
<path d="M210.262 145.947H195.453C195.408 145.947 195.364 145.938 195.322 145.919C195.281 145.901 195.243 145.875 195.211 145.841C195.18 145.808 195.155 145.768 195.138 145.725C195.122 145.681 195.113 145.634 195.114 145.588C195.114 145.494 195.15 145.404 195.214 145.338C195.277 145.272 195.363 145.235 195.453 145.235H210.262C210.307 145.234 210.351 145.243 210.393 145.26C210.435 145.277 210.473 145.303 210.506 145.336C210.538 145.369 210.563 145.408 210.581 145.451C210.598 145.494 210.607 145.541 210.607 145.588C210.607 145.683 210.571 145.774 210.506 145.842C210.441 145.909 210.353 145.947 210.262 145.947Z" fill="white"/>
<path d="M222.915 145.947H212.456C212.364 145.947 212.276 145.909 212.211 145.842C212.146 145.774 212.11 145.683 212.11 145.588C212.11 145.541 212.119 145.494 212.136 145.451C212.154 145.408 212.179 145.369 212.212 145.336C212.244 145.303 212.282 145.277 212.324 145.26C212.366 145.243 212.411 145.234 212.456 145.235H222.902C222.992 145.235 223.078 145.272 223.142 145.338C223.205 145.404 223.241 145.494 223.241 145.588C223.243 145.68 223.21 145.769 223.149 145.836C223.088 145.904 223.004 145.943 222.915 145.947Z" fill="white"/>
<path d="M94.4097 84.1301C94.6823 87.3829 94.0041 93.2738 91.6436 95.1799C95.4935 96.6232 99.5762 99.1094 102.183 102.39C104.769 98.481 101.83 96.2503 101.83 96.2503C98.5057 95.021 98.8581 92.4036 99.7159 89.9934L94.4097 84.1301Z" fill="#B97964"/>
<path d="M106.997 81.3265C106.957 81.7343 107.143 82.0867 107.402 82.1143C107.662 82.142 107.894 81.8241 107.934 81.4233C107.974 81.0225 107.788 80.6631 107.529 80.6355C107.269 80.6079 107.043 80.9188 106.997 81.3265Z" fill="#263238"/>
<path d="M107.429 80.6427L108.393 80.4492C108.393 80.4492 107.841 81.1886 107.429 80.6427Z" fill="#263238"/>
<path d="M107.13 81.7612C107.401 82.7326 107.797 83.6617 108.307 84.5237C108.091 84.6532 107.851 84.7326 107.603 84.7564C107.355 84.7803 107.105 84.748 106.871 84.6618L107.13 81.7612Z" fill="#A24E3F"/>
<path d="M108.114 79.1791C108.175 79.169 108.231 79.1373 108.273 79.0893C108.314 79.0432 108.337 78.9827 108.337 78.9199C108.337 78.8571 108.314 78.7967 108.273 78.7506C108 78.4912 107.671 78.3037 107.313 78.2039C106.956 78.1041 106.58 78.0949 106.219 78.1771C106.168 78.2136 106.132 78.2688 106.118 78.3315C106.105 78.3943 106.114 78.46 106.145 78.5157C106.166 78.5512 106.195 78.5803 106.23 78.5997C106.266 78.6192 106.305 78.6284 106.345 78.6263C106.632 78.5691 106.929 78.5825 107.21 78.6653C107.492 78.748 107.751 78.8979 107.967 79.1031C108.006 79.1455 108.058 79.1724 108.114 79.1791Z" fill="#263238"/>
<path d="M94.0968 78.7295C93.9439 83.7778 93.7777 85.9256 95.9454 88.7433C99.2102 92.9767 105.121 92.0513 106.704 87.1342C108.127 82.7074 108.14 75.1659 103.665 72.7212C99.1902 70.2764 94.2365 73.6673 94.0968 78.7295Z" fill="#B97964"/>
<path d="M94.3097 88.2668C89.5288 87.4174 90.8986 84.2889 90.8986 84.2889C86.1909 83.3013 89.8281 80.9118 89.8281 80.9118C85.9116 79.1577 89.8281 77.5831 89.8281 77.5831C86.0512 74.3303 91.4372 73.2046 91.4372 73.2046C90.1073 68.1286 94.7619 70.2143 94.7619 70.2143C97.2886 65.8496 99.4696 70.014 99.4696 70.014C103.898 63.7985 104.975 69.0402 104.975 69.0402C109.503 67.8041 107.768 72.7488 107.768 72.7488C111.492 73.7847 108.566 75.7461 108.566 75.7461C110.002 77.6314 104.809 77.956 104.809 77.956C104.809 77.956 107.283 82.0997 104.809 83.2392L98.5187 88.2461C98.5187 88.2461 95.613 87.0168 94.3097 88.2668Z" fill="#263238"/>
<path d="M99.0107 84.1923C99.0107 84.1923 102.335 75.905 99.7355 68.8331L101.93 68.0527C101.93 68.0527 104.796 78.3359 99.0107 84.1923Z" fill="#407BFF"/>
<path d="M102.329 83.2807C102.874 84.4685 103.087 84.9865 103.872 85.3525C104.114 85.4969 104.392 85.5641 104.671 85.5456C104.949 85.5271 105.217 85.4238 105.439 85.2485C105.662 85.0732 105.83 84.8338 105.923 84.56C106.015 84.2862 106.028 83.9902 105.96 83.7089C105.753 82.521 104.876 80.7738 103.659 80.7393C103.374 80.7407 103.095 80.8215 102.851 80.9732C102.607 81.1249 102.406 81.3419 102.271 81.6016C102.135 81.8613 102.068 82.1541 102.079 82.4495C102.089 82.7448 102.175 83.0319 102.329 83.2807Z" fill="#B97964"/>
<path d="M98.8911 100.532C98.8911 100.532 103.393 103.985 105.221 105.366L118.247 98.9852C118.229 98.2351 118.428 97.4967 118.82 96.866C119.211 96.2353 119.776 95.7416 120.442 95.4493L121.373 95.0487L123.334 94.1371C123.7 93.9676 124.102 93.9013 124.5 93.9449C124.898 93.9886 125.278 94.1406 125.601 94.3857C125.981 94.6733 126.266 95.0759 126.418 95.5382C126.569 96.0006 126.579 96.5002 126.446 96.9686C126.172 97.9397 125.661 98.8205 124.962 99.525C124.263 100.23 123.399 100.734 122.456 100.988L120.555 101.506C120.555 101.506 109.39 110.29 105.401 110.498C101.411 110.705 95.5664 106.637 95.5664 106.637L98.8911 100.532Z" fill="#B97964"/>
<path d="M88.0662 94.7102C91.5039 94.7102 95.3472 96.934 101.365 101.009C100.501 103.946 98.8931 106.588 96.7103 108.661C96.7103 108.661 93.3856 107.735 88.9705 103.419C83.651 98.1909 85.9583 94.7171 88.0662 94.7102Z" fill="#263238"/>
<path d="M153.363 105.055H120.781C120.507 105.06 120.235 105.004 119.983 104.891C119.732 104.778 119.506 104.611 119.321 104.401C119.136 104.191 118.996 103.942 118.911 103.672C118.826 103.401 118.797 103.115 118.826 102.832L121.28 73.7018C121.338 73.0995 121.607 72.5404 122.036 72.1306C122.465 71.7207 123.024 71.4885 123.607 71.4781H156.189C156.462 71.4734 156.734 71.5293 156.986 71.6422C157.237 71.7551 157.462 71.9223 157.647 72.1327C157.831 72.343 157.97 72.5918 158.055 72.8624C158.139 73.1329 158.167 73.4191 158.137 73.7018L155.683 102.832C155.625 103.433 155.357 103.991 154.929 104.401C154.501 104.81 153.944 105.043 153.363 105.055Z" fill="#407BFF"/>
<path opacity="0.4" d="M153.363 105.055H120.781C120.507 105.06 120.235 105.004 119.983 104.891C119.732 104.778 119.506 104.611 119.321 104.401C119.136 104.191 118.996 103.942 118.911 103.672C118.826 103.401 118.797 103.115 118.826 102.832L121.28 73.7018C121.338 73.0995 121.607 72.5404 122.036 72.1306C122.465 71.7207 123.024 71.4885 123.607 71.4781H156.189C156.462 71.4734 156.734 71.5293 156.986 71.6422C157.237 71.7551 157.462 71.9223 157.647 72.1327C157.831 72.343 157.97 72.5918 158.055 72.8624C158.139 73.1329 158.167 73.4191 158.137 73.7018L155.683 102.832C155.625 103.433 155.357 103.991 154.929 104.401C154.501 104.81 153.944 105.043 153.363 105.055Z" fill="white"/>
<path opacity="0.7" d="M153.482 103.674C153.703 103.67 153.914 103.582 154.076 103.427C154.238 103.271 154.339 103.06 154.36 102.832L156.814 73.7018C156.825 73.5947 156.814 73.4863 156.782 73.3839C156.75 73.2814 156.698 73.1872 156.628 73.1076C156.558 73.0279 156.473 72.9645 156.377 72.9217C156.282 72.8789 156.179 72.8576 156.076 72.8592H123.494C123.273 72.8631 123.061 72.9509 122.898 73.1062C122.735 73.2614 122.632 73.4733 122.61 73.7018L120.163 102.832C120.151 102.939 120.162 103.047 120.194 103.15C120.226 103.252 120.279 103.346 120.349 103.426C120.418 103.506 120.504 103.569 120.599 103.612C120.694 103.655 120.797 103.676 120.901 103.674H153.482Z" fill="white"/>
<path d="M130.841 86.5471L120.202 102.542V102.832C120.191 102.939 120.202 103.047 120.234 103.15C120.266 103.252 120.318 103.346 120.388 103.426C120.458 103.506 120.543 103.569 120.638 103.612C120.734 103.655 120.836 103.676 120.94 103.674H139.399L130.841 86.5471Z" fill="#407BFF"/>
<path opacity="0.3" d="M130.841 86.5471L120.202 102.542V102.832C120.191 102.939 120.202 103.047 120.234 103.15C120.266 103.252 120.318 103.346 120.388 103.426C120.458 103.506 120.543 103.569 120.638 103.612C120.734 103.655 120.836 103.676 120.94 103.674H139.399L130.841 86.5471Z" fill="white"/>
<path d="M154.453 101.72L145.536 84.1301L132.331 103.674H153.482C153.703 103.67 153.914 103.582 154.076 103.427C154.237 103.271 154.339 103.06 154.36 102.832L154.453 101.72Z" fill="#407BFF"/>
<path d="M142.092 81.0224C142.011 81.8641 141.635 82.6456 141.035 83.2184C140.436 83.7913 139.655 84.1157 138.841 84.1301C138.457 84.1374 138.077 84.0597 137.725 83.9024C137.373 83.745 137.057 83.5116 136.798 83.2176C136.54 82.9236 136.344 82.5757 136.225 82.1972C136.106 81.8187 136.066 81.4182 136.108 81.0224C136.188 80.1794 136.563 79.3962 137.162 78.8219C137.762 78.2477 138.544 77.9223 139.359 77.9077C139.743 77.9003 140.124 77.9781 140.477 78.1359C140.83 78.2936 141.146 78.5277 141.405 78.8225C141.663 79.1173 141.858 79.466 141.977 79.8454C142.096 80.2247 142.135 80.626 142.092 81.0224Z" fill="#407BFF"/>
<path opacity="0.4" d="M142.092 81.0224C142.011 81.8641 141.635 82.6456 141.035 83.2184C140.436 83.7913 139.655 84.1157 138.841 84.1301C138.457 84.1374 138.077 84.0597 137.725 83.9024C137.373 83.745 137.057 83.5116 136.798 83.2176C136.54 82.9236 136.344 82.5757 136.225 82.1972C136.106 81.8187 136.066 81.4182 136.108 81.0224C136.188 80.1794 136.563 79.3962 137.162 78.8219C137.762 78.2477 138.544 77.9223 139.359 77.9077C139.743 77.9003 140.124 77.9781 140.477 78.1359C140.83 78.2936 141.146 78.5277 141.405 78.8225C141.663 79.1173 141.858 79.466 141.977 79.8454C142.096 80.2247 142.135 80.626 142.092 81.0224Z" fill="white"/>
<path d="M60.7835 222.632L57.4722 232.825L62.5456 234.98L66.5153 225.574L60.7835 222.632Z" fill="#B97964"/>
<path d="M64.3677 234.725C64.3417 234.708 64.3205 234.685 64.3065 234.657C64.2924 234.629 64.286 234.597 64.2879 234.566C64.2917 234.535 64.3046 234.507 64.325 234.484C64.3453 234.462 64.3719 234.447 64.401 234.441C64.5074 234.441 66.9011 233.861 67.7922 234.441C67.9606 234.548 68.0823 234.719 68.1313 234.918C68.1685 235.029 68.1719 235.148 68.1409 235.261C68.11 235.374 68.0462 235.474 67.9584 235.547C67.6193 235.796 66.828 235.692 66.1032 235.457C65.5056 235.265 64.925 235.02 64.3677 234.725ZM64.8731 234.676C65.917 235.16 67.3932 235.623 67.7788 235.319C67.832 235.277 67.8985 235.208 67.8453 234.994C67.835 234.932 67.8103 234.872 67.7732 234.822C67.7362 234.771 67.6879 234.731 67.6326 234.704C67.5542 234.652 67.4691 234.613 67.3799 234.586C66.5464 234.451 65.6956 234.481 64.8731 234.676Z" fill="#407BFF"/>
<path d="M64.2945 234.69C64.2817 234.667 64.2749 234.64 64.2749 234.614C64.2749 234.587 64.2817 234.561 64.2945 234.538C64.2945 234.469 64.9594 232.88 65.897 232.466C66.0308 232.408 66.1743 232.378 66.3192 232.378C66.4642 232.378 66.6077 232.408 66.7415 232.466C67.1072 232.625 67.167 232.866 67.1338 233.032C67.054 233.757 65.2587 234.621 64.474 234.717C64.4647 234.722 64.4545 234.725 64.4441 234.725C64.4337 234.725 64.4235 234.722 64.4142 234.717C64.3936 234.724 64.3718 234.724 64.3509 234.72C64.33 234.715 64.3106 234.704 64.2945 234.69ZM66.5486 232.735C66.3769 232.67 66.1884 232.67 66.0167 232.735C65.4248 233.117 64.9604 233.679 64.6868 234.344C65.5446 234.13 66.7681 233.398 66.8545 232.963C66.8545 232.922 66.8545 232.811 66.6284 232.715H66.5486V232.735Z" fill="#407BFF"/>
<path d="M64.022 233.681L57.6519 231.61C57.5353 231.572 57.4099 231.577 57.2964 231.624C57.1828 231.67 57.0878 231.755 57.0269 231.865L54.2741 236.879C54.2146 236.985 54.1758 237.101 54.1599 237.222C54.1441 237.344 54.1516 237.467 54.1819 237.585C54.2122 237.703 54.2647 237.814 54.3365 237.911C54.4082 238.008 54.4977 238.089 54.5999 238.15C54.6542 238.184 54.7122 238.212 54.7728 238.233C57.0801 238.923 59.1613 239.448 62.0206 240.374C65.3984 241.451 64.4143 241.596 68.364 242.929C70.7445 243.73 72.0212 241.043 71.0238 240.581C66.5621 238.509 66.5155 236.879 65.2388 234.579C64.95 234.138 64.5182 233.819 64.022 233.681Z" fill="#263238"/>
<path opacity="0.2" d="M59.1948 227.521L64.5143 230.311L66.5157 225.574L60.784 222.632L59.1948 227.521Z" fill="#263238"/>
<path d="M83.2717 128.35C83.2717 128.35 76.1236 134.02 77.653 151.782C77.7993 153.426 78.3179 155.145 78.3179 157.024C78.3179 158.274 77.9854 159.151 77.5931 161.962C77.0213 166.05 75.9707 181.299 74.8603 183.281C73.7498 185.263 73.2977 184.911 70.2057 190.38C66.881 196.264 62.559 206.582 59.2144 224.068C61.4476 225.705 63.9984 226.816 66.6882 227.321C66.6882 227.321 84.954 197.404 88.8372 186.264C92.3148 176.299 96.4573 144.496 96.4573 144.496L96.7898 130.684L83.2717 128.35Z" fill="#407BFF"/>
<path opacity="0.1" d="M91.0914 151.782H85.9182C85.9182 151.782 84.216 168.688 89.8414 182.791C90.4265 180.525 91.0183 177.811 91.5968 174.876L93.8376 159.987C93.5184 157.473 93.2724 155.553 93.2325 155.429C93.1195 155.035 91.0914 151.782 91.0914 151.782Z" fill="black"/>
<path d="M90.2402 226.734L90.2735 237.57L96.1582 237.162L97.0625 226.734H90.2402Z" fill="#B97964"/>
<path d="M96.8367 236.977C96.8074 236.973 96.78 236.959 96.7585 236.938C96.737 236.917 96.7225 236.889 96.7171 236.859C96.7102 236.829 96.713 236.797 96.725 236.768C96.7369 236.74 96.7575 236.716 96.7835 236.7C96.8766 236.645 98.9579 235.318 99.9885 235.553C100.181 235.598 100.349 235.716 100.461 235.885C100.529 235.978 100.569 236.09 100.575 236.208C100.581 236.325 100.553 236.441 100.494 236.541C99.9823 236.94 99.3497 237.134 98.7119 237.087C98.0849 237.109 97.4573 237.072 96.8367 236.977ZM97.3022 236.762C98.4392 236.866 99.9619 236.797 100.248 236.375C100.288 236.32 100.321 236.23 100.208 236.044C100.177 235.989 100.135 235.943 100.084 235.908C100.033 235.874 99.9756 235.851 99.9154 235.843C99.825 235.829 99.7331 235.829 99.6428 235.843C98.8123 235.988 98.0172 236.3 97.3022 236.762Z" fill="#407BFF"/>
<path d="M96.7567 236.976C96.7345 236.961 96.7161 236.94 96.7033 236.916C96.6906 236.892 96.6838 236.865 96.6836 236.837C96.6836 236.762 96.7966 235.042 97.548 234.351C97.6551 234.249 97.7811 234.171 97.9182 234.121C98.0554 234.071 98.2009 234.051 98.3459 234.061C98.7449 234.061 98.8779 234.296 98.8978 234.469C99.0508 235.159 97.6345 236.603 96.903 236.969C96.8836 236.976 96.8626 236.976 96.8432 236.969C96.8161 236.982 96.7854 236.984 96.7567 236.976ZM98.2595 234.351C98.0765 234.355 97.9014 234.429 97.7674 234.558C97.3289 235.121 97.0688 235.811 97.0227 236.534C97.7608 236.043 98.6851 234.931 98.6319 234.503C98.6319 234.462 98.5986 234.351 98.3393 234.337H98.2595V234.351Z" fill="#407BFF"/>
<path d="M96.185 236.112L89.5357 236.361C89.4143 236.367 89.2983 236.415 89.2066 236.497C89.1148 236.58 89.0527 236.693 89.0304 236.817L88.0197 242.494C87.9748 242.734 88.0238 242.984 88.156 243.187C88.2881 243.391 88.4926 243.531 88.7245 243.578C88.7886 243.585 88.8532 243.585 88.9173 243.578C91.3177 243.44 93.4455 243.226 96.4377 243.122C99.9685 242.991 99.0975 243.46 103.24 243.371C105.747 243.309 106.099 240.339 105.035 240.235C100.161 239.78 99.6028 238.274 97.6678 236.541C97.2418 236.212 96.7133 236.059 96.185 236.112Z" fill="#263238"/>
<path opacity="0.2" d="M90.2602 232.342L96.5904 232.204L97.0625 226.734H90.2402L90.2602 232.342Z" fill="#263238"/>
<path d="M87.2549 126.382C87.2549 126.382 80.1201 136.195 85.4063 155.387L91.3908 183.419C91.3908 183.419 85.7122 196.168 88.731 229.8C91.657 230.227 94.6304 230.157 97.5347 229.593C97.5347 229.593 104.184 194.075 105.188 182.079C106.299 168.861 105.634 129.02 105.634 129.02L87.2549 126.382Z" fill="#407BFF"/>
<path d="M91.5637 94.5721C91.5637 94.5721 90.4599 89.6687 97.5481 91.8096C104.636 93.9505 104.038 98.1425 104.038 98.1425L91.5637 94.5721Z" fill="#263238"/>
<path opacity="0.4" d="M91.5637 94.5721C91.5637 94.5721 90.4599 89.6687 97.5481 91.8096C104.636 93.9505 104.038 98.1425 104.038 98.1425L91.5637 94.5721Z" fill="black"/>
<path d="M109.144 106.837C109.144 108.557 108.479 111.043 107.814 113.826C107.509 115.145 107.229 116.52 107.043 117.915C106.039 125.511 105.713 133.516 105.713 133.516C101.8 134.402 97.7534 134.442 93.8249 133.633C89.8965 132.824 86.1705 131.183 82.8794 128.812C82.8794 128.812 85.6655 126.361 85.0936 109.379C84.8343 101.727 82.1746 92.6314 94.3495 94.061C104.629 95.2696 108.087 98.5845 108.918 103.771C108.918 103.833 108.918 103.902 108.918 103.971L108.978 104.455C109.079 105.245 109.134 106.04 109.144 106.837Z" fill="#263238"/>
<path opacity="0.4" d="M109.144 106.837C109.144 108.557 108.479 111.043 107.815 113.826C105.035 110.373 102.249 103.847 102.249 103.847L104.543 100.339L108.586 102.293C108.726 102.778 108.837 103.272 108.918 103.771C108.918 103.833 108.918 103.902 108.918 103.971L108.978 104.455C109.079 105.245 109.134 106.04 109.144 106.837Z" fill="black"/>
<path d="M113.38 103.84C113.38 103.84 117.37 107.928 118.946 109.572L132.736 105.277C132.827 104.536 133.128 103.84 133.602 103.279C134.076 102.718 134.701 102.317 135.396 102.127L136.367 101.865L138.442 101.271C138.828 101.162 139.235 101.161 139.622 101.266C140.01 101.371 140.364 101.58 140.649 101.872C140.983 102.214 141.208 102.655 141.291 103.135C141.374 103.615 141.313 104.109 141.115 104.551C140.704 105.469 140.072 106.261 139.28 106.851C138.487 107.44 137.562 107.806 136.593 107.915L134.638 108.129C134.638 108.129 122.33 115.111 118.367 114.724C114.404 114.337 109.198 109.386 109.198 109.386L113.38 103.84Z" fill="#B97964"/>
<path d="M103.473 96.4022C106.877 96.9202 110.355 99.7309 115.754 104.69C114.475 107.463 112.502 109.829 110.042 111.54C110.042 111.54 106.897 110.111 103.147 105.159C98.612 99.1647 101.411 96.0845 103.473 96.4022Z" fill="#263238"/>
</svg>
